<?xml version="1.0" standalone="no"?>
<!DOCTYPE svg PUBLIC "-//W3C//DTD SVG 20010904//EN"
 "http://www.w3.org/TR/2001/REC-SVG-20010904/DTD/svg10.dtd">
<svg version="1.0" xmlns="http://www.w3.org/2000/svg"
 width="874.498356pt" height="556.984694pt" viewBox="0 0 874.498356 556.984694"
 preserveAspectRatio="xMidYMid meet">
<metadata>
Created by potrace 1.16, written by Peter Selinger 2001-2019
</metadata>
<g transform="translate(-195.500000,631.984694) scale(0.100000,-0.100000)"
fill="#000000" stroke="none">
<g>
<path d="M3355 6312 c-15 -11 -118 -222 -111 -229 3 -3 25 -6 48 -7 l43 -1 0
-220 0 -220 -630 0 c-346 0 -636 -2 -642 -3 -18 -3 -16 -27 3 -43 12 -10 76
-12 300 -10 l284 3 -2 -339 -3 -338 -295 -5 c-287 -5 -295 -6 -295 -25 0 -19
8 -20 298 -23 l297 -2 0 -335 c0 -261 -3 -335 -12 -336 -7 0 -141 -1 -298 -2
l-285 -2 -3 -22 -3 -23 298 -2 298 -3 0 -340 0 -340 -297 -3 c-245 -2 -298 -5
-298 -16 0 -8 8 -17 18 -21 9 -4 143 -8 297 -9 l280 -1 3 -293 2 -294 -275 7
c-284 8 -325 4 -325 -32 0 -10 60 -13 298 -15 l297 -3 3 -292 2 -293 -297 -2
c-290 -3 -298 -4 -298 -23 0 -19 8 -20 295 -25 l295 -5 0 -290 0 -290 -345 -5
c-337 -5 -345 -5 -345 -25 0 -20 8 -20 3948 -23 l3947 -2 0 -44 c0 -25 4 -47
10 -51 5 -3 26 5 47 18 45 27 149 77 163 77 5 0 14 9 20 20 9 17 8 21 -7 26
-10 3 -64 28 -119 55 -56 27 -105 49 -108 49 -3 0 -6 -23 -6 -50 l0 -51 -76 3
-76 3 1 290 0 290 211 3 211 2 -3 23 c-3 22 -4 22 -211 24 l-208 1 0 294 -1
293 211 3 c166 2 211 5 211 16 0 31 -43 37 -234 34 l-187 -3 0 285 c0 157 1
289 1 294 0 5 82 5 189 1 150 -5 193 -4 210 6 52 33 27 39 -189 41 l-210 3 -2
343 -3 342 213 0 213 0 -3 23 -3 22 -208 0 -209 0 -1 337 -2 338 210 2 c202 3
210 4 210 23 0 19 -8 20 -210 25 -115 3 -209 8 -207 13 1 4 2 156 2 338 l0
332 193 -5 c155 -5 197 -3 212 8 17 13 17 16 4 29 -13 13 -431 15 -3364 17
l-3350 3 0 220 0 220 48 3 c26 2 47 6 47 9 0 12 -112 233 -118 233 -4 0 -11
-4 -17 -8z m-15 -852 c0 -105 -2 -120 -18 -129 -28 -15 -70 -81 -77 -123 -9
-48 16 -101 61 -129 34 -21 34 -21 34 -99 0 -43 -4 -80 -10 -82 -5 -1 -149 -2
-320 0 l-310 3 0 339 0 340 320 0 320 0 0 -120z m773 -212 c-1 -181 -2 -332
-2 -338 -1 -6 -85 -10 -231 -10 l-230 0 -7 30 c-3 17 -10 33 -14 36 -5 3 -9
14 -9 25 0 10 -4 27 -9 37 -5 9 -14 31 -21 47 -7 17 -16 38 -21 47 -5 10 -9
25 -9 33 0 8 -4 23 -9 33 -5 9 -13 28 -18 42 -6 14 -15 36 -21 50 -5 14 -25
63 -43 110 -17 47 -40 104 -51 127 -10 23 -18 47 -18 53 0 7 109 9 357 8 l356
-3 0 -327z m777 -8 l0 -340 -362 2 -363 3 -3 338 -2 337 365 0 365 0 0 -340z
m864 -3 l1 -337 -405 2 -405 3 -3 338 -2 337 406 -2 406 -3 2 -338z m779 0 l2
-337 -362 0 -363 0 0 333 c0 184 3 337 7 340 4 4 166 6 360 5 l354 -3 2 -338z
m777 3 l0 -340 -362 2 -363 3 -3 338 -2 337 365 0 365 0 0 -340z m780 0 l0
-340 -365 0 -365 0 0 340 0 340 365 0 365 0 0 -340z m778 3 l-3 -338 -360 0
-360 0 -3 338 -2 337 365 0 365 0 -2 -337z m772 330 c0 -65 1 -651 0 -660 0
-10 -79 -13 -358 -13 -197 0 -361 2 -363 4 -2 2 -3 155 -1 340 l3 336 359 0
c198 0 360 -3 360 -7z m-6218 -180 c1 -15 7 -35 14 -43 13 -16 81 -194 91
-238 3 -12 9 -25 14 -28 5 -3 9 -14 9 -25 0 -10 5 -28 10 -39 24 -48 28 -57
34 -87 l7 -32 -98 -3 c-54 -2 -101 -2 -105 0 -5 2 -8 44 -8 94 0 82 2 93 26
121 21 25 25 38 20 65 -3 19 -14 45 -26 57 -22 24 -28 103 -9 122 8 8 8 13 0
17 -12 8 -15 59 -4 70 10 9 23 -17 25 -51z m-86 -128 c-3 -9 -11 -13 -16 -10
-8 5 -7 11 1 21 14 18 24 11 15 -11z m4 -101 c0 -72 -12 -82 -35 -26 -15 34
-15 40 -1 70 23 47 36 31 36 -44z m297 -332 c7 -9 13 -27 13 -39 0 -12 5 -25
10 -28 6 -3 10 -16 10 -29 0 -12 4 -26 8 -32 4 -5 14 -27 21 -49 7 -22 17 -50
22 -62 18 -45 27 -69 39 -103 15 -42 29 -79 41 -102 5 -10 9 -22 9 -28 0 -6 9
-32 21 -58 45 -103 49 -114 45 -120 -2 -4 -111 -7 -241 -7 l-237 1 -2 337 c0
185 2 338 6 340 4 1 56 1 115 -1 86 -3 109 -7 120 -20z m-301 -319 l-1 -337
-317 0 -318 -1 0 338 0 337 319 0 319 0 -2 -337z m779 -1 l0 -337 -86 -3 c-61
-2 -89 1 -95 10 -6 7 -21 45 -34 83 -12 39 -26 75 -30 80 -4 6 -13 31 -21 58
-7 26 -17 47 -21 47 -4 0 -8 9 -8 20 0 11 -4 28 -9 38 -11 22 -31 70 -64 152
-5 14 -13 33 -18 42 -5 10 -9 23 -9 28 0 6 -9 30 -20 52 -34 71 -44 68 198 68
l217 0 0 -338z m777 13 c0 -179 1 -330 2 -337 1 -9 -86 -12 -366 -13 l-368 0
0 338 0 337 365 0 365 0 2 -325z m862 -11 l-1 -337 -407 -3 -406 -4 0 340 0
340 408 0 407 0 -1 -336z m781 13 l0 -324 -40 5 c-29 3 -50 -1 -72 -14 -28
-17 -54 -19 -319 -18 l-289 1 -3 337 -2 336 362 0 363 0 0 -323z m775 -17 l0
-340 -125 0 c-106 0 -131 3 -162 20 -38 20 -38 20 -45 0 -7 -19 -17 -20 -151
-20 -79 0 -147 3 -150 7 -4 3 -2 12 4 20 19 22 -15 16 -36 -7 -11 -12 -28 -20
-39 -18 -21 3 -21 9 -24 341 l-2 337 365 0 365 0 0 -340z m780 3 l0 -338 -365
0 -365 0 0 338 0 337 365 0 365 0 0 -337z m780 8 c0 -214 -4 -332 -10 -336 -6
-4 -170 -7 -365 -8 l-354 -2 -3 333 c-2 184 -1 336 1 338 2 2 168 4 368 4
l363 0 0 -329z m774 -9 l-1 -337 -362 2 -362 2 0 333 c1 183 1 334 1 336 0 1
163 2 363 2 l362 0 -1 -338z m-3167 -338 c-9 -9 -28 6 -21 18 4 6 10 6 17 -1
6 -6 8 -13 4 -17z m-3141 -386 l-1 -343 -317 -3 -317 -2 -3 341 c-2 187 -1
343 1 345 2 2 147 4 321 4 l316 0 0 -342z m596 257 c16 -44 33 -91 37 -105 5
-14 17 -45 29 -70 11 -25 24 -58 27 -73 4 -15 11 -30 16 -33 5 -3 9 -12 9 -20
0 -8 8 -33 19 -57 38 -86 45 -111 45 -176 l1 -66 -360 -3 -360 -2 0 345 0 345
254 -2 254 -3 29 -80z m188 -114 c0 -110 -4 -202 -8 -205 -5 -3 -19 26 -32 65
-13 39 -27 72 -32 75 -4 3 -8 16 -8 29 0 13 -4 27 -10 30 -5 3 -10 13 -10 21
0 8 -9 36 -21 62 -40 90 -49 113 -49 117 0 3 38 5 85 5 l85 0 0 -199z m760
191 c0 -4 -16 -31 -35 -59 -19 -29 -35 -57 -35 -63 0 -5 -3 -10 -7 -10 -5 0
-13 -10 -19 -23 -6 -12 -68 -116 -137 -232 -69 -115 -137 -229 -151 -253 l-26
-43 -132 3 -132 3 -16 47 c-9 26 -19 51 -23 55 -4 3 -7 136 -7 295 l0 288 360
0 c198 0 360 -3 360 -8z m880 -68 c0 -74 -1 -76 -22 -70 -13 3 -54 13 -93 22
-38 8 -86 20 -105 24 -19 5 -60 14 -90 20 -30 7 -71 16 -90 20 -19 5 -60 14
-90 21 -178 36 -174 37 168 38 l322 1 0 -76z m610 66 c0 -6 -11 -15 -25 -22
-21 -9 -22 -13 -11 -29 10 -15 8 -34 -11 -110 -13 -51 -25 -94 -27 -96 -4 -4
-105 17 -131 27 -20 8 -56 16 -125 26 -19 3 -44 9 -55 14 -11 5 -36 11 -55 14
-19 3 -53 10 -75 14 l-40 7 -3 83 -3 82 281 0 c184 0 280 -4 280 -10z m170
-150 c0 -184 11 -170 -113 -143 -87 20 -84 14 -57 108 6 22 15 57 19 78 5 21
16 46 25 56 11 12 13 21 7 25 -6 4 -8 13 -4 21 4 11 21 15 64 15 l59 0 0 -160z
m494 144 c3 -9 9 -46 12 -82 8 -82 -9 -168 -41 -216 -30 -45 -10 -56 33 -17
62 57 89 154 68 242 -7 30 -17 62 -21 72 -7 16 1 17 111 15 66 -2 118 -6 117
-10 -2 -5 -3 -118 -3 -252 l0 -244 -77 20 c-43 10 -94 23 -113 28 -43 11 -216
52 -325 76 -110 24 -130 36 -156 92 -17 37 -22 67 -23 142 0 52 2 107 7 123
l7 27 199 0 c172 0 200 -2 205 -16z m1056 -324 c0 -187 -4 -340 -9 -340 -10 0
-100 18 -156 32 -22 5 -58 13 -80 18 -40 9 -89 21 -167 41 -24 6 -61 13 -83
16 -22 3 -44 9 -49 14 -6 5 -21 9 -34 9 -14 0 -41 4 -61 10 -20 5 -48 12 -63
15 l-28 5 0 260 0 260 365 0 365 0 0 -340z m778 138 l2 -197 -47 -26 c-27 -14
-75 -41 -108 -60 -33 -19 -76 -42 -95 -52 -19 -9 -37 -19 -40 -22 -4 -5 -27
-18 -115 -65 -11 -6 -22 -14 -25 -17 -3 -3 -26 -15 -51 -27 -37 -18 -63 -22
-147 -22 -75 0 -102 3 -103 13 0 6 0 158 0 337 1 179 1 328 1 333 0 4 163 6
363 5 l362 -3 3 -197z m706 192 c-6 -6 -44 -28 -85 -49 -91 -47 -242 -127
-289 -154 -19 -11 -57 -32 -85 -47 -27 -15 -81 -45 -120 -67 l-70 -41 -2 42
c-2 22 -4 105 -5 184 l-3 142 335 0 c228 0 331 -3 324 -10z m-4545 -15 c82
-19 137 -34 177 -46 17 -5 44 -9 62 -9 17 0 34 -4 37 -10 3 -5 21 -10 40 -10
19 0 36 -4 39 -9 6 -8 24 -12 129 -27 23 -3 46 -10 51 -15 6 -5 20 -9 33 -9
23 0 103 -17 138 -30 19 -6 19 -17 20 -253 l0 -247 -405 2 -405 3 -3 338 c-2
257 1 337 10 337 6 0 41 -7 77 -15z m4614 -327 c-2 -178 -3 -326 -3 -330 0
-12 -720 -10 -721 2 0 6 0 65 -1 133 l-1 122 94 51 c52 27 112 60 134 73 22
13 58 33 80 44 22 12 42 24 45 27 3 3 23 14 45 26 22 11 58 31 80 44 22 13 65
37 95 53 30 17 71 41 90 54 68 45 65 59 63 -299z m-4751 -35 l-3 -303 -180 0
c-98 0 -179 4 -179 9 0 4 8 19 18 32 23 30 99 155 166 274 7 11 27 47 46 80
60 103 68 119 97 172 15 29 30 50 33 45 3 -4 4 -143 2 -309z m1023 157 c52
-15 107 -29 205 -51 52 -12 96 -23 98 -24 2 -2 -2 -12 -9 -23 -10 -17 -10 -23
1 -36 15 -19 45 -13 76 15 26 24 47 23 159 -5 l90 -23 0 -154 0 -154 -362 -3
-363 -2 0 241 0 241 38 -6 c20 -4 51 -11 67 -16z m710 -91 c9 -26 5 -30 -23
-22 -16 4 -22 13 -22 35 0 25 2 27 19 18 11 -5 23 -19 26 -31z m-355 -4 c0 -8
-6 -15 -14 -15 -8 0 -16 7 -20 15 -4 10 1 15 14 15 11 0 20 -7 20 -15z m438
-91 c127 -30 163 -39 218 -53 23 -6 53 -11 67 -11 14 0 29 -4 32 -10 3 -5 17
-10 30 -10 25 0 78 -11 225 -47 37 -9 36 -7 31 -131 -1 -10 -77 -12 -363 -10
l-363 3 -3 148 c-2 98 1 147 8 147 6 0 59 -12 118 -26z m2160 -156 l-3 -113
-210 -3 c-145 -2 -206 1 -199 8 6 6 44 28 85 49 80 41 172 91 259 140 30 17
59 31 63 31 4 0 6 -51 5 -112z m-1366 -23 c146 -34 174 -41 224 -54 23 -6 52
-11 65 -12 13 0 42 -6 64 -14 35 -11 8 -13 -227 -14 l-268 -1 0 66 c0 53 3 65
14 61 8 -3 66 -18 128 -32z m-3146 -135 c96 0 98 -3 56 -67 -15 -23 -42 -67
-60 -97 -33 -55 -52 -70 -52 -41 0 8 -4 23 -9 33 -5 9 -21 48 -36 86 -27 71
-27 103 1 92 9 -3 54 -6 100 -6z m-1021 -295 l0 -290 -317 -1 -318 -2 0 294 0
294 318 -2 317 -3 0 -290z m783 20 c1 -148 0 -280 -3 -292 l-5 -22 -357 2
-357 2 -1 288 c0 159 2 291 4 293 3 2 165 3 360 2 l356 -3 3 -270z m81 228 c8
-27 18 -55 22 -63 17 -37 29 -69 45 -119 16 -49 16 -57 3 -80 -9 -14 -32 -57
-53 -96 -21 -38 -42 -74 -47 -79 -5 -6 -9 93 -9 237 0 194 3 247 13 247 7 0
19 -21 26 -47z m691 -248 l0 -295 -212 0 c-117 0 -218 4 -224 8 -6 4 -21 34
-33 67 -12 33 -25 69 -30 80 -30 68 -51 131 -51 149 0 12 18 50 40 84 22 33
40 63 40 66 0 3 14 25 30 49 17 25 30 49 30 54 0 29 28 33 217 33 l193 0 0
-295z m864 0 l0 -290 -407 -1 -407 -1 0 294 0 293 407 -2 407 -3 0 -290z m779
0 l0 -290 -359 0 -359 0 -3 292 -2 291 361 -1 362 -2 0 -290z m779 25 l1 -265
-53 -27 -54 -28 -313 0 -313 0 0 288 c0 159 3 292 7 295 4 4 168 6 365 5 l359
-3 1 -265z m778 217 l0 -53 -87 -45 c-139 -72 -218 -114 -223 -119 -3 -3 -23
-15 -45 -27 -38 -20 -64 -34 -152 -84 -21 -12 -42 -25 -48 -29 -5 -4 -32 -20
-60 -35 -27 -15 -65 -36 -82 -47 l-33 -20 0 256 0 256 365 0 365 0 0 -53z
m778 -14 c2 -35 0 -63 -3 -63 -4 0 -57 12 -118 26 -184 42 -269 61 -334 74
-35 7 -60 17 -57 21 3 5 119 8 257 7 l252 -3 3 -62z m775 -82 c-1 -79 -6 -148
-10 -152 -5 -5 -26 -2 -48 6 -22 8 -50 14 -62 15 -12 0 -32 4 -45 9 -23 9
-134 36 -213 52 -22 4 -60 13 -85 19 -51 12 -106 23 -200 42 l-65 13 -3 59
c-2 32 -1 65 2 73 5 11 68 13 368 11 l362 -3 -1 -144z m-1449 126 c17 -12 16
-14 -9 -31 -31 -20 -55 -15 -55 12 0 34 31 43 64 19z m234 -53 c107 -28 230
-58 336 -79 118 -25 106 2 106 -229 l0 -203 -365 0 -364 1 -3 220 c-2 122 -1
227 1 234 6 21 124 82 159 82 17 0 76 -12 130 -26z m-338 -294 l0 -220 -365 0
c-465 0 -456 -10 -145 153 107 56 184 97 235 127 22 13 65 37 95 53 30 17 57
34 58 39 2 4 8 8 13 8 5 0 30 13 57 30 26 16 48 30 50 30 1 0 2 -99 2 -220z
m1015 134 c83 -20 166 -40 185 -44 19 -5 54 -13 76 -19 23 -6 53 -11 67 -11
14 0 28 -4 31 -9 3 -4 25 -11 48 -15 102 -15 118 -19 123 -26 3 -5 6 -57 8
-117 l2 -108 -362 -3 c-239 -1 -363 1 -363 8 0 5 0 89 0 185 0 96 0 180 0 185
0 16 26 12 185 -26z m-4755 -219 c12 -33 26 -68 31 -77 5 -10 9 -27 9 -38 0
-19 -6 -20 -115 -20 -63 0 -115 4 -115 9 0 8 61 113 128 221 l15 24 13 -29 c7
-17 22 -57 34 -90z m-1012 -467 c0 -161 -4 -295 -8 -298 -4 -3 -148 -3 -319 0
l-312 5 1 288 c0 158 0 289 0 292 0 3 144 5 319 5 l320 0 -1 -292z m732 279
c0 -7 -16 -37 -36 -67 -35 -54 -169 -273 -206 -337 -33 -60 -55 -98 -78 -135
l-22 -38 -154 -1 c-85 -1 -159 -2 -166 -3 -9 -1 -12 70 -13 297 l0 297 338 0
c266 0 337 -3 337 -13z m357 -17 c3 -17 10 -33 14 -36 5 -3 9 -16 9 -29 0 -13
5 -27 10 -30 6 -3 10 -13 10 -21 0 -8 9 -34 20 -56 11 -23 20 -50 20 -59 0
-10 5 -21 10 -24 6 -3 10 -13 10 -21 0 -8 8 -33 19 -57 38 -87 91 -217 91
-224 0 -2 -108 -3 -240 -3 l-240 0 0 295 0 295 130 0 131 0 6 -30z m463 -199
c0 -143 -4 -232 -10 -236 -12 -8 -13 -65 -1 -65 13 0 22 -30 16 -51 -6 -17
-17 -19 -99 -19 -92 0 -116 8 -116 37 0 8 -9 33 -20 55 -11 23 -20 50 -20 59
0 10 -4 21 -10 24 -5 3 -10 15 -10 26 0 10 -4 27 -9 37 -5 9 -14 31 -21 47 -7
17 -16 38 -21 47 -5 10 -9 22 -9 28 0 6 -8 29 -19 53 -32 72 -71 172 -71 180
0 4 95 7 210 7 l210 0 0 -229z m865 -69 l0 -297 -25 0 c-24 0 -25 2 -25 75 0
61 -5 85 -27 131 -33 65 -70 104 -93 95 -14 -5 -12 -12 13 -43 33 -42 52 -114
52 -198 0 -50 -2 -55 -25 -61 -14 -3 -40 -3 -58 0 -17 4 -44 6 -58 6 -21 0
-28 7 -39 40 -18 54 -3 90 39 90 31 0 57 22 46 40 -11 18 -51 11 -75 -15 -29
-31 -38 -31 -42 -2 -2 17 -11 23 -37 25 -40 4 -65 -13 -35 -25 30 -11 43 -35
43 -78 0 -62 -12 -71 -106 -77 -45 -3 -88 -1 -95 3 -32 20 -2 194 44 252 25
32 27 38 13 43 -26 10 -92 -61 -111 -119 -11 -32 -15 -70 -12 -113 3 -47 0
-65 -10 -69 -7 -3 -54 -5 -102 -5 -88 0 -122 12 -79 28 19 7 20 10 6 15 -26
10 -24 103 2 117 11 5 27 7 35 4 20 -8 21 -63 1 -90 -18 -24 -19 -34 -1 -34
24 0 67 43 69 69 1 14 10 27 26 32 54 21 -14 45 -136 49 -10 0 -13 48 -13 205
l0 205 408 0 407 0 0 -298z m780 131 l0 -168 -70 -38 c-103 -57 -164 -91 -215
-118 -25 -13 -47 -26 -50 -29 -3 -3 -18 -12 -35 -20 -16 -8 -41 -22 -55 -31
-19 -12 -58 -18 -156 -21 -73 -3 -136 -3 -140 1 -5 3 -8 138 -6 299 l3 292
362 0 363 0 -1 -167z m580 158 c-3 -5 -47 -31 -98 -57 -50 -26 -108 -56 -127
-67 -19 -11 -60 -33 -90 -50 -30 -17 -67 -38 -82 -49 -14 -10 -29 -18 -32 -18
-4 0 -24 -11 -46 -25 -22 -14 -44 -25 -50 -25 -11 0 -15 282 -3 293 10 11 535
8 528 -2z m197 -238 c-1 -137 -3 -270 -5 -296 l-2 -48 -360 0 -360 0 -3 109
c-3 123 -6 118 88 169 30 17 76 42 103 57 26 14 68 38 95 52 26 15 72 40 102
57 30 17 57 33 60 36 3 3 19 13 35 21 17 8 48 26 70 40 22 13 49 30 60 36 11
7 43 12 70 13 l50 1 -3 -247z m778 -50 l0 -298 -365 0 -365 0 0 298 0 297 365
0 365 0 0 -297z m775 -1 l0 -293 -360 0 -360 0 -3 296 -2 295 362 -2 363 -3 0
-293z m778 1 c1 -188 -2 -294 -8 -295 -5 -2 -169 -1 -363 2 l-353 5 1 288 c0
158 0 289 0 292 0 3 162 4 361 3 l361 -3 1 -292z m-5527 -18 l-1 -275 -168 0
-169 0 23 38 c13 20 26 39 29 42 5 4 71 115 185 310 18 30 45 79 60 108 16 28
32 52 36 52 4 0 6 -124 5 -275z m2424 -181 c0 -52 -3 -94 -7 -94 -68 -3 -355
-1 -359 2 -2 3 22 18 54 35 62 33 179 95 227 122 17 9 32 19 35 22 8 9 34 17
43 12 4 -2 7 -47 7 -99z m-1110 -90 c0 -8 -4 -12 -10 -9 -5 3 -10 10 -10 16 0
5 5 9 10 9 6 0 10 -7 10 -16z m-576 -53 c3 -5 -1 -14 -9 -21 -25 -21 -18 -59
14 -78 l29 -16 4 -176 c2 -96 2 -179 0 -184 -3 -5 -11 11 -19 35 -14 45 -28
80 -44 111 -5 10 -9 27 -9 37 0 11 -4 23 -10 26 -5 3 -10 13 -10 21 0 8 -9 34
-20 56 -11 23 -20 49 -20 58 0 9 -4 20 -9 26 -4 5 -13 23 -19 39 -5 17 -13 38
-17 47 -6 15 2 17 57 21 34 2 66 4 70 5 4 1 9 -2 12 -7z m906 -67 l0 -63 -67
-32 c-38 -18 -70 -35 -73 -38 -3 -3 -25 -16 -50 -29 -72 -37 -125 -67 -130
-72 -3 -3 -24 -15 -47 -27 -24 -13 -62 -33 -85 -45 -24 -13 -45 -25 -48 -28
-3 -3 -23 -14 -45 -26 -44 -23 -83 -45 -163 -92 -28 -18 -66 -38 -82 -47 l-30
-16 0 236 0 235 31 0 c43 0 92 49 83 85 -6 25 -5 25 52 24 59 0 59 0 97 -50
36 -48 67 -64 67 -34 0 7 -6 18 -14 22 -12 7 -36 45 -36 56 0 3 92 5 205 5
113 1 205 -3 205 -7 0 -5 -11 -25 -25 -45 -35 -51 -7 -47 41 7 36 40 74 58
102 49 8 -3 12 -26 12 -68z m-2422 -226 l-3 -293 -317 -3 -317 -2 -3 291 c-2
160 -1 293 1 295 2 2 148 4 323 4 l318 0 -2 -292z m352 280 c0 -7 -9 -24 -20
-38 -11 -14 -20 -29 -20 -33 0 -5 -8 -21 -19 -35 -10 -15 -28 -44 -40 -64 -32
-58 -56 -99 -84 -148 -15 -25 -43 -75 -63 -112 -20 -37 -40 -65 -45 -62 -5 3
-9 117 -9 255 l0 249 150 0 c113 0 150 -3 150 -12z m423 -272 c0 -157 -4 -290
-8 -295 -9 -15 -695 -15 -695 0 0 5 20 41 44 78 53 80 92 146 158 262 7 13 15
26 18 29 6 6 27 42 55 95 12 22 31 57 44 78 l23 37 181 0 182 0 -2 -284z m555
267 c5 -10 22 -54 37 -98 15 -44 31 -84 36 -90 5 -5 9 -17 9 -27 0 -10 4 -26
9 -36 5 -9 14 -30 21 -47 7 -16 16 -38 21 -47 5 -10 9 -22 9 -28 0 -6 9 -29
19 -53 26 -58 51 -125 51 -137 0 -6 -132 -10 -360 -10 l-360 0 0 295 0 295
250 0 c227 0 250 -2 258 -17z m1301 13 c-25 -23 -145 -86 -155 -82 -14 5 -20
67 -7 79 3 4 42 7 86 7 44 0 78 -2 76 -4z m564 -281 c-1 -157 -4 -289 -8 -295
-4 -6 -132 -10 -361 -10 l-354 0 0 225 0 225 43 20 c23 11 49 25 57 30 8 5 47
28 85 49 l70 40 235 0 235 1 -2 -285z m777 -10 l0 -295 -362 2 -363 3 -3 280
c-1 154 0 285 3 292 3 10 84 13 365 13 l360 0 0 -295z m780 0 l0 -295 -365 0
-365 0 0 295 0 295 365 0 365 0 0 -295z m775 0 l0 -290 -360 0 -360 0 -3 280
c-1 154 0 285 3 292 3 11 79 13 362 11 l358 -3 0 -290z m775 288 c1 -14 1
-558 0 -571 0 -10 -75 -12 -357 -10 l-358 3 -5 288 c-3 159 -3 291 -1 293 8 7
721 4 721 -3z m-4742 -44 c-1 -13 -7 -23 -13 -22 -13 3 -18 30 -11 50 10 24
29 1 24 -28z m110 17 c17 -16 5 -46 -19 -47 -10 -1 -24 -2 -31 -3 -13 -1 -30
52 -21 66 7 12 54 1 71 -16z m748 -353 l-1 -198 -365 -3 c-311 -2 -362 0 -350
12 15 13 70 45 205 116 156 83 242 129 325 177 148 85 176 100 181 97 4 -2 6
-93 5 -201z"/>
<g>
<path d="M6777 4093 c-17 -4 -16 -8 8 -33 25 -26 27 -34 23 -81 -6 -56 -22
-74 -68 -74 -37 0 -35 -39 2 -43 22 -3 32 4 55 40 27 42 28 42 31 17 4 -37 38
-66 60 -53 21 14 28 44 10 44 -8 0 -19 20 -26 46 -16 60 2 94 49 94 26 0 30 3
27 22 -4 32 -31 33 -59 4 -27 -29 -49 -34 -49 -11 0 12 -31 38 -42 34 -2 -1
-11 -3 -21 -6z"/>
</g>
</g>
<g>
<path d="M3770 6175 c-11 -13 -9 -20 12 -43 14 -15 40 -48 58 -75 29 -41 33
-54 31 -99 -1 -29 -6 -57 -12 -64 -14 -17 0 -24 47 -24 42 0 64 13 44 25 -5 3
-10 32 -10 64 0 59 20 98 88 173 33 36 24 60 -20 56 -29 -3 -34 -7 -38 -38 -6
-41 -40 -101 -55 -97 -15 5 -55 80 -53 97 2 8 -1 21 -5 28 -11 17 -72 15 -87
-3z"/>
</g>
<g>
<path d="M10415 1169 c-4 -6 2 -13 13 -16 21 -5 102 -105 102 -124 0 -18 -73
-101 -98 -110 -35 -14 -25 -43 17 -47 36 -4 51 9 51 43 0 11 11 34 25 50 l24
30 25 -30 c14 -16 25 -42 26 -56 0 -29 16 -39 61 -39 43 0 48 25 12 60 -16 16
-42 47 -58 69 -26 39 -27 42 -11 66 9 14 35 42 56 63 22 20 40 41 40 45 0 5
-19 7 -42 5 -35 -2 -43 -7 -44 -24 -1 -26 -34 -76 -47 -71 -6 2 -15 12 -21 23
-6 10 -15 22 -20 26 -6 4 -5 12 2 21 7 7 9 17 5 20 -11 11 -111 8 -118 -4z"/>
</g>
<g>
<path d="M5115 1101 c-28 -12 -68 -58 -57 -65 6 -3 26 1 46 9 68 28 96 -15 60
-90 -8 -18 -38 -55 -65 -82 -27 -26 -49 -54 -49 -60 0 -17 33 -23 109 -20 48
2 67 7 77 22 28 38 19 48 -40 41 -32 -4 -57 -3 -60 2 -3 6 10 24 29 41 43 38
75 93 75 130 0 50 -74 93 -125 72z"/>
</g>
<g>
<path d="M3567 1066 c-38 -38 -50 -86 -40 -169 5 -40 14 -58 44 -88 l37 -37
35 15 c49 23 77 79 77 155 0 64 -9 88 -48 131 -34 36 -64 34 -105 -7z m72 -10
c6 -8 16 -38 22 -67 14 -67 -6 -162 -35 -167 -32 -6 -45 28 -46 114 0 108 25
161 59 120z"/>
</g>
<g>
<path d="M4368 1087 c-30 -12 -38 -37 -13 -37 12 0 15 -19 15 -114 0 -67 -4
-117 -10 -121 -19 -11 1 -25 35 -25 37 0 54 15 36 33 -7 7 -11 60 -11 144 0
143 1 141 -52 120z"/>
</g>
<g>
<path d="M5976 1074 c-26 -27 -33 -44 -18 -44 4 0 13 5 19 11 6 6 23 9 39 7
26 -3 29 -7 29 -38 0 -28 -5 -37 -28 -48 -29 -14 -28 -32 2 -32 25 0 51 -32
51 -62 0 -31 -43 -59 -62 -40 -7 7 -22 12 -35 12 -33 0 -31 -42 2 -60 25 -14
29 -13 95 20 22 10 48 61 49 94 1 18 -8 39 -21 53 -19 20 -20 27 -10 43 7 11
12 33 12 48 0 62 -76 84 -124 36z"/>
</g>
<g>
<path d="M6774 1029 c-27 -40 -53 -80 -59 -90 -5 -11 -13 -19 -17 -19 -5 0 -8
-11 -8 -25 0 -20 6 -25 35 -31 19 -3 46 -3 59 0 23 6 25 3 28 -31 2 -30 7 -38
23 -38 15 0 21 8 23 30 2 17 13 38 25 48 l22 18 -22 16 c-21 14 -23 24 -23
104 0 80 -2 89 -19 89 -11 0 -36 -26 -67 -71z m36 -64 l0 -55 -35 0 c-24 0
-35 5 -35 15 0 8 4 15 8 15 5 0 18 18 31 40 12 22 24 40 27 40 2 0 4 -25 4
-55z"/>
</g>
<g>
<path d="M7630 1085 c-7 -9 -23 -36 -36 -61 -21 -41 -21 -46 -6 -50 73 -24
102 -49 102 -90 0 -42 -22 -55 -78 -47 -38 5 -42 3 -42 -15 0 -12 9 -27 21
-35 26 -19 77 -5 119 33 26 23 31 35 32 74 1 51 -22 85 -71 109 -39 19 -38 37
1 37 42 0 74 21 65 44 -9 22 -89 22 -107 1z"/>
</g>
<g>
<path d="M8460 1092 c0 -4 -12 -13 -27 -20 -16 -6 -41 -31 -58 -55 -26 -36
-30 -51 -30 -105 0 -61 2 -65 38 -98 32 -30 43 -34 70 -29 18 4 44 20 60 38
57 66 23 162 -58 159 -22 -1 -35 3 -35 11 0 21 64 77 88 77 13 0 22 6 22 15 0
10 -11 15 -35 15 -19 0 -35 -3 -35 -8z m15 -172 c18 -35 19 -59 1 -82 -32 -42
-75 -9 -76 58 0 47 5 54 36 54 16 0 29 -10 39 -30z"/>
</g>
<g>
<path d="M9074 1065 c-32 -43 -27 -53 17 -31 18 9 47 16 66 16 30 0 33 -3 33
-30 0 -16 -4 -30 -10 -30 -5 0 -10 -11 -10 -24 0 -14 -4 -28 -10 -31 -5 -3
-10 -17 -10 -30 0 -13 -4 -27 -10 -30 -5 -3 -10 -17 -10 -30 0 -13 -5 -27 -10
-30 -15 -9 -2 -25 21 -25 12 0 19 7 19 19 0 11 5 23 10 26 6 3 10 17 10 30 0
13 5 27 10 30 6 3 10 17 10 30 0 13 5 27 10 30 6 3 10 16 10 29 0 12 5 27 11
33 6 6 9 26 7 44 l-3 34 -67 3 c-66 3 -67 3 -94 -33z"/>
</g>
<g>
<path d="M9858 1079 c-35 -26 -39 -86 -8 -109 11 -8 20 -19 20 -25 0 -6 -9
-16 -20 -23 -15 -9 -20 -23 -20 -56 0 -37 5 -48 27 -66 22 -17 36 -21 68 -15
76 12 99 77 49 142 l-26 34 26 26 c33 33 33 53 -2 86 -34 33 -76 35 -114 6z
m80 -21 c28 -28 2 -88 -33 -74 -19 7 -34 44 -27 68 5 21 42 24 60 6z m-11
-160 c22 -21 32 -71 15 -81 -17 -11 -60 6 -66 25 -7 28 4 78 17 78 6 0 21 -10
34 -22z"/>
</g>
<g>
<path d="M2890 1040 l-25 -20 23 -6 c21 -6 22 -11 22 -108 0 -55 -4 -108 -10
-116 -13 -20 7 -40 40 -40 30 0 43 19 29 41 -5 8 -9 71 -9 142 0 125 0 127
-22 127 -13 0 -34 -9 -48 -20z"/>
</g>
<g>
<path d="M2720 911 c0 -32 14 -41 61 -41 37 0 51 4 58 19 6 10 7 21 4 25 -10
10 -123 7 -123 -3z"/>
</g>
</g>
</svg>
