<?xml version="1.0" standalone="no"?>
<!DOCTYPE svg PUBLIC "-//W3C//DTD SVG 20010904//EN"
 "http://www.w3.org/TR/2001/REC-SVG-20010904/DTD/svg10.dtd">
<svg version="1.0" xmlns="http://www.w3.org/2000/svg"
 width="799.464175pt" height="602.572312pt" viewBox="0 0 799.464175 602.572312"
 preserveAspectRatio="xMidYMid meet">
<metadata>
Created by potrace 1.16, written by Peter Selinger 2001-2019
</metadata>
<g transform="translate(-61.535825,664.000000) scale(0.100000,-0.100000)"
fill="#000000" stroke="none">
<g>
<path d="M4393 6624 c-3 -9 -2 -19 3 -23 14 -10 51 -65 69 -102 9 -19 24 -50
35 -69 36 -66 20 -110 -45 -126 -16 -4 -38 -15 -48 -26 -23 -24 -8 -30 59 -26
45 3 48 5 57 38 5 19 19 46 32 60 13 14 27 37 30 53 4 15 11 30 16 33 5 3 9
13 9 22 0 10 13 42 30 72 43 79 43 79 36 96 -4 11 -17 14 -48 12 l-41 -3 -1
-62 c-1 -76 -16 -97 -46 -63 -27 31 -34 63 -20 89 17 33 4 41 -61 41 -45 0
-61 -4 -66 -16z"/>
</g>
<g>
<path d="M4026 5688 c-4 -469 -8 -1171 -11 -1560 -2 -390 -7 -712 -10 -718 -4
-6 -201 -10 -561 -10 l-554 0 0 28 c0 15 13 52 30 82 36 66 34 62 55 131 9 31
23 65 30 75 8 11 15 29 15 41 0 12 5 25 10 28 6 3 10 16 10 28 0 12 9 37 20
55 11 18 20 41 20 52 0 10 5 22 10 25 6 3 10 16 10 28 0 12 9 37 20 55 11 18
20 41 20 52 0 10 5 22 10 25 6 3 10 16 10 28 0 12 9 37 20 55 11 18 20 41 20
52 0 10 5 22 10 25 6 3 10 16 10 28 0 12 9 37 20 55 11 18 20 41 20 52 0 10 5
22 10 25 6 3 10 16 10 28 0 12 9 37 20 55 11 18 20 41 20 52 0 10 5 22 10 25
6 3 10 18 10 33 0 15 9 38 20 52 11 14 20 35 20 47 0 12 5 25 10 28 6 3 10 17
10 30 0 21 20 76 51 137 5 10 9 26 9 37 0 17 12 46 51 123 5 10 9 27 9 38 0
10 9 35 20 55 11 20 20 44 20 55 0 10 5 22 10 25 6 3 10 16 10 29 0 12 4 26 9
31 9 11 45 104 65 170 7 22 19 54 26 70 7 17 12 34 11 39 -1 4 5 19 14 32 8
13 15 30 15 37 0 18 29 116 41 139 5 10 9 28 9 41 0 32 24 77 55 107 19 18 25
34 25 65 0 22 -5 46 -12 53 -16 16 -110 16 -126 0 -18 -18 -14 -83 8 -122 11
-21 15 -38 10 -41 -6 -4 -10 -15 -10 -27 0 -26 -27 -111 -51 -163 -11 -22 -19
-50 -19 -62 0 -12 -4 -25 -10 -28 -5 -3 -10 -18 -10 -33 0 -15 -9 -42 -20 -60
-11 -18 -20 -43 -20 -57 0 -13 -4 -26 -9 -29 -5 -3 -12 -21 -15 -40 -4 -19
-13 -39 -21 -46 -8 -7 -15 -25 -15 -41 0 -15 -4 -31 -10 -34 -5 -3 -10 -18
-10 -33 0 -15 -9 -40 -20 -57 -11 -16 -20 -40 -20 -52 0 -12 -4 -25 -10 -28
-5 -3 -10 -16 -10 -28 0 -12 -9 -37 -20 -55 -11 -18 -20 -41 -20 -52 0 -10 -4
-22 -10 -25 -5 -3 -10 -16 -10 -28 0 -12 -9 -37 -20 -55 -11 -18 -20 -41 -20
-52 0 -10 -4 -22 -10 -25 -5 -3 -10 -21 -10 -39 0 -20 -8 -40 -20 -51 -11 -10
-20 -31 -20 -46 0 -15 -4 -31 -10 -34 -5 -3 -10 -16 -10 -28 0 -19 -9 -41 -52
-129 -4 -10 -8 -25 -8 -33 0 -8 -9 -37 -21 -63 -32 -72 -37 -84 -50 -127 -6
-22 -15 -44 -19 -50 -4 -5 -17 -39 -30 -75 -12 -36 -30 -84 -41 -107 -10 -24
-19 -49 -19 -56 0 -7 -4 -17 -9 -23 -5 -5 -14 -27 -21 -49 -7 -22 -16 -42 -19
-45 -4 -3 -20 -45 -38 -95 -17 -49 -41 -115 -53 -145 -12 -30 -25 -67 -27 -83
-3 -15 -9 -30 -14 -33 -5 -3 -9 -15 -9 -28 0 -12 -5 -27 -12 -34 -9 -9 -269
-12 -1108 -12 -603 0 -1100 -3 -1103 -7 -4 -3 0 -15 10 -25 16 -17 59 -18
1072 -18 581 0 1062 0 1069 0 18 0 15 -46 -8 -90 -11 -22 -20 -46 -20 -53 0
-8 -6 -20 -14 -26 -8 -6 -16 -22 -19 -34 -10 -40 -33 -97 -45 -109 -7 -7 -12
-18 -12 -25 0 -6 -13 -40 -29 -75 -16 -35 -35 -78 -42 -95 -8 -18 -17 -33 -21
-33 -5 0 -8 -9 -8 -20 0 -11 -4 -20 -10 -20 -5 0 -10 -9 -10 -21 0 -12 -13
-41 -30 -66 -16 -24 -30 -48 -30 -52 0 -13 -30 -70 -41 -76 -5 -4 -18 -25 -29
-49 -10 -23 -26 -49 -35 -56 -8 -7 -15 -17 -15 -22 0 -29 -165 -242 -279 -361
-65 -68 -182 -167 -196 -167 -2 0 -23 -18 -45 -40 -22 -22 -47 -40 -55 -40 -8
0 -15 -4 -15 -8 0 -5 -12 -15 -27 -23 -16 -8 -39 -24 -53 -37 -14 -13 -44 -32
-67 -43 -23 -10 -45 -23 -48 -29 -3 -6 -26 -19 -50 -30 -24 -11 -46 -24 -50
-29 -3 -6 -18 -16 -33 -24 -15 -8 -55 -30 -90 -50 -50 -29 -68 -35 -82 -27
-59 31 -120 -8 -120 -76 0 -52 14 -64 75 -64 55 0 75 12 75 46 0 29 11 38 126
101 98 54 134 76 264 164 199 133 259 180 403 319 60 58 134 138 164 178 30
39 59 72 64 72 5 0 9 5 9 11 0 9 55 97 69 109 10 9 42 64 48 82 3 10 9 18 14
18 5 0 9 7 9 14 0 8 14 35 30 59 17 25 30 50 30 57 0 7 14 32 30 57 17 24 30
48 30 53 0 4 13 35 29 67 27 54 42 88 120 256 17 37 31 72 31 76 0 8 23 60 41
93 5 10 9 24 9 32 0 22 42 94 58 101 8 3 265 5 570 5 436 0 558 -2 567 -12 8
-10 10 -163 4 -573 -4 -308 -8 -912 -9 -1343 -2 -828 -1 -834 41 -796 18 16
19 52 20 823 1 443 5 1053 8 1354 l6 548 697 -1 c431 0 706 -4 722 -10 15 -5
26 -17 26 -28 0 -10 11 -42 25 -70 14 -29 25 -56 25 -61 0 -12 59 -123 119
-225 59 -101 237 -286 275 -286 8 0 16 -5 18 -11 2 -7 42 -11 108 -11 104 -1
106 0 165 36 89 55 129 85 138 104 4 10 21 26 38 37 16 11 29 25 29 31 0 5 14
23 30 39 17 16 30 34 30 40 0 6 13 26 30 45 16 19 29 39 30 44 0 4 14 28 30
53 17 24 30 48 30 53 0 5 14 32 30 60 17 28 30 54 30 57 0 11 41 93 49 98 5 2
352 5 772 5 816 2 784 4 738 -46 -15 -16 -16 -23 -7 -32 14 -14 50 -16 64 -4
11 10 54 22 179 53 98 24 115 32 115 59 0 13 -14 20 -52 29 -112 25 -139 31
-181 39 -23 4 -57 17 -75 27 -30 18 -33 18 -49 2 -16 -16 -15 -18 11 -46 15
-16 23 -30 17 -32 -6 -2 -345 -2 -753 1 l-743 5 2 29 c1 16 9 36 18 46 8 9 15
26 15 38 0 11 4 23 9 27 5 3 12 18 16 34 3 16 13 35 21 42 8 6 14 19 14 29 0
10 7 31 15 46 8 16 15 36 15 45 0 8 7 24 15 35 8 10 15 27 15 37 0 9 4 25 10
35 11 19 19 42 95 272 30 91 55 172 55 180 0 8 8 29 19 46 10 16 21 46 24 65
19 119 48 185 93 209 25 14 29 23 32 63 3 43 1 48 -30 67 -36 22 -71 20 -100
-7 -20 -18 -26 -111 -8 -129 6 -6 3 -28 -11 -64 -12 -30 -24 -67 -26 -83 -3
-15 -9 -30 -14 -33 -5 -3 -9 -21 -9 -39 0 -19 -9 -50 -20 -70 -11 -20 -20 -44
-20 -55 0 -10 -4 -22 -10 -25 -5 -3 -10 -20 -10 -36 0 -16 -9 -47 -20 -69 -11
-22 -20 -48 -20 -59 0 -11 -4 -23 -10 -26 -5 -3 -10 -17 -10 -31 0 -14 -9 -42
-20 -64 -11 -22 -20 -48 -20 -59 0 -11 -4 -23 -10 -26 -5 -3 -10 -16 -10 -29
0 -20 -24 -80 -50 -128 -6 -10 -10 -29 -10 -42 0 -14 -4 -27 -9 -31 -5 -3 -12
-18 -16 -34 -3 -16 -13 -35 -21 -42 -8 -6 -14 -19 -14 -28 0 -9 -12 -44 -26
-78 l-27 -63 -583 0 -583 0 -21 22 c-11 12 -20 30 -20 40 0 10 -4 26 -9 36 -5
9 -17 46 -26 82 -9 36 -23 76 -30 90 -7 14 -16 43 -20 65 -4 22 -10 45 -14 50
-3 6 -13 37 -22 70 -9 33 -27 94 -39 135 -23 81 -31 112 -53 205 -8 33 -19 78
-25 100 -6 22 -18 76 -28 120 -9 44 -23 100 -30 124 -8 25 -14 57 -14 73 0 27
-14 89 -45 203 -19 69 -20 112 -6 164 18 65 8 108 -28 116 -16 3 -45 3 -65 -1
l-36 -6 0 -64 c0 -47 4 -64 13 -64 30 0 54 -44 61 -109 3 -35 10 -69 15 -75 9
-11 23 -84 39 -206 5 -30 13 -64 19 -75 6 -11 14 -46 18 -77 4 -32 11 -58 16
-58 5 0 9 -23 9 -50 0 -28 6 -61 14 -73 8 -12 17 -46 21 -74 4 -29 11 -55 16
-59 5 -3 9 -24 9 -47 0 -23 7 -50 15 -61 8 -10 17 -38 21 -62 3 -25 10 -47 15
-50 5 -3 9 -23 9 -44 0 -21 5 -42 10 -45 6 -3 10 -15 10 -26 0 -11 9 -39 20
-61 11 -23 20 -52 20 -64 0 -12 6 -35 14 -51 31 -61 56 -129 58 -158 l3 -30
-695 -3 -695 -2 0 1567 0 1568 -21 3 -22 3 -6 -853z m2647 -2338 c17 0 4 -42
-36 -116 -66 -120 -114 -198 -152 -248 -19 -26 -35 -49 -35 -52 0 -15 -130
-150 -156 -164 -16 -8 -38 -23 -48 -32 -11 -10 -28 -18 -37 -18 -10 0 -21 -4
-24 -10 -11 -17 -158 -12 -196 7 -38 18 -93 57 -124 88 -30 30 -85 104 -85
115 0 6 -4 10 -10 10 -5 0 -10 4 -10 9 0 6 -13 30 -30 54 -16 25 -30 52 -30
61 0 9 -4 16 -8 16 -9 0 -52 89 -52 107 0 6 -4 13 -8 15 -5 2 -21 27 -35 56
-28 55 -35 98 -17 104 7 2 863 1 1093 -2z"/>
</g>
<g>
<path d="M8073 2903 c-21 -8 -15 -26 22 -62 54 -52 55 -74 6 -117 -22 -20 -41
-45 -41 -55 0 -16 8 -19 45 -19 37 0 45 3 45 18 0 10 -5 23 -10 28 -7 7 -5 16
8 27 18 16 20 16 37 -3 14 -15 16 -23 7 -32 -8 -8 -9 -15 -1 -25 13 -15 115
-18 124 -3 4 6 -16 36 -44 67 -28 31 -51 65 -51 75 0 10 16 32 35 49 27 25 32
35 24 46 -14 16 -51 17 -67 1 -10 -10 -17 -10 -32 0 -19 12 -83 15 -107 5z"/>
</g>
</g>
</svg>
