<?xml version="1.0" standalone="no"?>
<!DOCTYPE svg PUBLIC "-//W3C//DTD SVG 20010904//EN"
 "http://www.w3.org/TR/2001/REC-SVG-20010904/DTD/svg10.dtd">
<svg version="1.0" xmlns="http://www.w3.org/2000/svg"
 width="710.437882pt" height="496.304525pt" viewBox="0 0 710.437882 496.304525"
 preserveAspectRatio="xMidYMid meet">
<metadata>
Created by potrace 1.16, written by Peter Selinger 2001-2019
</metadata>
<g transform="translate(-89.500000,599.759034) scale(0.100000,-0.100000)"
fill="#000000" stroke="none">
<g>
<path d="M3921 5959 c-12 -24 -21 -57 -21 -75 0 -18 -4 -35 -9 -38 -5 -3 -11
-20 -14 -38 -3 -18 -11 -52 -17 -75 -7 -24 -9 -50 -6 -59 5 -14 11 -12 43 12
l36 28 -7 -485 c-4 -266 -9 -878 -12 -1359 -3 -481 -8 -878 -11 -882 -2 -5
-182 -8 -399 -8 l-394 0 1 23 c0 12 22 56 49 97 27 41 57 91 66 110 17 38 26
55 55 107 10 18 19 40 19 48 0 8 5 15 10 15 6 0 10 6 10 13 0 18 24 67 33 67
4 0 7 9 7 20 0 11 4 28 9 38 5 9 13 28 19 42 12 31 51 119 63 142 5 10 9 27 9
38 0 11 5 29 10 40 6 11 15 29 20 40 6 11 10 29 10 40 0 11 5 20 10 20 6 0 10
14 10 30 0 17 5 30 10 30 6 0 10 14 10 30 0 17 4 38 9 48 15 27 42 113 48 150
3 18 9 35 14 38 5 3 9 16 9 29 0 54 33 151 61 180 22 24 29 40 29 71 0 51 -14
64 -65 64 -23 0 -46 -5 -53 -12 -14 -14 -16 -94 -2 -103 19 -12 8 -90 -27
-185 -4 -8 -7 -19 -9 -25 -33 -129 -83 -287 -95 -299 -5 -6 -9 -20 -9 -33 0
-12 -5 -35 -11 -50 -6 -15 -16 -39 -22 -53 -5 -14 -14 -36 -20 -50 -5 -14 -13
-33 -18 -42 -5 -10 -9 -25 -9 -33 0 -8 -4 -23 -9 -33 -13 -25 -52 -114 -61
-137 -17 -45 -74 -160 -82 -163 -4 -2 -8 -14 -8 -26 0 -12 -9 -32 -20 -44 -11
-12 -20 -25 -20 -29 0 -13 -110 -224 -127 -243 -3 -3 -487 -7 -1076 -10 -1064
-5 -1072 -5 -1072 -25 0 -20 7 -20 1030 -22 567 -2 1036 -3 1043 -3 23 0 12
-40 -21 -77 -18 -21 -46 -56 -62 -78 -16 -22 -78 -91 -139 -153 -171 -176
-357 -306 -536 -375 -14 -5 -33 -13 -42 -18 -10 -5 -29 -9 -43 -9 -14 0 -25
-4 -25 -9 0 -16 -90 -38 -195 -48 -33 -3 -63 -9 -66 -15 -3 -5 -47 -12 -98
-15 -86 -6 -93 -5 -116 17 -18 17 -37 23 -70 23 -53 0 -54 0 -62 -47 -8 -48
17 -86 56 -86 29 0 86 24 96 41 4 5 60 9 125 9 68 0 121 4 125 10 3 6 26 10
51 10 24 0 52 4 62 9 9 5 37 15 62 22 25 7 49 16 54 21 6 4 23 8 38 8 15 0 28
5 28 10 0 6 7 10 15 10 14 0 24 4 77 32 110 56 155 82 169 94 8 8 18 14 22 14
21 0 218 164 302 251 96 100 255 297 255 317 0 30 33 32 445 33 330 0 421 -3
430 -13 8 -9 9 -147 4 -498 -13 -914 -12 -1359 1 -1376 11 -13 15 -13 29 0 15
13 17 101 20 908 2 491 6 912 10 936 l6 44 300 -1 300 -1 -3 -47 c-2 -27 -8
-50 -13 -51 -5 -2 -9 -18 -9 -36 0 -18 -9 -51 -20 -74 -11 -22 -20 -52 -20
-66 0 -14 -4 -28 -10 -31 -5 -3 -10 -22 -10 -41 0 -19 -4 -34 -9 -34 -5 0 -11
-19 -14 -43 -3 -23 -12 -62 -21 -87 -8 -25 -20 -63 -26 -86 -8 -33 -16 -43
-45 -54 -32 -13 -35 -17 -35 -55 0 -28 6 -47 18 -58 27 -24 74 -21 100 5 18
20 19 29 11 71 -5 31 -5 56 1 67 6 10 10 34 10 54 0 19 5 38 10 41 6 3 10 17
10 30 0 13 4 27 10 30 6 3 10 17 10 30 0 13 4 27 10 30 6 3 10 22 10 41 0 19
5 34 10 34 6 0 10 16 10 35 0 19 4 44 9 57 20 48 24 63 22 72 -1 4 4 18 12 30
8 11 17 41 20 65 3 24 12 50 20 58 20 20 964 20 984 0 8 -7 17 -31 20 -53 4
-21 12 -45 20 -52 7 -7 13 -20 13 -28 0 -8 11 -37 25 -66 14 -28 25 -56 25
-61 0 -4 13 -27 28 -50 15 -23 34 -55 42 -72 19 -38 166 -185 186 -185 7 0 14
-4 14 -10 0 -6 33 -10 79 -10 62 0 88 5 123 22 57 30 318 294 318 322 0 4 13
26 28 49 15 23 43 71 61 107 56 110 -5 99 579 102 475 3 512 2 512 -14 0 -9
-4 -20 -10 -23 -5 -3 -10 -13 -10 -22 0 -12 9 -14 43 -10 101 11 266 62 274
84 10 26 -13 37 -132 63 -89 19 -121 28 -147 38 -33 14 -42 3 -33 -38 l7 -30
-491 0 -491 0 0 24 c0 14 4 28 10 31 5 3 17 23 26 43 8 20 21 46 27 57 6 11
18 36 27 55 10 19 36 73 59 120 22 47 41 93 41 102 0 9 5 20 10 23 6 3 10 14
10 23 0 9 9 28 20 42 11 14 20 33 20 43 0 9 5 17 10 17 6 0 10 11 10 24 0 14
5 28 10 31 6 3 10 16 10 28 0 12 9 33 20 47 11 14 20 33 20 42 0 9 5 20 10 23
6 3 10 15 10 26 0 10 4 27 8 37 43 87 52 109 52 125 0 9 5 17 10 17 6 0 10 11
10 25 0 14 4 33 9 43 25 46 51 110 51 125 0 9 5 19 10 22 6 3 10 15 10 26 0
10 4 27 9 37 6 9 18 43 27 75 10 33 24 61 33 64 58 21 81 93 41 133 -23 23
-48 25 -86 8 -26 -12 -27 -13 -21 -90 4 -46 2 -80 -3 -83 -6 -3 -10 -14 -10
-24 0 -21 -22 -71 -32 -71 -5 0 -8 -11 -8 -24 0 -14 -4 -28 -10 -31 -5 -3 -10
-19 -10 -36 0 -16 -4 -29 -10 -29 -5 0 -10 -8 -10 -17 0 -15 -26 -79 -51 -125
-5 -10 -9 -29 -9 -42 0 -14 -4 -28 -10 -31 -5 -3 -10 -14 -10 -23 0 -9 -9 -28
-20 -42 -11 -14 -20 -35 -20 -47 0 -12 -4 -25 -10 -28 -5 -3 -10 -15 -10 -25
0 -10 -13 -45 -30 -77 -16 -31 -30 -63 -30 -70 0 -7 -4 -21 -9 -31 -5 -9 -16
-32 -23 -49 -7 -18 -16 -33 -20 -33 -5 0 -8 -9 -8 -20 0 -11 -4 -20 -10 -20
-5 0 -10 -9 -10 -20 0 -11 -4 -28 -9 -38 -5 -9 -15 -30 -22 -47 -7 -16 -21
-42 -31 -57 -10 -14 -18 -33 -18 -41 0 -15 -54 -123 -71 -141 -5 -6 -9 -20 -9
-33 0 -13 -4 -23 -10 -23 -5 0 -10 -8 -10 -18 0 -11 -8 -26 -18 -36 -17 -15
-63 -16 -502 -14 l-483 3 -17 30 c-9 17 -19 41 -22 55 -7 30 -27 88 -39 112
-5 10 -9 29 -9 43 0 14 -4 33 -9 43 -19 36 -51 125 -51 143 0 10 -4 21 -10 24
-5 3 -10 17 -10 30 0 14 -9 40 -20 60 -11 20 -20 42 -20 50 0 15 -4 26 -28 72
-7 13 -12 31 -12 42 0 11 -3 21 -8 23 -4 2 -22 33 -41 70 -32 65 -105 160
-141 185 -19 13 -53 18 -109 15 -27 -2 -46 -15 -100 -69 -37 -38 -75 -85 -84
-105 -10 -20 -22 -40 -27 -43 -12 -7 -40 -65 -40 -82 0 -8 -8 -27 -18 -41 -10
-15 -24 -40 -31 -57 -7 -16 -17 -38 -22 -47 -5 -10 -9 -27 -9 -37 0 -11 -4
-23 -10 -26 -5 -3 -10 -15 -10 -26 0 -10 -4 -19 -10 -19 -5 0 -10 -9 -10 -19
0 -11 -4 -23 -10 -26 -5 -3 -10 -17 -10 -31 0 -13 -4 -24 -10 -24 -5 0 -10
-13 -10 -29 0 -17 -4 -33 -10 -36 -5 -3 -10 -14 -10 -24 0 -9 -9 -36 -20 -59
-11 -22 -20 -53 -20 -67 0 -14 -4 -25 -10 -25 -5 0 -10 -17 -10 -38 0 -73 3
-72 -349 -72 l-313 0 4 1360 c1 748 5 1360 7 1360 3 0 14 -9 26 -20 20 -19 23
-19 35 -5 11 14 12 22 1 48 -7 18 -18 50 -23 72 -6 22 -13 47 -17 55 -4 8 -8
33 -10 55 -2 44 -20 87 -38 92 -7 3 -21 -15 -32 -38z m1312 -2060 c20 -17 37
-35 37 -40 0 -6 14 -30 30 -54 17 -24 30 -53 30 -64 0 -12 5 -21 10 -21 6 0
10 -7 10 -15 0 -8 4 -23 10 -33 26 -48 50 -108 50 -128 0 -13 5 -26 10 -29 6
-3 10 -17 10 -30 0 -13 5 -27 10 -30 6 -3 10 -17 10 -31 0 -13 3 -24 8 -24 9
0 32 -72 32 -100 0 -11 5 -20 10 -20 6 0 10 -13 10 -29 0 -16 3 -31 8 -33 8
-4 52 -129 52 -151 0 -8 7 -20 15 -27 8 -7 15 -23 15 -36 l0 -24 -465 0 -465
0 0 34 c0 18 7 39 15 46 8 7 15 27 15 46 0 18 5 36 10 39 6 3 10 16 10 28 0
12 9 37 20 55 11 18 20 41 20 52 0 10 5 22 10 25 6 3 10 17 10 30 0 13 5 27
10 30 6 3 10 15 10 27 0 11 8 37 19 57 10 20 23 47 28 61 39 98 55 130 65 130
4 0 8 9 8 19 0 11 5 23 10 26 6 3 10 13 10 22 0 8 14 35 30 60 17 24 30 47 30
50 0 3 12 19 26 37 70 83 142 98 207 45z m1360 -969 c17 0 4 -37 -35 -99 -24
-37 -47 -74 -53 -83 -93 -146 -238 -305 -305 -335 -19 -8 -43 -19 -52 -24 -27
-14 -91 -11 -133 7 -39 16 -135 99 -135 118 -1 6 -14 27 -30 46 -17 19 -30 42
-30 52 0 10 -4 18 -10 18 -5 0 -10 9 -10 20 0 11 -4 20 -8 20 -9 0 -52 89 -52
108 0 6 -11 31 -25 56 -22 40 -32 86 -21 97 3 3 458 3 899 -1z"/>
</g>
<g>
<path d="M4345 5776 c-18 -13 -18 -15 9 -46 36 -43 86 -143 86 -172 0 -26 -35
-76 -46 -66 -9 9 -64 -19 -64 -33 0 -6 23 -9 57 -7 l57 3 57 125 c32 69 58
132 58 140 1 8 11 21 23 29 21 13 21 14 3 27 -38 28 -93 7 -79 -29 7 -19 -13
-87 -26 -87 -5 0 -18 16 -31 36 -17 29 -20 40 -11 54 8 13 7 21 -1 29 -15 15
-69 14 -92 -3z"/>
</g>
<g>
<path d="M7540 2540 c-33 -8 -37 -33 -7 -53 13 -8 30 -30 37 -47 12 -30 11
-33 -26 -71 -36 -37 -38 -41 -21 -53 9 -7 28 -11 42 -8 21 4 25 10 25 38 0 39
9 43 34 15 13 -14 14 -21 5 -26 -8 -6 -4 -12 12 -21 32 -17 61 -17 85 0 18 14
17 17 -28 63 -27 27 -48 58 -48 69 0 25 18 44 42 44 21 0 22 4 8 31 -13 23
-55 25 -64 3 -6 -15 -8 -15 -24 -2 -24 21 -43 26 -72 18z"/>
</g>
</g>
</svg>
