<?xml version="1.0" standalone="no"?>
<!DOCTYPE svg PUBLIC "-//W3C//DTD SVG 20010904//EN"
 "http://www.w3.org/TR/2001/REC-SVG-20010904/DTD/svg10.dtd">
<svg version="1.0" xmlns="http://www.w3.org/2000/svg"
 width="872.466694pt" height="542.165831pt" viewBox="0 0 872.466694 542.165831"
 preserveAspectRatio="xMidYMid meet">
<metadata>
Created by potrace 1.16, written by Peter Selinger 2001-2019
</metadata>
<g transform="translate(-19.033306,555.045764) scale(0.100000,-0.100000)"
fill="#000000" stroke="none">
<g>
<path d="M4467 5539 c-20 -12 -15 -42 13 -74 33 -38 100 -174 100 -203 0 -15
-6 -40 -12 -55 -11 -22 -20 -27 -49 -27 -45 0 -79 -31 -59 -55 13 -15 74 -20
104 -9 9 3 16 14 16 24 0 10 3 20 8 22 14 6 102 196 102 221 0 13 6 30 14 36
8 7 26 35 40 62 l26 49 -25 10 c-36 14 -62 13 -72 -2 -4 -7 -8 -38 -9 -69 -2
-66 -8 -79 -37 -79 -16 0 -27 12 -39 39 -21 44 -22 63 -6 79 32 32 -67 59
-115 31z"/>
</g>
<g>
<path d="M4026 4468 c-4 -535 -8 -1324 -9 -1753 -1 -592 -5 -783 -14 -793 -10
-10 -380 -12 -1899 -12 -2007 1 -1926 3 -1908 -43 6 -16 126 -17 1905 -17
1045 1 1904 -2 1909 -5 13 -8 13 -118 1 -130 -6 -6 -11 -337 -12 -795 l-4
-785 38 -3 37 -3 2 861 3 861 798 0 c438 0 802 0 808 -1 5 0 17 -17 25 -38 8
-20 24 -56 35 -79 10 -24 19 -46 19 -50 0 -15 34 -83 42 -83 4 0 8 -11 8 -23
0 -13 9 -32 20 -42 11 -10 20 -22 20 -27 0 -4 19 -39 41 -76 23 -37 48 -78 55
-91 25 -46 182 -199 240 -233 70 -41 164 -60 233 -46 49 10 127 47 177 85 17
13 36 23 42 23 6 0 13 9 17 19 7 22 79 91 95 91 6 0 10 5 10 11 0 5 22 38 50
72 27 34 50 67 50 73 0 6 6 17 14 23 8 7 27 35 41 63 30 57 66 111 78 116 4 2
7 17 7 32 0 16 4 32 10 35 5 3 23 35 40 70 17 35 35 67 41 71 6 3 419 7 917 8
l907 1 0 29 0 28 -890 2 c-856 1 -890 2 -893 19 -2 11 5 38 16 60 11 23 25 53
31 67 6 14 15 32 19 40 27 48 42 84 42 100 0 10 6 31 14 47 45 88 86 197 86
229 0 10 9 34 20 52 11 18 20 46 20 62 0 16 4 31 9 35 5 3 13 20 17 38 6 30
25 80 45 119 5 10 9 27 9 37 0 11 5 23 10 26 6 3 10 25 10 47 0 23 6 49 14 57
12 14 33 82 55 181 5 19 17 60 27 90 15 45 24 56 44 58 42 6 50 20 50 86 0 56
-2 62 -27 74 -69 31 -127 1 -138 -73 -1 -5 3 -18 8 -28 14 -30 10 -120 -7
-152 -9 -16 -16 -42 -16 -57 0 -15 -4 -29 -9 -32 -5 -4 -12 -25 -16 -49 -4
-23 -10 -46 -14 -52 -4 -5 -13 -30 -20 -55 -7 -25 -19 -57 -27 -72 -8 -14 -14
-40 -14 -57 0 -17 -4 -39 -10 -49 -12 -21 -37 -90 -55 -156 -8 -27 -19 -54
-24 -59 -6 -6 -11 -20 -11 -32 0 -11 -9 -37 -20 -58 -11 -20 -20 -48 -20 -61
0 -14 -4 -27 -9 -31 -5 -3 -13 -20 -17 -38 -6 -30 -30 -89 -60 -150 -8 -16
-14 -35 -14 -43 0 -8 -4 -22 -10 -32 -10 -19 -32 -70 -50 -122 -28 -76 32 -70
-696 -70 l-653 0 -20 25 c-11 14 -23 40 -26 58 -4 18 -11 37 -16 43 -5 6 -13
31 -18 55 -5 24 -23 82 -40 129 -17 47 -30 94 -31 106 0 11 -7 29 -15 40 -8
10 -15 36 -15 56 0 21 -6 52 -14 70 -19 44 -47 133 -57 183 -23 110 -33 155
-50 208 -11 31 -19 71 -19 88 0 16 -7 43 -14 58 -8 15 -14 37 -13 48 1 19 -6
48 -34 139 -5 17 -9 42 -9 57 0 14 -5 38 -11 54 -6 15 -15 61 -20 102 -5 41
-13 79 -19 85 -5 5 -10 29 -10 52 0 24 -4 45 -9 48 -9 6 8 69 22 82 12 12 8
89 -5 102 -17 17 -133 16 -147 -2 -7 -8 -11 -37 -9 -67 2 -41 8 -56 23 -64 54
-28 55 -29 66 -115 5 -46 14 -89 19 -95 4 -5 10 -30 13 -55 11 -82 19 -120 28
-126 5 -3 9 -24 9 -47 1 -23 7 -60 15 -82 8 -22 15 -53 15 -70 0 -16 6 -50 14
-75 18 -54 43 -155 58 -230 5 -30 14 -59 19 -64 5 -6 9 -27 9 -48 0 -21 9 -52
20 -70 11 -18 20 -51 20 -73 0 -22 7 -49 15 -59 8 -11 15 -29 15 -40 0 -23 22
-92 33 -102 4 -4 7 -17 7 -28 0 -12 7 -34 15 -50 8 -15 15 -41 15 -57 0 -15 4
-30 9 -33 5 -4 17 -32 27 -64 9 -31 21 -61 26 -67 4 -5 8 -18 8 -30 0 -12 5
-26 11 -32 7 -7 9 -19 6 -27 -6 -14 -87 -16 -785 -16 -612 0 -782 3 -789 13
-6 7 -6 681 -1 1746 5 1159 4 1740 -3 1752 -5 11 -18 19 -28 19 -18 0 -19 -37
-25 -972z m2991 -2622 c6 -5 -70 -161 -108 -221 -10 -16 -28 -47 -39 -67 -11
-21 -34 -57 -50 -80 -17 -24 -48 -68 -69 -98 -67 -96 -208 -220 -250 -220 -12
0 -21 -4 -21 -9 0 -35 -190 -42 -227 -8 -11 9 -29 17 -40 17 -45 0 -252 230
-270 300 -3 14 -15 31 -25 38 -10 7 -18 20 -18 29 0 8 -8 27 -18 41 -34 51
-82 150 -82 170 0 12 -4 24 -10 27 -14 9 -43 73 -37 82 6 9 1255 8 1264 -1z"/>
</g>
<g>
<path d="M3612 5138 c-14 -14 -16 -124 -2 -133 12 -7 13 -97 2 -110 -5 -6 -14
-30 -21 -55 -7 -25 -17 -58 -23 -75 -6 -16 -14 -50 -18 -75 -9 -54 -19 -80
-31 -80 -5 0 -9 -14 -9 -31 0 -30 -19 -100 -45 -169 -24 -64 -28 -75 -30 -94
-1 -11 -7 -22 -13 -24 -7 -2 -12 -18 -12 -35 0 -18 -7 -41 -15 -51 -8 -11 -15
-26 -15 -33 0 -8 -9 -33 -21 -56 -11 -23 -22 -49 -24 -57 -14 -51 -40 -117
-52 -131 -7 -8 -13 -23 -13 -33 0 -15 -56 -143 -81 -186 -5 -8 -12 -22 -15
-30 -8 -24 -68 -145 -74 -150 -11 -10 -30 -50 -30 -63 0 -8 -9 -22 -20 -32
-11 -10 -20 -24 -20 -32 0 -7 -7 -26 -17 -41 -39 -64 -69 -107 -75 -110 -5 -2
-8 -12 -8 -22 0 -10 -4 -21 -9 -24 -5 -4 -35 -45 -67 -93 -32 -48 -76 -110
-99 -138 -22 -27 -52 -66 -67 -85 -86 -114 -429 -430 -466 -430 -5 0 -15 -7
-22 -15 -14 -17 -125 -82 -230 -135 -11 -6 -27 -10 -35 -10 -8 0 -15 -4 -15
-9 0 -5 -8 -11 -17 -14 -10 -3 -45 -17 -78 -31 -33 -14 -71 -26 -85 -26 -15 0
-30 -4 -35 -8 -6 -5 -37 -17 -70 -26 -33 -10 -70 -22 -83 -27 -13 -5 -40 -9
-60 -9 -20 0 -53 -5 -72 -10 -19 -6 -91 -15 -160 -20 l-125 -9 -25 29 c-22 26
-32 30 -75 30 -28 0 -56 -5 -63 -12 -7 -7 -12 -39 -12 -75 l0 -62 35 -7 c46
-8 94 2 120 25 16 15 44 20 150 25 72 4 150 11 175 16 25 6 66 12 93 15 26 2
60 11 77 20 16 8 42 15 57 15 15 1 46 9 68 20 22 11 46 19 53 20 6 0 29 9 49
20 21 11 43 20 50 20 8 0 21 4 31 9 134 67 212 110 244 132 14 11 29 19 33 19
4 0 35 22 70 50 35 28 66 50 70 50 17 0 345 314 345 330 0 3 23 28 50 55 28
27 50 53 50 58 0 5 14 26 31 46 43 51 109 139 109 146 0 3 23 39 50 79 28 40
50 78 50 83 0 6 7 16 15 23 8 6 26 35 40 63 14 29 37 70 50 92 14 22 27 47 31
55 24 55 89 182 96 186 4 3 8 14 8 24 0 10 16 50 35 89 19 38 35 74 35 80 0
10 25 64 56 123 8 14 14 38 14 51 0 14 4 28 9 32 5 3 13 20 17 38 6 30 30 89
60 150 8 16 14 41 14 55 0 15 9 42 20 60 11 18 20 46 20 62 0 16 4 31 9 34 4
3 11 25 15 48 4 24 13 52 20 63 8 11 17 40 21 64 4 23 13 55 21 69 8 15 14 39
14 53 0 15 7 46 15 69 8 23 15 58 15 76 0 27 7 38 37 58 38 27 66 84 52 108
-5 7 -9 23 -9 36 0 20 -4 22 -63 22 -36 0 -68 -5 -75 -12z"/>
</g>
<g>
<path d="M8573 1345 c-3 -9 11 -32 36 -58 23 -23 44 -52 47 -64 7 -24 -21 -73
-42 -73 -19 0 -48 -46 -40 -65 3 -9 18 -15 38 -15 47 0 62 13 54 44 -4 15 -2
36 5 47 10 20 11 20 30 3 11 -10 19 -30 19 -50 0 -29 4 -34 32 -42 41 -10 88
-3 95 14 3 8 -17 38 -45 68 -68 75 -70 90 -21 138 22 22 38 45 36 51 -2 8 -43
13 -121 14 -95 2 -118 -1 -123 -12z"/>
</g>
</g>
</svg>
