<?xml version="1.0" standalone="no"?>
<!DOCTYPE svg PUBLIC "-//W3C//DTD SVG 20010904//EN"
 "http://www.w3.org/TR/2001/REC-SVG-20010904/DTD/svg10.dtd">
<svg version="1.0" xmlns="http://www.w3.org/2000/svg"
 width="877.500000pt" height="609.730389pt" viewBox="0 0 877.500000 609.730389"
 preserveAspectRatio="xMidYMid meet">
<metadata>
Created by potrace 1.16, written by Peter Selinger 2001-2019
</metadata>
<g transform="translate(-20.500000,658.893470) scale(0.100000,-0.100000)"
fill="#000000" stroke="none">
<g>
<path d="M3956 6578 c-3 -7 -12 -47 -21 -88 -9 -41 -21 -85 -26 -98 -5 -13 -9
-33 -9 -45 0 -13 -9 -40 -20 -62 -23 -46 -26 -78 -6 -94 11 -9 20 -4 44 25 16
19 31 32 34 27 9 -20 -15 -3349 -24 -3360 -14 -17 -983 -19 -994 -2 -3 6 2 23
13 37 11 15 22 34 26 42 4 8 16 29 27 45 11 17 36 62 57 100 20 39 52 97 70
130 17 33 37 71 44 85 6 14 15 32 20 40 5 8 14 26 20 40 6 14 15 33 20 42 5
10 9 25 9 34 0 9 9 27 20 41 11 14 20 32 20 39 0 8 4 22 9 32 6 9 12 29 15 44
4 15 12 33 20 40 7 8 15 27 18 43 3 17 16 55 28 85 12 30 26 71 32 90 5 19 15
49 22 65 20 47 37 96 52 145 14 47 42 131 55 165 4 11 10 41 14 66 3 26 12 55
20 65 8 11 15 31 15 45 0 14 4 39 9 55 5 16 12 51 16 77 5 41 11 51 46 74 38
25 39 27 39 82 0 31 -5 62 -12 69 -16 16 -110 16 -126 0 -15 -15 -16 -134 -2
-143 6 -3 10 -21 10 -40 0 -19 -4 -37 -10 -40 -5 -3 -10 -16 -10 -27 0 -12 -4
-35 -9 -52 -6 -17 -22 -71 -36 -121 -15 -49 -30 -97 -35 -105 -4 -9 -11 -35
-15 -58 -4 -23 -13 -49 -21 -56 -8 -8 -14 -28 -14 -44 0 -16 -7 -43 -15 -58
-8 -16 -15 -36 -15 -45 0 -8 -7 -24 -15 -35 -8 -10 -15 -31 -15 -45 0 -14 -9
-44 -20 -67 -11 -22 -20 -48 -20 -56 0 -8 -4 -18 -10 -21 -5 -3 -10 -20 -10
-37 0 -16 -9 -41 -20 -55 -11 -14 -20 -32 -20 -39 0 -14 -14 -50 -63 -154 -16
-36 -36 -78 -44 -95 -7 -16 -17 -37 -22 -45 -5 -8 -19 -36 -31 -62 -12 -27
-26 -50 -31 -54 -5 -3 -9 -15 -9 -28 0 -12 -4 -26 -9 -31 -5 -6 -33 -55 -61
-110 -29 -55 -58 -107 -66 -116 -8 -8 -14 -20 -14 -25 0 -6 -13 -23 -28 -37
l-29 -28 -1297 1 c-1129 1 -1300 0 -1319 -13 l-22 -15 28 -11 c20 -8 402 -11
1302 -11 707 0 1276 -4 1279 -9 3 -4 -3 -16 -14 -26 -11 -10 -20 -22 -20 -28
0 -5 -16 -28 -36 -51 -19 -22 -39 -46 -43 -52 -5 -5 -25 -32 -46 -60 -47 -61
-295 -310 -355 -356 -74 -56 -193 -134 -227 -149 -18 -8 -33 -16 -33 -19 0 -7
-197 -101 -260 -125 -25 -9 -60 -23 -78 -31 -18 -8 -48 -14 -68 -14 -19 0 -45
-6 -57 -14 -24 -16 -133 -32 -317 -46 l-115 -9 -30 29 c-59 58 -156 29 -154
-46 2 -89 81 -121 161 -66 40 28 51 30 168 35 123 5 315 38 334 57 6 6 29 10
52 10 23 0 47 6 53 14 6 8 24 16 39 19 31 6 90 26 112 38 8 5 26 14 40 19 14
6 33 15 42 20 10 6 22 10 28 10 6 0 16 5 23 10 7 6 50 33 97 61 47 28 101 64
121 80 20 16 42 29 48 29 7 0 14 6 17 14 3 8 24 27 47 42 50 33 297 274 297
289 0 7 12 22 26 36 33 30 144 175 144 187 0 5 12 19 26 33 14 13 30 34 35 47
l9 22 526 -2 527 -3 -3 -925 c-1 -509 -5 -1024 -9 -1145 -7 -230 -3 -258 34
-253 19 3 20 13 27 233 3 127 9 649 12 1160 l5 930 383 3 c275 2 385 -1 392
-9 8 -8 7 -13 -1 -16 -7 -3 -13 -15 -13 -28 0 -13 -4 -27 -10 -30 -5 -3 -10
-14 -10 -24 0 -10 -7 -32 -15 -47 -8 -16 -15 -41 -15 -55 0 -15 -7 -40 -15
-55 -8 -16 -15 -41 -15 -56 0 -15 -7 -33 -15 -42 -9 -8 -15 -33 -15 -58 0 -24
-4 -48 -9 -53 -13 -13 -41 -114 -51 -184 -5 -29 -13 -58 -19 -64 -6 -6 -11
-22 -11 -35 0 -18 -9 -27 -38 -40 -95 -40 -77 -162 24 -162 30 0 47 6 63 24
24 25 24 41 5 134 -4 21 -1 44 10 66 9 19 16 40 16 47 0 12 16 71 50 184 10
33 28 96 40 140 13 44 29 94 36 112 8 17 14 44 14 60 0 15 7 41 15 57 8 15 15
38 15 51 0 12 7 36 16 53 l15 32 590 0 c388 0 597 -4 610 -10 10 -6 19 -19 19
-30 0 -10 5 -22 10 -25 6 -3 10 -15 10 -25 0 -11 9 -39 19 -62 11 -24 27 -63
36 -88 9 -25 21 -52 26 -60 5 -8 14 -26 20 -40 11 -23 33 -67 62 -121 50 -96
161 -208 252 -253 51 -25 64 -28 129 -24 95 6 169 46 280 150 72 67 236 265
236 285 0 3 12 22 28 42 15 20 35 52 45 71 21 42 55 102 86 152 l23 38 619 2
c340 1 631 2 646 2 37 1 39 -19 4 -40 -34 -20 -39 -35 -16 -54 13 -11 24 -10
58 0 23 8 46 17 52 22 5 4 22 8 37 8 16 0 42 7 57 15 16 8 48 17 72 21 36 4
129 41 129 49 0 9 -94 44 -135 50 -52 7 -197 49 -227 66 -10 5 -27 9 -38 9
-27 0 -27 -41 0 -65 11 -10 20 -22 20 -27 0 -4 -276 -7 -612 -6 -697 3 -641
-5 -593 93 15 30 31 55 36 55 5 0 9 7 9 15 0 20 42 105 52 105 4 0 8 12 8 26
0 14 9 37 20 51 11 14 20 31 20 38 0 6 13 38 29 71 29 62 36 76 96 214 20 47
45 103 56 125 10 22 19 45 19 52 0 10 15 43 51 115 5 10 9 28 9 41 0 13 9 32
20 42 11 10 20 31 20 46 0 15 4 31 10 34 5 3 10 13 10 22 0 9 8 34 19 57 35
78 51 117 51 126 0 6 9 32 21 58 43 99 49 113 49 125 1 7 9 30 20 52 11 22 19
48 20 57 0 10 10 40 21 67 15 34 31 53 53 62 28 13 31 18 34 67 2 31 -2 60 -9
68 -14 17 -110 19 -127 2 -15 -15 -16 -122 -1 -146 9 -14 7 -25 -8 -52 -11
-19 -32 -74 -48 -122 -15 -49 -32 -88 -36 -88 -5 0 -9 -13 -9 -29 0 -17 -4
-32 -9 -35 -5 -3 -14 -26 -20 -51 -6 -25 -16 -45 -21 -45 -6 0 -10 -12 -10
-27 0 -16 -9 -43 -20 -61 -11 -18 -20 -41 -20 -52 0 -10 -4 -22 -10 -25 -5 -3
-10 -16 -10 -28 0 -12 -9 -37 -20 -55 -11 -18 -20 -38 -20 -45 0 -7 -11 -37
-25 -65 -14 -29 -25 -55 -25 -58 0 -3 -13 -35 -30 -71 -16 -35 -30 -70 -30
-77 0 -8 -7 -19 -15 -26 -8 -7 -15 -19 -15 -26 0 -8 -13 -42 -30 -76 -16 -34
-30 -69 -30 -77 0 -9 -9 -27 -20 -41 -11 -14 -20 -31 -20 -38 0 -7 -4 -20 -8
-30 -5 -9 -18 -37 -29 -62 -82 -179 -169 -348 -187 -362 -19 -16 -67 -18 -608
-18 l-588 0 -20 42 c-11 23 -20 50 -20 59 0 10 -4 21 -10 24 -5 3 -10 15 -10
26 0 10 -4 27 -9 37 -5 9 -15 37 -22 62 -7 25 -16 49 -21 55 -4 5 -8 18 -8 30
0 11 -7 33 -15 49 -8 15 -15 37 -15 48 0 10 -9 36 -20 58 -11 22 -20 51 -20
65 0 14 -4 33 -9 43 -30 61 -51 116 -51 136 0 13 -7 29 -15 36 -9 7 -14 18
-12 24 2 6 -5 26 -15 44 -10 18 -18 44 -18 57 0 14 -4 25 -8 25 -5 0 -18 22
-31 49 -36 81 -94 163 -152 215 -76 68 -125 82 -179 51 -14 -8 -34 -18 -45
-24 -29 -13 -108 -98 -141 -151 -47 -75 -61 -100 -124 -230 -34 -69 -66 -132
-71 -140 -13 -20 -15 -28 -30 -82 -7 -27 -17 -48 -21 -48 -4 0 -8 -9 -8 -19 0
-11 -4 -23 -10 -26 -5 -3 -10 -17 -10 -31 0 -13 -4 -33 -10 -44 -5 -11 -14
-29 -20 -40 -6 -11 -10 -29 -10 -39 0 -11 -4 -23 -10 -26 -6 -3 -10 -15 -10
-27 0 -11 -7 -34 -14 -51 -14 -29 -39 -115 -53 -177 -3 -14 -15 -37 -25 -52
l-19 -28 -384 0 c-236 0 -386 4 -390 10 -6 10 -8 3351 -1 3357 2 2 16 -10 32
-27 32 -34 46 -37 64 -15 9 11 10 22 3 38 -25 54 -32 75 -44 127 -7 30 -16 59
-21 65 -4 5 -8 29 -9 55 0 25 -8 59 -18 75 -19 32 -48 45 -55 23z m1558 -2533
c8 -8 19 -15 23 -15 12 0 62 -52 79 -82 33 -59 54 -103 54 -115 0 -7 4 -13 9
-13 5 0 14 -15 21 -32 6 -18 23 -56 36 -85 13 -28 24 -58 24 -65 0 -8 4 -18 9
-24 5 -5 14 -25 19 -44 17 -57 41 -124 52 -142 6 -10 10 -29 10 -43 0 -14 7
-37 16 -51 9 -14 20 -42 25 -62 16 -77 29 -119 44 -148 8 -16 15 -38 15 -49 0
-11 7 -29 15 -39 8 -11 15 -30 15 -43 0 -12 8 -38 19 -56 13 -23 16 -39 9 -50
-8 -16 -56 -17 -574 -17 l-566 0 5 48 c2 26 9 61 15 77 6 17 14 42 17 57 3 15
12 33 20 42 8 8 15 28 15 45 0 16 4 32 9 35 5 4 12 24 16 45 3 22 13 47 20 58
8 10 15 26 15 35 0 17 20 66 61 153 11 22 19 45 19 52 0 6 14 38 30 70 17 31
30 65 30 74 0 9 9 24 20 34 11 10 20 26 20 36 0 10 5 21 10 24 6 3 10 14 10
24 0 10 9 26 20 36 11 10 20 25 20 33 0 30 123 182 147 182 8 0 21 7 29 15 9
8 31 15 49 15 18 0 40 -7 49 -15z m1740 -1233 c3 -5 -2 -18 -12 -28 -9 -11
-28 -39 -41 -64 -13 -25 -29 -52 -35 -60 -6 -8 -20 -31 -30 -50 -26 -46 -144
-205 -190 -254 -20 -21 -36 -42 -36 -47 0 -19 -124 -115 -180 -139 -14 -5 -33
-15 -42 -20 -23 -13 -145 -13 -153 0 -3 6 -15 10 -26 10 -10 0 -19 4 -19 8 0
4 -15 16 -32 27 -18 10 -46 33 -61 49 -38 41 -122 167 -142 214 -9 20 -21 44
-26 52 -5 8 -14 26 -20 40 -6 14 -15 32 -19 40 -4 9 -11 30 -14 47 -4 17 -13
37 -21 43 -7 6 -16 29 -20 51 -4 21 -11 39 -16 39 -5 0 -9 11 -9 25 l0 25 569
0 c314 0 572 -4 575 -8z"/>
</g>
<g>
<path d="M4679 6321 c-20 -17 -22 -23 -12 -39 9 -15 9 -28 1 -54 -6 -18 -12
-39 -14 -45 -2 -7 -12 -13 -22 -13 -23 0 -68 88 -53 103 6 6 11 22 11 34 0 23
-3 24 -56 21 -70 -4 -90 -24 -57 -60 12 -13 31 -41 43 -63 80 -142 85 -165 48
-215 -16 -23 -30 -30 -55 -30 -22 0 -36 -6 -43 -19 -16 -30 -14 -31 50 -31 57
0 61 2 70 28 6 15 14 34 20 42 5 8 21 40 35 70 15 30 31 63 36 72 5 10 9 28 9
41 0 13 9 32 20 42 11 10 20 28 20 41 0 14 8 25 20 29 25 8 26 27 2 48 -24 22
-44 21 -73 -2z"/>
</g>
<g>
<path d="M8371 2326 c-11 -13 -7 -23 33 -68 25 -29 46 -59 46 -66 0 -7 -20
-35 -45 -61 -25 -26 -45 -53 -45 -58 0 -5 10 -14 23 -20 34 -15 67 3 67 38 0
33 9 59 20 59 19 0 41 -34 36 -55 -4 -17 1 -27 19 -39 13 -9 31 -16 39 -16 22
0 66 22 66 32 0 5 -22 35 -50 67 -65 75 -65 91 5 149 33 28 -7 63 -49 44 -20
-9 -26 -19 -26 -42 0 -16 -5 -30 -10 -30 -6 0 -8 10 -5 23 8 34 -7 47 -61 53
-38 5 -53 3 -63 -10z"/>
</g>
</g>
</svg>
