<?xml version="1.0" standalone="no"?>
<!DOCTYPE svg PUBLIC "-//W3C//DTD SVG 20010904//EN"
 "http://www.w3.org/TR/2001/REC-SVG-20010904/DTD/svg10.dtd">
<svg version="1.0" xmlns="http://www.w3.org/2000/svg"
 width="842.284242pt" height="477.000000pt" viewBox="0 0 842.284242 477.000000"
 preserveAspectRatio="xMidYMid meet">
<metadata>
Created by potrace 1.16, written by Peter Selinger 2001-2019
</metadata>
<g transform="translate(-47.535253,510.000000) scale(0.100000,-0.100000)"
fill="#000000" stroke="none">
<g>
<path d="M4460 5083 c0 -9 8 -26 19 -37 10 -12 40 -62 66 -112 38 -73 46 -97
41 -122 -9 -41 -36 -63 -85 -69 -46 -6 -49 -12 -23 -36 35 -32 112 -11 112 30
0 5 9 18 20 28 11 10 22 27 26 39 4 11 17 43 30 70 13 28 24 60 24 72 0 12 6
27 14 33 22 19 58 92 52 107 -4 9 -22 14 -52 14 l-47 0 6 -37 c15 -96 -32
-150 -66 -78 -12 25 -15 48 -11 75 l7 40 -67 0 c-55 0 -66 -3 -66 -17z"/>
</g>
<g>
<path d="M4064 3673 c-5 -731 -8 -1474 -7 -1653 1 -237 -2 -327 -10 -332 -7
-4 -807 -8 -1778 -8 -1699 0 -1767 -1 -1782 -18 -10 -10 -14 -22 -10 -25 3 -4
805 -7 1782 -7 977 0 1781 -4 1787 -8 12 -8 1 -1242 -11 -1262 -10 -16 13 -30
48 -30 l27 0 0 638 c0 483 3 641 12 650 15 15 554 17 563 2 10 -17 -5 -50 -23
-50 -10 0 -28 -7 -40 -16 -17 -12 -22 -25 -22 -63 0 -26 5 -52 12 -59 16 -16
110 -16 126 0 15 15 15 82 0 125 -11 29 -10 36 8 53 19 20 40 20 1918 20 1045
0 1901 -1 1903 -3 2 -2 -13 -21 -32 -41 -19 -21 -32 -42 -29 -48 7 -12 90 -3
108 11 6 5 36 14 66 22 30 7 59 16 65 21 5 4 23 8 40 8 45 0 117 37 113 58 -3
16 -44 30 -158 52 -75 15 -152 38 -163 49 -15 15 -52 14 -66 -3 -8 -10 -5 -19
15 -41 14 -15 23 -30 20 -32 -7 -8 22 -7 -873 -5 -619 2 -803 5 -803 14 0 7
45 55 99 108 90 87 170 179 171 198 1 4 14 23 30 42 17 19 30 37 30 41 0 11
82 133 92 137 4 2 8 10 8 17 0 7 22 52 50 100 28 48 50 91 50 95 0 5 13 31 28
57 15 26 34 63 41 81 7 17 17 32 22 32 5 0 9 9 9 19 0 11 5 23 10 26 6 3 10
15 10 27 0 11 9 31 20 45 11 14 20 32 20 40 0 8 9 26 20 40 11 14 20 34 20 44
0 10 5 21 10 24 6 3 10 17 10 29 0 13 7 29 15 36 8 7 15 18 15 24 0 6 16 43
35 81 19 39 35 76 35 82 0 7 14 42 30 76 17 35 30 70 30 76 0 7 7 25 14 39 22
39 43 93 50 124 3 15 13 33 21 42 8 8 15 24 15 35 0 20 17 66 46 124 8 16 14
35 14 43 0 7 9 29 20 49 11 20 20 44 20 55 0 10 5 22 10 25 6 3 10 16 10 28 0
12 7 35 15 51 8 15 15 32 15 37 0 5 9 28 19 52 11 23 21 51 23 62 2 13 13 21
28 23 14 2 31 9 38 14 16 13 16 110 0 126 -7 7 -35 12 -63 12 -28 0 -56 -5
-63 -12 -14 -14 -16 -114 -2 -123 15 -9 12 -47 -5 -69 -8 -11 -15 -32 -15 -47
0 -14 -6 -32 -13 -38 -8 -6 -22 -38 -32 -71 -10 -33 -22 -60 -27 -60 -4 0 -8
-9 -8 -19 0 -11 -4 -23 -10 -26 -5 -3 -10 -19 -10 -34 0 -15 -13 -54 -29 -87
-15 -32 -31 -73 -35 -91 -4 -17 -14 -37 -22 -44 -8 -6 -14 -19 -14 -28 0 -22
-37 -122 -50 -135 -5 -5 -10 -19 -10 -29 0 -11 -8 -36 -19 -56 -19 -38 -31
-65 -51 -118 -7 -18 -16 -33 -21 -33 -5 0 -9 -11 -9 -24 0 -14 -13 -51 -30
-83 -16 -31 -30 -65 -30 -74 0 -9 -9 -24 -20 -34 -11 -10 -20 -26 -20 -36 0
-14 -31 -85 -71 -161 -20 -39 -27 -54 -39 -83 -7 -16 -16 -37 -21 -45 -5 -8
-23 -43 -41 -78 -17 -34 -35 -62 -40 -62 -4 0 -8 -9 -8 -21 0 -12 -12 -40 -27
-63 -16 -22 -34 -53 -42 -68 -8 -16 -18 -28 -23 -28 -4 0 -8 -7 -8 -16 0 -9
-27 -56 -60 -106 -33 -49 -60 -92 -60 -95 0 -16 -221 -263 -235 -263 -6 0 -20
-9 -30 -20 -10 -11 -26 -20 -35 -20 -10 0 -31 -7 -46 -15 -71 -37 -216 4 -283
80 -42 49 -121 171 -121 189 0 8 -4 17 -9 20 -13 8 -91 171 -91 190 0 9 -4 24
-9 34 -22 44 -51 110 -51 118 -1 5 -9 27 -20 49 -11 22 -19 50 -20 62 0 12 -4
25 -10 28 -5 3 -10 17 -10 31 0 14 -9 42 -20 64 -11 22 -20 47 -20 57 0 10 -7
26 -15 37 -8 10 -17 38 -21 62 -3 25 -10 47 -15 50 -5 3 -9 18 -9 34 0 16 -9
45 -20 65 -11 20 -20 42 -20 50 0 9 -4 23 -9 33 -13 24 -42 111 -48 147 -3 17
-9 32 -12 35 -6 5 -13 22 -45 105 -6 17 -19 41 -28 55 -10 13 -18 30 -18 37 0
26 -65 120 -129 186 l-65 67 -58 0 c-67 0 -85 -8 -151 -70 -45 -41 -127 -151
-127 -169 0 -4 -9 -16 -20 -26 -11 -10 -20 -26 -20 -36 0 -10 -4 -21 -10 -24
-5 -3 -10 -14 -10 -24 0 -10 -9 -26 -20 -36 -11 -10 -20 -26 -20 -36 0 -10
-13 -44 -30 -76 -16 -31 -30 -64 -30 -73 0 -8 -9 -30 -20 -48 -11 -18 -20 -41
-20 -52 0 -10 -4 -22 -10 -25 -6 -3 -10 -15 -10 -27 0 -11 -8 -37 -19 -57 -10
-20 -24 -54 -30 -76 -13 -41 -26 -77 -42 -107 -5 -10 -9 -28 -9 -40 0 -13 -12
-54 -26 -93 -14 -38 -32 -92 -39 -119 -8 -27 -19 -54 -24 -59 -6 -6 -11 -28
-11 -48 0 -21 -4 -40 -9 -44 -6 -3 -13 -27 -17 -53 -3 -26 -12 -56 -19 -67 -6
-11 -15 -38 -19 -60 -4 -21 -14 -52 -22 -67 -8 -15 -14 -43 -14 -62 0 -19 -4
-38 -10 -41 -5 -3 -10 -21 -10 -38 0 -18 -7 -45 -15 -61 -8 -15 -15 -36 -15
-46 0 -41 -18 -43 -308 -41 -200 2 -280 5 -288 14 -7 8 -8 493 -3 1641 5 1072
5 1635 -2 1647 -5 11 -18 19 -28 19 -17 0 -18 -59 -27 -1327z m1575 -179 c23
-21 54 -55 67 -76 40 -63 64 -108 64 -119 0 -6 9 -22 20 -36 11 -14 20 -36 20
-49 0 -12 5 -26 10 -29 6 -3 10 -15 10 -25 0 -11 9 -34 20 -52 11 -18 20 -42
20 -53 0 -11 7 -29 15 -39 8 -11 15 -27 15 -35 0 -9 7 -29 15 -45 8 -15 15
-44 15 -62 0 -19 4 -34 10 -34 5 0 14 -19 20 -42 20 -75 32 -112 51 -151 11
-22 19 -54 19 -73 0 -19 5 -34 10 -34 6 0 10 -10 10 -23 0 -13 3 -27 7 -30 4
-4 16 -35 29 -70 41 -118 47 -132 55 -149 5 -10 9 -23 9 -30 0 -7 9 -31 19
-53 48 -100 81 -175 81 -185 0 -6 5 -16 10 -23 6 -7 32 -46 59 -87 51 -77 75
-109 124 -163 15 -17 24 -34 19 -39 -5 -5 -1271 -12 -1679 -8 -15 0 -17 46 -3
55 6 3 10 16 10 28 0 12 10 47 21 77 12 30 24 70 26 88 3 18 9 35 14 38 5 3 9
25 9 49 0 24 4 46 9 49 5 3 15 30 21 58 7 29 16 58 20 63 4 6 11 29 15 52 3
22 13 49 20 60 8 10 15 32 15 50 0 17 4 34 9 37 4 3 11 24 15 47 4 23 13 54
21 68 7 14 19 47 25 74 7 26 17 47 21 47 5 0 9 13 9 29 0 17 4 32 9 35 5 3 12
26 15 50 4 24 14 50 21 56 8 7 15 23 15 36 0 22 16 61 31 74 3 3 13 30 23 61
9 31 24 65 31 75 8 11 15 26 15 35 0 20 100 222 112 227 4 2 8 10 8 18 0 20
108 164 128 171 10 4 19 10 22 13 12 16 47 29 76 30 21 0 44 -11 73 -36z"/>
</g>
<g>
<path d="M3440 4793 c-19 -3 -41 -9 -47 -15 -16 -13 -17 -110 -2 -125 13 -13
3 -119 -12 -128 -5 -4 -9 -21 -9 -38 -1 -18 -9 -50 -20 -72 -11 -22 -19 -53
-20 -68 0 -15 -9 -45 -20 -67 -11 -22 -20 -50 -20 -64 0 -14 -4 -28 -10 -31
-5 -3 -10 -19 -10 -34 0 -30 -20 -81 -32 -81 -5 0 -8 -9 -8 -21 0 -26 -27
-116 -46 -152 -7 -16 -14 -34 -14 -40 0 -14 -44 -125 -54 -134 -3 -3 -6 -15
-6 -26 0 -11 -10 -38 -21 -61 -12 -22 -25 -49 -30 -58 -5 -10 -9 -23 -9 -30 0
-7 -9 -24 -20 -38 -11 -14 -20 -32 -20 -41 0 -9 -12 -38 -26 -65 -41 -77 -70
-135 -93 -184 -12 -25 -33 -63 -46 -85 -14 -22 -34 -58 -44 -81 -11 -22 -27
-47 -36 -54 -8 -7 -15 -17 -15 -22 0 -21 -203 -297 -274 -372 -25 -27 -46 -52
-46 -56 0 -19 -316 -290 -339 -290 -5 0 -11 -4 -13 -8 -6 -14 -66 -52 -82 -52
-9 0 -16 -4 -16 -8 0 -5 -17 -17 -37 -29 -21 -11 -55 -30 -76 -41 -21 -12 -43
-22 -50 -22 -7 0 -38 -13 -68 -29 -31 -16 -70 -32 -88 -36 -18 -4 -44 -13 -59
-21 -15 -8 -45 -14 -68 -14 -22 0 -44 -4 -50 -9 -11 -11 -223 -47 -324 -55
-75 -6 -76 -6 -105 24 -23 24 -37 30 -70 30 -71 0 -104 -56 -72 -123 11 -25
17 -27 71 -27 48 0 62 4 78 22 18 21 31 23 161 29 155 7 266 23 300 41 12 6
38 15 57 19 42 9 118 35 142 49 10 6 24 10 31 10 14 0 166 76 182 91 5 5 15 9
23 9 7 0 40 19 74 42 33 24 77 52 97 63 20 11 43 27 51 36 8 9 51 45 95 81 86
71 245 229 245 245 0 5 16 25 36 44 35 33 124 144 124 154 0 3 23 35 50 70 28
35 50 67 50 71 0 3 14 26 30 51 17 24 30 48 30 52 0 5 7 14 15 21 9 7 22 29
31 49 9 20 20 43 25 51 5 8 19 34 31 58 12 23 26 42 30 42 4 0 8 9 8 20 0 11
5 20 10 20 6 0 10 7 10 16 0 17 75 172 91 189 5 5 9 19 9 31 0 13 5 26 10 29
6 3 10 15 10 27 0 11 8 32 19 46 10 15 22 41 25 59 4 17 14 37 22 44 8 6 14
18 14 26 0 22 32 116 47 138 7 11 13 32 13 47 0 15 5 30 10 33 6 3 10 15 10
26 0 11 8 34 17 52 9 18 20 48 24 67 8 38 37 125 50 152 5 10 9 30 9 45 1 16
8 46 16 68 18 48 43 146 51 198 4 31 13 44 44 65 36 25 38 30 39 79 0 43 -4
55 -22 67 -12 9 -25 15 -28 14 -3 0 -21 -3 -40 -5z"/>
</g>
<g>
<path d="M8315 1149 c-4 -5 14 -32 39 -60 26 -28 46 -61 46 -73 -1 -12 -17
-33 -40 -51 -56 -43 -52 -85 10 -85 27 0 46 28 33 49 -11 18 4 51 24 51 17 0
38 -32 35 -52 -7 -42 50 -63 99 -38 25 14 24 21 -8 57 -16 16 -35 39 -43 49
-8 11 -21 27 -28 36 -11 13 -6 22 32 59 31 29 42 46 36 54 -12 14 -227 18
-235 4z"/>
</g>
</g>
</svg>
