<?xml version="1.0" encoding="UTF-8" standalone="no"?>
<svg
   version="1.0"
   width="778.500000pt"
   height="408.450773pt"
   viewBox="0 0 778.500000 408.450773"
   preserveAspectRatio="xMidYMid meet"
   id="svg30"
   sodipodi:docname="601-007.svg"
   inkscape:version="1.1 (c4e8f9ed74, 2021-05-24)"
   xmlns:inkscape="http://www.inkscape.org/namespaces/inkscape"
   xmlns:sodipodi="http://sodipodi.sourceforge.net/DTD/sodipodi-0.dtd"
   xmlns="http://www.w3.org/2000/svg"
   xmlns:svg="http://www.w3.org/2000/svg">
  <defs
     id="defs34" />
  <sodipodi:namedview
     id="namedview32"
     pagecolor="#ffffff"
     bordercolor="#999999"
     borderopacity="1"
     inkscape:pageshadow="0"
     inkscape:pageopacity="0"
     inkscape:pagecheckerboard="0"
     inkscape:document-units="pt"
     showgrid="false"
     inkscape:zoom="1.2118963"
     inkscape:cx="519.02129"
     inkscape:cy="272.71309"
     inkscape:window-width="1920"
     inkscape:window-height="1039"
     inkscape:window-x="0"
     inkscape:window-y="0"
     inkscape:window-maximized="1"
     inkscape:current-layer="g14" />
  <metadata
     id="metadata2">
Created by potrace 1.16, written by Peter Selinger 2001-2019
</metadata>
  <g
     transform="translate(-61.000000,465.423369) scale(0.100000,-0.100000)"
     fill="#000000"
     stroke="none"
     id="g28">
    <g
       id="g14">
      <path
         d="M1417 4654 c-3 -3 -181 -6 -395 -6 -214 0 -395 -4 -402 -8 -7 -4 -10 -15 -7 -25 6 -14 26 -16 174 -14 114 1 168 -2 171 -9 2 -6 -18 -52 -43 -101 -26 -50 -45 -96 -43 -103 3 -8 21 -13 44 -13 l39 0 -4 -175 c-3 -156 -2 -177 14 -190 12 -10 21 -11 33 -3 15 9 17 33 17 189 l0 179 39 0 c23 0 41 5 43 12 3 7 -16 52 -41 99 -25 47 -46 92 -46 100 0 11 36 14 200 14 l200 0 0 -1043 0 -1044 -202 -6 c-112 -3 -205 -3 -208 0 -3 2 19 50 48 104 30 56 51 107 48 115 -4 11 -17 15 -43 12 l-38 -3 0 179 c0 156 -2 180 -17 189 -12 8 -21 7 -33 -3 -16 -13 -17 -34 -14 -190 l4 -175 -42 3 c-22 2 -44 -1 -47 -6 -3 -5 6 -29 19 -53 26 -47 85 -168 85 -174 0 -3 -81 -2 -180 2 -178 6 -180 6 -180 -15 0 -30 41 -35 212 -27 81 4 148 5 148 2 0 -8 -56 -125 -85 -176 -13 -24 -22 -48 -19 -53 3 -5 25 -8 47 -6 l42 3 0 -179 c0 -158 2 -180 17 -190 36 -22 41 4 42 191 l1 178 38 -3 c26 -2 39 2 43 12 3 8 -17 58 -45 109 -28 52 -51 99 -51 105 0 7 65 9 203 7 l202 -3 3 -908 c1 -659 -1 -911 -9 -920 -9 -11 -54 -14 -200 -14 -166 0 -189 2 -189 16 0 9 21 56 46 105 25 48 43 93 39 99 -3 5 -24 10 -47 10 l-40 0 3 180 c3 149 1 182 -11 190 -8 5 -22 4 -33 -2 -18 -10 -19 -20 -16 -187 l4 -176 -38 -3 c-21 -2 -40 -9 -43 -16 -2 -7 16 -52 41 -101 25 -49 45 -95 45 -102 0 -10 -37 -13 -175 -13 -165 0 -175 -1 -175 -19 0 -10 6 -21 13 -23 6 -3 1673 -6 3704 -7 3635 -3 3692 -2 3702 17 6 12 10 204 10 548 0 291 2 537 6 546 8 21 -11 58 -30 58 -9 0 -23 4 -33 10 -9 5 -44 20 -77 34 -33 13 -100 43 -148 65 -49 23 -90 41 -92 41 -3 0 -47 20 -99 45 -53 25 -98 45 -100 45 -3 0 -33 13 -68 29 -35 16 -81 36 -103 46 -22 9 -72 32 -110 51 -39 19 -74 34 -78 34 -5 0 -36 13 -70 29 -163 75 -198 91 -205 91 -4 0 -44 18 -90 40 -45 22 -85 40 -90 40 -14 0 -170 79 -177 90 -3 5 -15 10 -25 10 -11 0 -34 9 -52 20 -18 11 -50 25 -71 31 -21 5 -60 23 -88 39 -27 17 -56 30 -64 30 -8 0 -30 9 -50 20 -20 11 -43 20 -51 20 -9 0 -28 9 -43 19 -15 11 -40 23 -57 27 -16 4 -49 18 -73 31 -24 12 -49 23 -56 23 -6 0 -36 13 -66 30 -30 16 -64 30 -76 30 -12 0 -23 3 -25 8 -4 10 -87 52 -103 52 -13 0 -31 8 -163 74 -40 20 -78 36 -84 36 -10 0 -74 28 -163 71 -22 10 -45 19 -51 19 -7 0 -36 12 -65 28 -30 15 -74 36 -99 46 -25 11 -77 34 -117 53 -40 18 -75 33 -78 33 -3 0 -43 18 -90 40 -47 22 -91 40 -100 40 -8 0 -15 5 -15 10 0 6 -7 10 -15 10 -8 0 -23 4 -33 10 -17 9 -113 53 -187 85 -22 9 -62 28 -89 41 -28 13 -53 24 -58 24 -7 0 -41 15 -205 91 -34 16 -65 29 -70 29 -5 0 -44 18 -88 40 -44 22 -86 40 -93 40 -7 0 -25 8 -39 17 -26 17 -57 30 -130 56 -18 7 -33 15 -33 19 0 5 -6 8 -13 8 -8 0 -41 14 -75 30 -34 17 -66 30 -71 30 -4 0 -37 14 -72 31 -35 18 -73 35 -84 39 -11 4 -45 19 -75 33 -30 14 -73 33 -95 42 -51 22 -102 45 -190 85 -38 18 -79 36 -90 40 -11 4 -41 17 -67 29 -27 11 -67 30 -90 40 -24 10 -72 32 -108 49 -36 16 -83 36 -105 43 -22 8 -42 16 -45 19 -9 9 -92 50 -100 50 -5 0 -39 14 -75 30 -36 17 -94 44 -130 60 -36 17 -70 30 -74 30 -5 0 -35 14 -66 30 -31 17 -61 30 -67 30 -5 0 -39 14 -76 31 -84 39 -136 62 -187 84 -22 9 -61 28 -86 40 -26 13 -49 22 -52 19z m160 -134 c59 -28 116 -55 125 -60 10 -6 26 -10 36 -10 10 0 22 -4 27 -9 16 -15 85 -51 98 -51 6 0 39 -13 72 -28 33 -16 90 -43 128 -60 37 -18 74 -32 83 -32 8 0 32 -11 52 -25 20 -14 59 -32 86 -41 28 -10 71 -29 96 -43 25 -15 65 -33 90 -40 25 -7 57 -22 72 -32 14 -11 33 -19 41 -19 8 0 35 -11 61 -25 26 -14 52 -25 58 -25 6 0 45 -16 87 -37 42 -20 87 -41 101 -46 14 -5 33 -13 43 -18 9 -5 25 -13 35 -18 9 -5 28 -13 42 -19 40 -15 109 -47 190 -86 42 -20 80 -36 85 -36 6 0 32 -11 59 -25 27 -14 53 -25 57 -25 8 0 121 -50 162 -71 9 -5 26 -13 37 -19 11 -5 29 -14 40 -20 11 -5 26 -10 35 -10 15 0 82 -34 99 -51 6 -5 17 -9 25 -9 8 0 51 -17 96 -38 133 -64 175 -82 188 -82 7 0 48 -18 91 -40 43 -22 87 -40 97 -40 10 0 19 -4 19 -10 0 -5 6 -10 13 -10 6 0 23 -9 37 -20 14 -11 34 -20 46 -20 12 0 48 -13 80 -29 126 -62 190 -91 199 -91 6 0 39 -14 75 -31 36 -18 73 -36 82 -41 10 -4 25 -8 33 -8 8 0 15 -4 15 -10 0 -5 6 -10 14 -10 8 0 31 -9 53 -20 77 -39 127 -60 143 -60 9 0 20 -4 25 -9 17 -16 85 -51 98 -51 8 0 49 -18 92 -40 43 -22 83 -40 87 -40 5 0 37 -13 71 -29 34 -15 96 -43 137 -60 41 -18 97 -44 124 -58 27 -14 60 -27 73 -29 23 -4 90 -38 108 -55 5 -5 16 -9 25 -9 9 0 43 -13 75 -30 32 -16 64 -30 70 -30 7 0 41 -15 76 -33 35 -19 77 -37 93 -41 17 -4 42 -16 57 -27 15 -10 32 -19 39 -19 6 0 30 -9 52 -20 23 -11 48 -20 55 -20 7 0 13 -4 13 -10 0 -5 7 -10 15 -10 9 0 34 -9 56 -20 l40 -21 -55 -49 c-67 -62 -112 -150 -128 -254 l-11 -75 -46 5 c-25 3 -71 9 -101 14 -30 5 -86 12 -125 15 -109 10 -232 23 -325 36 -47 6 -121 15 -165 19 -44 5 -141 16 -215 25 -74 9 -192 22 -262 28 -69 7 -130 15 -134 20 -4 4 -33 7 -64 7 -31 0 -60 4 -65 9 -9 9 -61 16 -200 26 -175 14 -324 31 -331 37 -4 5 -36 8 -70 8 -35 0 -66 5 -69 10 -3 6 -33 10 -66 10 -32 0 -67 4 -77 9 -19 10 -250 33 -324 32 -26 0 -50 4 -53 9 -3 6 -39 10 -80 10 -41 0 -77 5 -80 10 -3 6 -33 10 -65 10 -32 0 -61 4 -64 9 -4 5 -65 12 -136 16 -72 4 -133 11 -135 15 -3 5 -61 11 -130 15 -69 4 -128 11 -131 16 -3 5 -32 9 -64 9 -32 0 -62 5 -65 10 -3 6 -37 10 -75 10 -38 0 -72 5 -75 10 -4 6 -30 11 -58 10 -72 -1 -314 23 -323 33 -4 4 -38 7 -75 7 -37 0 -71 5 -74 10 -3 6 -31 10 -61 10 -30 0 -62 4 -72 9 -19 10 -258 32 -335 31 -27 -1 -54 3 -60 9 -7 5 -22 11 -35 13 -12 1 -23 6 -22 11 0 4 0 464 0 1022 0 558 2 1015 4 1015 3 0 53 -23 113 -50z m57 -2081 c16 -5 53 -9 82 -9 29 0 56 -4 59 -10 3 -5 33 -10 66 -10 32 0 67 -4 77 -9 9 -6 99 -15 200 -22 101 -7 185 -16 188 -21 3 -4 34 -8 69 -8 35 0 67 -4 70 -10 3 -5 37 -10 75 -10 38 0 71 -4 74 -9 3 -5 61 -12 128 -16 68 -4 129 -12 136 -17 6 -6 35 -8 62 -6 28 3 53 1 56 -3 3 -5 36 -9 74 -9 38 0 72 -4 75 -10 3 -5 33 -10 65 -10 32 0 61 -4 64 -9 3 -5 62 -12 131 -16 69 -4 127 -11 130 -15 3 -4 66 -11 140 -15 74 -4 138 -11 141 -16 3 -5 32 -9 64 -9 32 0 62 -4 65 -10 3 -5 37 -10 75 -10 38 0 72 -5 75 -10 4 -6 30 -11 58 -11 78 0 314 -23 323 -31 4 -5 38 -8 75 -8 37 0 71 -4 74 -10 3 -5 33 -10 65 -10 32 0 61 -4 64 -9 3 -5 62 -12 131 -16 69 -4 128 -12 131 -17 3 -5 33 -8 65 -7 32 1 62 -1 66 -4 3 -4 35 -7 69 -7 35 0 66 -5 69 -10 3 -6 33 -10 65 -10 32 0 61 -4 64 -9 3 -5 67 -12 141 -16 74 -4 137 -11 140 -15 3 -4 61 -11 130 -15 69 -4 128 -11 131 -16 3 -5 34 -9 69 -9 35 0 66 -4 69 -9 3 -4 61 -11 128 -15 68 -4 127 -11 133 -16 5 -4 69 -11 140 -15 72 -4 135 -11 140 -15 6 -5 37 -11 70 -13 33 -3 121 -13 195 -22 74 -9 223 -24 330 -34 107 -10 197 -19 200 -20 47 -13 -484 -16 -2987 -13 l-2963 2 -2 356 c-2 196 -1 358 1 360 7 6 143 -7 175 -17z m5052 -184 c35 -19 68 -35 74 -35 10 0 118 -48 203 -91 22 -10 45 -19 53 -19 12 0 75 -31 99 -50 6 -4 24 -10 40 -14 38 -9 92 -34 127 -58 14 -10 34 -18 45 -18 10 0 42 -14 72 -30 30 -17 60 -30 66 -30 7 0 33 -11 59 -25 26 -14 52 -25 59 -25 7 0 39 -14 72 -30 33 -16 66 -30 73 -30 6 0 29 -9 50 -21 l37 -21 -80 7 c-68 6 -352 40 -615 75 -131 18 -498 61 -653 77 l-58 6 6 51 c6 47 14 75 36 118 5 10 9 22 9 28 0 25 77 123 114 145 23 14 43 25 44 25 2 0 33 -16 68 -35z m1264 -577 l40 -13 0 -512 0 -513 -3265 0 -3265 0 0 520 0 520 2803 3 c1541 1 2992 3 3225 5 315 1 432 -1 462 -10z"
         id="path4" />
      <g
         id="g8">
        <path
           d="M5605 2427 c-63 -25 -95 -48 -95 -67 0 -11 -4 -20 -10 -20 -5 0 -10 -7 -10 -15 0 -8 -6 -15 -13 -15 -20 0 -47 -65 -47 -111 0 -62 33 -89 108 -89 47 0 67 5 105 30 41 25 47 27 47 12 0 -50 64 -57 103 -12 42 47 30 73 -14 29 -27 -27 -43 -20 -47 22 -2 28 9 50 58 122 33 49 60 93 60 98 0 5 -13 9 -30 9 -22 0 -35 -8 -53 -35 -25 -36 -35 -35 -50 6 -5 15 -61 50 -76 48 -3 0 -19 -6 -36 -12z m75 -52 c7 -8 15 -34 17 -58 4 -38 1 -47 -36 -93 -47 -59 -80 -84 -114 -84 -49 0 -62 56 -27 120 11 19 26 49 34 67 28 57 97 83 126 48z"
           id="path6" />
      </g>
    </g>
    <g
       id="g18">
      <path
         d="M970 3674 c-68 -48 -106 -103 -129 -185 -11 -40 -11 -51 4 -78 30 -59 94 -60 150 -3 l35 36 0 -31 c0 -57 56 -64 105 -13 31 32 25 63 -6 34 -11 -9 -22 -14 -26 -11 -3 4 12 64 35 133 23 70 39 131 36 136 -9 15 -53 8 -63 -9 -9 -17 -10 -17 -28 0 -27 24 -72 20 -113 -9z m100 -19 c21 -25 5 -108 -28 -158 -43 -61 -66 -79 -99 -75 -25 3 -28 7 -31 43 -4 54 28 124 78 169 44 39 61 44 80 21z"
         id="path16" />
    </g>
    <g
       id="g22">
      <path
         d="M923 1763 c-29 -3 -43 -9 -43 -19 0 -8 7 -14 15 -14 22 0 16 -66 -15 -145 -17 -43 -60 -187 -60 -200 0 -12 48 -40 80 -46 8 -2 31 1 50 5 40 9 130 91 130 118 0 9 5 20 10 23 6 3 10 24 10 46 0 74 -78 115 -138 73 -27 -19 -27 -13 -2 56 20 55 27 112 13 108 -5 -1 -27 -3 -50 -5z m103 -194 c11 -19 6 -90 -10 -123 -21 -44 -47 -66 -90 -73 -41 -6 -56 13 -38 50 6 12 16 44 24 71 7 27 23 57 37 67 26 21 66 25 77 8z"
         id="path20" />
    </g>
    <g
       id="g26">
      <path
         d="M8185 1311 c-3 -6 4 -15 15 -21 25 -13 24 -18 -54 -269 -20 -62 -33 -118 -30 -122 8 -13 42 -11 51 4 4 6 15 33 23 59 28 80 98 168 135 168 10 0 4 -28 -24 -118 -17 -51 -27 -100 -24 -108 9 -25 57 -16 89 17 l29 32 -29 -7 c-24 -6 -28 -4 -22 10 4 10 17 55 29 100 21 81 21 83 3 103 -11 12 -25 21 -32 21 -8 0 -37 -23 -65 -50 -29 -28 -53 -49 -55 -48 -1 2 13 48 31 103 46 135 46 135 -14 135 -28 0 -52 -4 -56 -9z"
         id="path24" />
    </g>
  </g>
</svg>
