<?xml version='1.0' encoding='utf-8'?>
<svg xmlns="http://www.w3.org/2000/svg" width="135.43pt" height="135.43pt" viewBox="0 0 135.415 135.415" version="1.2">
<defs>
<clipPath id="clip1">
  <path d="M 0 0 L 134.832031 0 L 134.832031 134.832031 L 0 134.832031 Z M 0 0 " />
</clipPath>
</defs>
<g id="surface1">
<path style=" stroke:none;fill-rule:evenodd;fill:#004394;fill-opacity:1;" d="M 67.421875 2.65625 C 31.652344 2.65625 2.660156 31.652344 2.660156 67.417969 C 2.660156 103.1875 31.652344 132.179688 67.421875 132.179688 C 103.1875 132.179688 132.183594 103.1875 132.183594 67.417969 C 132.183594 31.652344 103.1875 2.65625 67.421875 2.65625 Z M 66.839844 114.925781 C 40.921875 114.925781 19.910156 93.917969 19.910156 68 C 19.910156 42.082031 40.921875 21.070313 66.839844 21.070313 C 92.753906 21.070313 113.765625 42.082031 113.765625 68 C 113.765625 93.917969 92.753906 114.925781 66.839844 114.925781 Z M 66.839844 114.925781 " />
<path style=" stroke:none;fill-rule:evenodd;fill:#004394;fill-opacity:1;" d="M 53.582031 66.710938 L 64.714844 74.964844 L 57.433594 86.761719 L 36.730469 90.742188 L 25.589844 82.492188 L 32.875 70.691406 Z M 53.582031 66.710938 " />
<path style=" stroke:none;fill-rule:evenodd;fill:#004394;fill-opacity:1;" d="M 59.414063 78.800781 L 72.132813 73.28125 L 78.707031 85.488281 L 71.800781 105.410156 L 59.085938 110.929688 L 52.511719 98.722656 Z M 59.414063 78.800781 " />
<path style=" stroke:none;fill-rule:evenodd;fill:#004394;fill-opacity:1;" d="M 72.683594 80.050781 L 74.257813 66.277344 L 88.117188 66.6875 L 101.917969 82.625 L 100.339844 96.398438 L 86.480469 95.988281 Z M 72.683594 80.050781 " />
<path style=" stroke:none;fill-rule:evenodd;fill:#004394;fill-opacity:1;" d="M 80.472656 68.941406 L 69.332031 60.6875 L 76.617188 48.886719 L 97.320313 44.90625 L 108.460938 53.160156 L 101.179688 64.957031 Z M 80.472656 68.941406 " />
<path style=" stroke:none;fill-rule:evenodd;fill:#004394;fill-opacity:1;" d="M 71.234375 67.878906 C 71.234375 70.339844 69.238281 72.335938 66.777344 72.335938 C 64.316406 72.335938 62.324219 70.339844 62.324219 67.878906 C 62.324219 65.421875 64.316406 63.425781 66.777344 63.425781 C 69.238281 63.425781 71.234375 65.421875 71.234375 67.878906 Z M 71.234375 67.878906 " />
<path style=" stroke:none;fill-rule:evenodd;fill:rgb(100%,100%,100%);fill-opacity:1;" d="M 53.484375 74.582031 C 54.664063 73.902344 56.175781 74.304688 56.859375 75.488281 C 57.539063 76.671875 57.132813 78.179688 55.953125 78.863281 C 54.773438 79.542969 53.261719 79.140625 52.582031 77.957031 C 51.898438 76.777344 52.304688 75.265625 53.484375 74.582031 Z M 53.484375 74.582031 " />
<path style=" stroke:none;fill-rule:evenodd;fill:rgb(100%,100%,100%);fill-opacity:1;" d="M 65.839844 83.003906 C 65.835938 81.640625 66.945313 80.535156 68.3125 80.535156 C 69.671875 80.535156 70.78125 81.640625 70.78125 83.003906 C 70.78125 84.367188 69.671875 85.472656 68.3125 85.472656 C 66.945313 85.472656 65.839844 84.367188 65.839844 83.003906 Z M 65.839844 83.003906 " />
<path style=" stroke:none;fill-rule:evenodd;fill:rgb(100%,100%,100%);fill-opacity:1;" d="M 79.578125 76.378906 C 78.398438 75.699219 77.996094 74.183594 78.675781 73.003906 C 79.355469 71.824219 80.867188 71.417969 82.050781 72.101563 C 83.230469 72.785156 83.636719 74.292969 82.953125 75.476563 C 82.273438 76.65625 80.757813 77.058594 79.578125 76.378906 Z M 79.578125 76.378906 " />
<path style=" stroke:none;fill-rule:evenodd;fill:rgb(100%,100%,100%);fill-opacity:1;" d="M 80.558594 61.199219 C 79.375 61.882813 77.867188 61.476563 77.183594 60.292969 C 76.503906 59.113281 76.90625 57.601563 78.089844 56.921875 C 79.269531 56.238281 80.78125 56.644531 81.460938 57.824219 C 82.144531 59.003906 81.738281 60.515625 80.558594 61.199219 Z M 80.558594 61.199219 " />
<path style=" stroke:none;fill-rule:evenodd;fill:rgb(100%,100%,100%);fill-opacity:1;" d="M 21.648438 48.574219 L 21.371094 48.464844 L 21.164063 48.335938 L 20.796875 48.054688 L 20.078125 47.765625 L 20.105469 47.675781 L 19.917969 47.625 L 19.875 47.417969 L 19.367188 47.085938 L 19.324219 46.878906 L 19.046875 46.804688 L 19.070313 46.710938 L 18.886719 46.664063 L 18.910156 46.570313 L 18.65625 46.40625 L 18.65625 46.257813 L 18.640625 46.183594 L 18.578125 46.128906 L 18.453125 46.054688 L 18.296875 45.917969 L 18.09375 45.832031 L 17.871094 45.761719 L 17.667969 45.652344 L 17.691406 45.558594 L 17.503906 45.511719 L 17.394531 45.1875 L 17.207031 45.136719 L 17.191406 44.835938 L 17.027344 44.695313 L 17.074219 44.511719 L 16.984375 44.488281 L 17.03125 44.300781 L 16.9375 44.277344 L 17.085938 43.71875 L 16.992188 43.699219 L 17.089844 43.324219 L 16.789063 42.953125 L 16.839844 42.769531 L 16.746094 42.742188 L 16.792969 42.558594 L 16.703125 42.535156 L 16.683594 42.230469 L 16.550781 42.226563 L 16.472656 42.277344 L 16.382813 42.25 L 16.214844 42.898438 L 16.246094 43.070313 L 16.214844 43.289063 L 16.085938 43.757813 L 15.554688 43.519531 L 15.441406 43.195313 L 15.347656 43.167969 L 15.398438 42.980469 L 15.238281 42.839844 L 15.242188 42.449219 L 15.082031 42.308594 L 15.128906 42.121094 L 15.039063 42.097656 L 15.109375 41.820313 L 14.949219 41.679688 L 14.996094 41.496094 L 14.902344 41.46875 L 14.90625 41.074219 L 14.816406 41.050781 L 14.886719 40.773438 L 14.726563 40.632813 L 14.800781 40.355469 L 14.707031 40.328125 L 14.757813 40.144531 L 14.59375 40.003906 L 14.640625 39.820313 L 14.574219 39.738281 L 14.476563 39.6875 L 14.203125 39.605469 L 14.125 39.65625 L 13.996094 39.648438 L 13.867188 39.824219 L 13.722656 39.953125 L 13.457031 40.203125 L 13.359375 40.570313 L 13.265625 40.546875 L 12.871094 42.816406 L 12.039063 42.597656 L 12.0625 42.507813 L 11.785156 42.433594 L 11.808594 42.34375 L 11.355469 42.140625 L 11.09375 42.085938 L 10.882813 42.097656 L 10.859375 42.191406 L 10.558594 42.425781 L 10.367188 42.65625 L 10.253906 42.746094 L 10.105469 42.8125 L 9.894531 42.851563 L 9.597656 42.851563 L 9.398438 43.144531 L 9.21875 43.542969 L 9.3125 43.742188 L 9.375 43.964844 L 9.457031 44.171875 L 9.605469 44.335938 L 9.726563 44.394531 L 9.832031 44.414063 L 10.019531 44.371094 L 10.175781 44.285156 L 10.328125 44.226563 L 10.789063 44.347656 L 11.917969 44.808594 L 12.890625 45.390625 L 12.910156 45.695313 L 13.003906 45.71875 L 12.925781 45.996094 L 13.089844 46.140625 L 13.042969 46.320313 L 13.132813 46.347656 L 13.085938 46.53125 L 13.246094 46.671875 L 13.242188 47.066406 L 13.472656 47.324219 L 13.425781 47.511719 L 13.585938 47.652344 L 13.535156 47.835938 L 13.695313 47.976563 L 13.691406 48.371094 L 13.785156 48.394531 L 13.957031 48.757813 L 13.988281 48.953125 L 13.960938 49.230469 L 13.785156 49.339844 L 13.660156 49.425781 L 13.496094 49.464844 L 13.214844 49.433594 L 13.101563 49.46875 L 12.9375 49.472656 L 12.519531 49.421875 L 11.6875 49.230469 L 11.613281 49.507813 L 11.886719 49.902344 L 12.027344 50.09375 L 12.210938 50.257813 L 12.855469 50.425781 L 14.433594 50.675781 L 15.144531 50.613281 L 15.429688 50.519531 L 15.644531 50.367188 L 15.714844 50.085938 L 15.828125 49.871094 L 15.855469 49.6875 L 15.84375 49.230469 L 15.699219 49.132813 L 15.679688 49.089844 L 15.21875 48.96875 L 15.242188 48.875 L 14.59375 48.707031 L 14.550781 48.496094 L 14.457031 48.472656 L 14.601563 47.914063 L 14.507813 47.890625 L 14.558594 47.707031 L 14.398438 47.566406 L 14.351563 47.34375 L 14.351563 47.121094 L 14.453125 46.59375 L 14.835938 46.539063 L 15.335938 46.625 L 15.507813 46.765625 L 15.789063 46.902344 L 16.398438 47.101563 L 16.246094 48.050781 L 16.15625 48.027344 L 15.992188 48.28125 L 15.898438 48.253906 L 15.863281 48.351563 L 15.878906 48.398438 L 15.914063 48.425781 L 15.941406 48.464844 L 15.917969 48.558594 L 16.472656 48.703125 L 16.65625 48.585938 L 16.820313 48.515625 L 16.96875 48.410156 L 17.109375 48.175781 L 17.019531 48.050781 L 16.988281 47.933594 L 17.066406 47.574219 L 17.320313 47.570313 L 17.644531 47.621094 L 17.714844 47.699219 L 17.8125 47.75 L 18.042969 47.8125 L 18.300781 47.867188 L 18.546875 47.960938 L 19.980469 48.476563 L 21.574219 48.851563 L 21.71875 48.691406 L 21.671875 48.640625 Z M 41.878906 22.984375 L 41.683594 22.894531 L 41.671875 22.703125 L 41.578125 22.710938 L 41.46875 22.429688 L 41.269531 22.34375 L 41.261719 22.152344 L 41.066406 22.066406 L 41.054688 21.875 L 40.859375 21.789063 L 40.851563 21.597656 L 40.65625 21.511719 L 40.644531 21.320313 L 40.453125 21.234375 L 40.335938 20.859375 L 40.140625 20.769531 L 40.128906 20.578125 L 39.933594 20.492188 L 39.820313 20.117188 L 39.625 20.03125 L 39.613281 19.839844 L 39.414063 19.65625 L 39.402344 19.46875 L 39.308594 19.472656 L 39.300781 19.28125 L 39.203125 19.285156 L 39.191406 19.09375 L 38.992188 18.914063 L 38.984375 18.722656 L 38.789063 18.636719 L 38.777344 18.445313 L 38.582031 18.355469 L 38.472656 18.074219 L 38.378906 18.082031 L 38.261719 17.703125 L 38.167969 17.707031 L 38.058594 17.425781 L 37.859375 17.339844 L 37.851563 17.148438 L 37.65625 17.0625 L 37.542969 16.78125 L 37.453125 16.785156 L 37.335938 16.40625 L 37.039063 16.230469 L 37.03125 16.039063 L 36.933594 16.042969 L 36.628906 15.675781 L 36.4375 15.6875 L 35.933594 15.136719 L 35.582031 15.003906 L 35.15625 14.9375 L 34.195313 14.9375 L 34.121094 15.050781 L 34.082031 15.078125 L 34.027344 15.085938 L 33.917969 15.140625 L 33.925781 15.238281 L 33.730469 15.246094 L 33.648438 15.445313 L 33.457031 15.453125 L 33.371094 15.648438 L 33.003906 15.953125 L 32.035156 17.320313 L 31.332031 18.910156 L 31.347656 19.292969 L 31.253906 19.296875 L 31.269531 19.585938 L 31.171875 19.589844 L 31.191406 19.972656 L 31.042969 20.824219 L 31.09375 21.800781 L 31.1875 21.792969 L 31.210938 22.269531 L 31.304688 22.265625 L 31.320313 22.550781 L 31.414063 22.546875 L 31.425781 22.738281 L 31.519531 22.730469 L 31.53125 22.925781 L 31.726563 23.011719 L 31.734375 23.203125 L 31.929688 23.289063 L 32.046875 23.664063 L 32.242188 23.75 L 32.351563 24.03125 L 32.449219 24.027344 L 32.667969 24.59375 L 32.863281 24.679688 L 32.878906 24.964844 L 33.074219 25.050781 L 33.1875 25.429688 L 33.382813 25.515625 L 33.492188 25.796875 L 33.589844 25.789063 L 34.109375 26.878906 L 34.382813 28.238281 L 34.097656 28.257813 L 34.089844 28.160156 L 33.992188 28.0625 L 33.957031 27.988281 L 33.882813 27.789063 L 33.785156 27.792969 L 33.777344 27.601563 L 33.679688 27.605469 L 33.671875 27.414063 L 33.574219 27.417969 L 33.566406 27.230469 L 33.46875 27.234375 L 33.460938 27.042969 L 33.265625 26.957031 L 33.253906 26.671875 L 33.15625 26.675781 L 33.144531 26.484375 L 33.050781 26.488281 L 32.828125 25.925781 L 32.734375 25.929688 L 32.71875 25.640625 L 32.625 25.648438 L 32.496094 24.984375 L 32.300781 24.898438 L 32.078125 24.335938 L 31.882813 24.246094 L 31.875 24.058594 L 31.78125 24.0625 L 31.769531 23.871094 L 31.671875 23.875 L 31.664063 23.683594 L 31.464844 23.503906 L 31.457031 23.3125 L 31.257813 23.226563 L 31.140625 22.753906 L 30.84375 22.578125 L 30.832031 22.386719 L 30.566406 22.078125 L 30.230469 21.839844 L 30.242188 22.03125 L 30.335938 22.027344 L 30.457031 22.5 L 30.550781 22.496094 L 30.566406 22.78125 L 30.761719 22.867188 L 31.089844 23.714844 L 31.1875 23.707031 L 31.300781 24.085938 L 31.398438 24.082031 L 31.511719 24.457031 L 31.609375 24.453125 L 31.621094 24.742188 L 31.71875 24.734375 L 31.9375 25.300781 L 32.03125 25.296875 L 32.042969 25.484375 L 32.136719 25.480469 L 32.148438 25.671875 L 32.242188 25.667969 L 32.253906 25.859375 L 32.347656 25.855469 L 32.355469 26.042969 L 32.453125 26.039063 L 32.464844 26.234375 L 32.558594 26.226563 L 32.777344 26.792969 L 32.875 26.785156 L 32.886719 27.074219 L 32.984375 27.070313 L 33.203125 27.628906 L 33.296875 27.625 L 33.308594 27.816406 L 33.402344 27.8125 L 34.007813 28.96875 L 34.199219 29.226563 L 34.425781 29.4375 L 34.699219 29.585938 L 35.027344 29.648438 L 35.0625 29.585938 L 35.117188 29.546875 L 35.1875 28.96875 L 34.363281 25.945313 L 34.597656 25.988281 L 34.761719 26.066406 L 35.050781 26.296875 L 35.058594 26.390625 L 35.25 26.378906 L 35.355469 26.566406 L 35.835938 26.636719 L 35.839844 26.734375 L 36.226563 26.8125 L 36.230469 26.90625 L 36.613281 26.886719 L 36.617188 26.980469 L 37 26.964844 L 37.007813 27.058594 L 38.917969 26.964844 L 38.910156 26.867188 L 39.386719 26.84375 L 39.386719 26.746094 L 39.949219 26.527344 L 39.941406 26.433594 L 40.320313 26.316406 L 40.40625 26.121094 L 40.695313 26.109375 L 40.871094 25.8125 L 41.246094 25.695313 L 41.332031 25.5 L 41.523438 25.492188 L 41.609375 25.296875 L 41.804688 25.285156 L 41.929688 25.148438 L 42.011719 25.015625 L 42.125 24.890625 L 42.355469 24.78125 L 42.492188 24.414063 L 42.5625 24.246094 L 42.601563 24 L 42.382813 23.78125 L 42.210938 23.527344 Z M 65.707031 5.683594 L 65.609375 5.605469 L 65.535156 5.589844 L 65.410156 5.625 L 65.421875 5.71875 L 65.234375 5.746094 L 65.140625 5.855469 L 65.082031 5.996094 L 65.027344 6.320313 L 65 6.660156 L 64.902344 6.945313 L 64.808594 6.957031 L 64.574219 7.375 L 64.386719 7.398438 L 64.148438 7.816406 L 63.957031 7.839844 L 63.472656 8.578125 L 63.285156 8.601563 L 62.964844 9.125 L 62.777344 9.152344 L 62.625 9.457031 L 62.28125 9.792969 L 62.292969 9.886719 L 62.105469 9.910156 L 61.984375 10.0625 L 61.914063 10.203125 L 61.808594 10.332031 L 61.59375 10.460938 L 61.496094 11 L 61.449219 11.273438 L 61.457031 11.632813 L 61.835938 11.585938 L 61.910156 11.382813 L 62.195313 11.347656 L 62.183594 11.253906 L 64.304688 11.265625 L 64.4375 11.542969 L 64.53125 11.527344 L 64.558594 11.617188 L 64.574219 11.769531 L 64.570313 12.183594 L 64.535156 12.585938 L 64.5 12.785156 L 64.472656 12.960938 L 64.421875 13.066406 L 64.328125 13.140625 L 64.167969 13.214844 L 64.183594 13.308594 L 63.515625 13.394531 L 63.464844 12.246094 L 63.371094 12.257813 L 63.167969 12.535156 L 62.910156 12.796875 L 62.597656 13.015625 L 62.234375 13.175781 L 62.128906 14.132813 L 62.113281 15.214844 L 62.367188 15.253906 L 62.695313 15.238281 L 62.773438 15.09375 L 62.957031 15.011719 L 62.929688 14.820313 L 63.207031 14.691406 L 63.273438 14.488281 L 63.460938 14.464844 L 63.8125 14.199219 L 64.027344 14.117188 L 64.375 14.054688 L 64.773438 15.644531 L 65.125 15.835938 L 65.3125 15.90625 L 65.582031 15.925781 L 65.671875 15.792969 L 65.746094 15.710938 L 65.722656 15.523438 L 65.816406 15.511719 L 65.429688 13.246094 L 65.523438 13.234375 L 65.558594 12.746094 L 66.0625 12.199219 L 66.039063 12.007813 L 66.136719 11.996094 L 66.21875 11.859375 L 66.394531 11.769531 L 66.328125 11.445313 L 66.226563 11.214844 L 66.046875 11.390625 L 65.914063 11.558594 L 65.742188 11.695313 L 65.433594 11.796875 L 65.484375 11.386719 L 65.625 11.085938 L 65.832031 10.871094 L 66.070313 10.699219 L 66.523438 10.386719 L 66.667969 10.175781 L 66.730469 9.894531 L 66.433594 9.835938 L 66.421875 9.742188 L 66.136719 9.777344 L 66.019531 9.601563 L 65.730469 9.429688 L 65.5625 9.398438 L 65.316406 9.402344 L 64.957031 10.316406 L 64.761719 10.339844 L 64.777344 10.433594 L 64.695313 10.488281 L 64.671875 10.480469 L 64.664063 10.472656 L 64.652344 10.480469 L 64.597656 10.554688 L 63.683594 10.59375 L 62.863281 10.585938 L 62.828125 10.300781 L 63.089844 10.074219 L 63.074219 9.980469 L 63.265625 9.953125 L 63.382813 9.804688 L 63.457031 9.664063 L 63.5625 9.53125 L 63.777344 9.40625 L 63.75 9.21875 L 64.023438 9.085938 L 64.175781 8.777344 L 64.269531 8.765625 L 64.339844 8.5625 L 64.53125 8.539063 L 64.601563 8.335938 L 64.871094 8.203125 L 64.863281 8.109375 L 65.132813 7.976563 L 65.179688 7.789063 L 65.296875 7.5625 L 65.347656 7.371094 L 65.617188 7.238281 L 65.605469 7.144531 L 65.796875 7.121094 L 65.785156 7.027344 L 66.148438 6.882813 L 66.136719 6.785156 L 66.613281 6.726563 L 66.601563 6.632813 L 66.660156 6.558594 L 66.667969 6.429688 L 66.425781 6.238281 L 66.242188 6.007813 L 66.035156 5.804688 L 65.894531 5.730469 Z M 71.25 9.792969 L 71.347656 9.78125 L 71.273438 9.210938 L 71.367188 9.199219 L 71.320313 8.820313 L 71.414063 8.808594 L 71.367188 8.425781 L 71.457031 8.414063 L 71.410156 8.035156 L 71.527344 7.601563 L 71.546875 7.328125 L 71.480469 7.0625 L 71.382813 7.074219 L 71.359375 6.886719 L 71.046875 6.730469 L 70.867188 6.078125 L 70.609375 6.148438 L 70.4375 6.234375 L 70.148438 6.460938 L 69.957031 6.488281 L 69.96875 6.582031 L 69.683594 6.621094 L 69.386719 7.328125 L 68.914063 7.390625 L 68.800781 7.273438 L 68.605469 7.238281 L 68.582031 7.050781 L 68 7.027344 L 67.964844 7.28125 L 67.980469 7.609375 L 68.148438 7.734375 L 68.257813 7.914063 L 68.375 8.425781 L 68.28125 8.4375 L 68.253906 8.542969 L 68.265625 8.644531 L 68.273438 8.742188 L 68.230469 8.832031 L 68.042969 8.855469 L 67.972656 9.058594 L 67.714844 9.285156 L 67.808594 10.042969 L 67.886719 10.167969 L 67.976563 10.410156 L 68.039063 10.675781 L 68.039063 10.792969 L 68.015625 10.886719 L 67.921875 10.898438 L 67.816406 11.183594 L 67.617188 11.496094 L 67.203125 12.050781 L 67.023438 12.171875 L 67.050781 12.359375 L 66.957031 12.375 L 66.980469 12.5625 L 66.886719 12.574219 L 66.910156 12.765625 L 66.757813 13.320313 L 66.777344 13.574219 L 66.863281 13.925781 L 67.222656 13.84375 L 67.449219 13.726563 L 67.859375 13.414063 L 67.847656 13.320313 L 68.417969 13.246094 L 68.40625 13.148438 L 68.78125 12.929688 L 69 12.8125 L 69.125 12.765625 L 69.140625 12.863281 L 69.234375 12.847656 L 69.320313 13.515625 L 69.261719 13.632813 L 69.238281 13.761719 L 69.25 14.050781 L 69.285156 14.359375 L 69.277344 14.679688 L 69.183594 14.691406 L 69.257813 15.257813 L 69.246094 18.925781 L 69.34375 18.914063 L 69.316406 18.722656 L 69.449219 18.492188 L 69.496094 18.261719 L 69.574219 17.726563 L 69.667969 17.714844 L 69.714844 17.320313 L 69.808594 17.308594 L 69.785156 17.117188 L 69.878906 17.105469 L 69.839844 16.824219 L 69.9375 16.808594 L 69.914063 16.621094 L 70.007813 16.609375 L 70.039063 16.121094 L 70.136719 16.109375 L 70.3125 15.21875 L 70.40625 15.207031 L 70.464844 14.910156 L 70.640625 14.789063 L 70.605469 14.503906 L 70.699219 14.492188 L 70.917969 12.441406 L 71.808594 11.964844 L 71.988281 11.785156 L 72.097656 11.601563 L 72.121094 11.507813 L 72.117188 11.414063 L 72.085938 11.324219 L 72.015625 11.238281 L 71.925781 11.0625 L 71.800781 10.910156 L 71.527344 10.617188 L 71.300781 10.269531 L 71.246094 10.054688 Z M 94.933594 24.015625 L 94.742188 24.027344 L 94.734375 23.929688 L 94.421875 23.667969 L 94.253906 23.5625 L 94.042969 23.484375 L 94.035156 23.292969 L 93.785156 23.203125 L 93.601563 23.066406 L 93.328125 22.660156 L 93.234375 22.664063 L 93.214844 22.546875 L 93.25 22.453125 L 93.316406 22.375 L 93.308594 22.257813 L 93.277344 22.171875 L 93.222656 22.109375 L 93.148438 22.066406 L 92.957031 22.027344 L 92.722656 22.019531 L 92.726563 22.113281 L 92.253906 22.234375 L 92.199219 22.484375 L 92.191406 22.8125 L 92.785156 23.261719 L 92.792969 23.355469 L 92.980469 23.347656 L 93.691406 24.078125 L 93.878906 24.070313 L 94.085938 24.34375 L 94.277344 24.335938 L 94.382813 24.519531 L 94.574219 24.511719 L 94.777344 24.789063 L 94.96875 24.78125 L 95.175781 25.054688 L 95.367188 25.046875 L 95.472656 25.234375 L 95.761719 25.3125 L 95.742188 25.441406 L 95.675781 25.511719 L 95.566406 25.796875 L 95.359375 26.042969 L 95.082031 26.226563 L 94.757813 26.324219 L 94.757813 26.226563 L 94.371094 26.246094 L 94.367188 26.148438 L 93.980469 26.074219 L 93.976563 25.976563 L 93.785156 25.988281 L 93.480469 25.621094 L 93.289063 25.632813 L 93.179688 25.347656 L 92.582031 24.898438 L 92.574219 24.707031 L 91.972656 24.257813 L 92.011719 25.023438 L 92.140625 25.144531 L 92.230469 25.28125 L 92.421875 25.578125 L 92.820313 25.847656 L 92.828125 26.035156 L 94.027344 26.933594 L 95.167969 26.78125 L 95.160156 26.683594 L 95.539063 26.570313 L 95.535156 26.476563 L 95.820313 26.460938 L 95.90625 26.265625 L 96.09375 26.257813 L 96.09375 26.160156 L 96.28125 26.152344 L 96.28125 26.054688 L 96.433594 25.976563 L 96.65625 25.941406 L 97.503906 26.605469 L 98.625 26.992188 L 98.601563 26.515625 L 98.109375 26.25 L 98.097656 26.0625 L 97.984375 25.824219 L 97.792969 25.691406 L 97.789063 25.597656 L 97.214844 25.625 L 97.191406 25.589844 L 97.019531 25.539063 L 96.953125 25.265625 L 96.945313 25.128906 L 96.988281 24.964844 L 97.175781 24.859375 L 97.167969 24.671875 L 97.261719 24.664063 L 97.25 24.378906 L 97.34375 24.375 L 97.316406 23.800781 L 97.410156 23.796875 L 97.546875 23.425781 L 97.652344 23.296875 L 97.863281 23.199219 L 97.855469 23.105469 L 98.519531 22.976563 L 98.515625 22.878906 L 98.707031 22.867188 L 98.699219 22.773438 L 98.984375 22.664063 L 98.972656 22.472656 L 99.164063 22.460938 L 99.226563 22.050781 L 99.222656 21.863281 L 99.125 21.699219 L 99.117188 21.507813 L 99.019531 21.515625 L 98.515625 20.964844 L 98.324219 20.972656 L 98.3125 20.78125 L 98.011719 20.730469 L 97.746094 20.640625 L 97.246094 20.453125 L 97.007813 20.429688 L 96.777344 20.472656 L 96.390625 20.589844 L 96.320313 21.074219 L 96.609375 21.15625 L 96.613281 21.25 L 96.902344 21.234375 L 97.308594 21.695313 L 97.503906 21.78125 L 97.558594 21.882813 L 97.582031 21.964844 L 97.613281 22.050781 L 97.714844 22.152344 L 97.734375 22.535156 L 96.929688 22.972656 L 96.46875 23.277344 L 96.246094 23.472656 L 96.261719 23.761719 L 96.464844 23.8125 L 96.582031 23.90625 L 96.640625 24.0625 L 96.671875 24.3125 L 96.542969 24.417969 L 96.496094 24.605469 L 96.003906 24.566406 L 95.609375 24.425781 Z M 100.074219 13.796875 L 100.074219 13.890625 L 99.835938 14.003906 L 99.570313 14.195313 L 99.050781 14.738281 L 98.636719 15.378906 L 98.511719 15.695313 L 98.457031 15.984375 L 98.550781 15.980469 L 98.570313 16.363281 L 98.742188 16.585938 L 98.960938 16.691406 L 99.253906 16.710938 L 99.640625 16.691406 L 100.191406 16.1875 L 100.359375 13.78125 Z M 104.277344 17.417969 L 103.890625 17.339844 L 103.882813 17.246094 L 103.503906 17.265625 L 103.496094 17.167969 L 103.304688 17.179688 L 103.296875 17.085938 L 103.011719 17.097656 L 103.007813 17.003906 L 102.71875 16.921875 L 102.710938 16.730469 L 102.511719 16.644531 L 102.472656 15.878906 L 101.90625 16.003906 L 101.839844 16.222656 L 101.734375 16.394531 L 101.636719 16.402344 L 101.574219 16.6875 L 101.566406 17.066406 L 101.613281 17.839844 L 102 17.820313 L 101.992188 17.722656 L 103.203125 17.621094 L 104.285156 17.609375 Z M 105.363281 18.128906 L 105.023438 17.953125 L 104.769531 17.683594 L 104.714844 17.722656 L 104.675781 17.78125 L 104.558594 17.941406 L 104.503906 18.171875 L 104.3125 18.183594 L 104.324219 18.375 L 103.933594 18.535156 L 103.570313 18.699219 L 103.160156 18.757813 L 102.660156 18.730469 L 101.84375 18.59375 L 100.5 18.566406 L 100.496094 18.46875 L 100.019531 18.492188 L 100.015625 18.398438 L 99.148438 18.347656 L 99.144531 18.25 L 98.777344 18.210938 L 98.390625 18.238281 L 98.019531 18.261719 L 97.710938 18.226563 L 97.679688 17.652344 L 97.585938 17.65625 L 97.582031 17.5625 L 97.101563 17.585938 L 97.105469 17.683594 L 97.011719 17.722656 L 96.917969 17.730469 L 96.742188 17.6875 L 96.578125 17.625 L 96.503906 17.609375 L 96.429688 17.621094 L 96.347656 17.816406 L 96.15625 17.824219 L 96.09375 18.046875 L 95.980469 18.214844 L 95.890625 18.222656 L 95.894531 18.414063 L 95.710938 18.515625 L 95.722656 18.707031 L 95.445313 18.914063 L 95.0625 19.484375 L 94.910156 19.835938 L 94.835938 20.1875 L 95.070313 20.3125 L 95.421875 20.351563 L 95.574219 20.210938 L 95.75 20.144531 L 96.167969 20.027344 L 96.164063 19.929688 L 96.546875 19.914063 L 97.933594 18.980469 L 99.179688 18.917969 L 99.183594 19.015625 L 99.757813 18.984375 L 99.761719 19.082031 L 100.046875 19.066406 L 100.050781 19.160156 L 100.339844 19.144531 L 100.34375 19.242188 L 100.628906 19.230469 L 100.734375 19.414063 L 101.023438 19.402344 L 101.027344 19.496094 L 101.324219 19.671875 L 101.332031 19.863281 L 101.527344 19.949219 L 101.558594 20.523438 L 101.480469 20.679688 L 101.433594 20.910156 L 101.410156 21.394531 L 101.042969 21.699219 L 101.050781 21.886719 L 100.773438 22.097656 L 100.777344 22.191406 L 100.492188 22.203125 L 100.390625 22.09375 L 100.277344 22.042969 L 99.910156 22.042969 L 99.929688 22.519531 L 100.320313 22.597656 L 100.324219 22.691406 L 100.65625 22.71875 L 100.945313 22.648438 L 101.460938 22.445313 L 101.492188 22.296875 L 101.523438 22.226563 L 101.59375 22.1875 L 101.734375 22.144531 L 101.816406 21.898438 L 101.941406 21.710938 L 102.175781 21.355469 L 102.289063 20.890625 L 102.296875 20.414063 L 102.175781 19.441406 L 103.996094 19.445313 L 103.996094 19.539063 L 104.191406 19.53125 L 104.195313 19.625 L 104.453125 19.722656 L 104.664063 19.75 L 105.152344 19.671875 L 105.230469 19.285156 L 105.324219 19.28125 L 105.277344 18.324219 L 105.371094 18.320313 Z M 119.816406 37.367188 L 119.726563 37.402344 L 119.246094 36.253906 L 118.777344 36.273438 L 118.199219 36.484375 L 118.273438 36.660156 L 118.097656 36.734375 L 118.0625 36.976563 L 117.980469 37.199219 L 118.21875 37.5 L 118.453125 37.832031 L 118.070313 38.40625 L 117.894531 38.480469 L 117.878906 38.695313 L 117.613281 38.804688 L 117.601563 39.015625 L 117.421875 39.089844 L 117.460938 39.179688 L 116.578125 39.550781 L 116.445313 38.980469 L 116.535156 38.945313 L 116.460938 38.652344 L 116.308594 38.371094 L 116.003906 37.921875 L 115.644531 37.851563 L 115.460938 37.867188 L 115.1875 37.953125 L 114.996094 37.925781 L 114.816406 37.964844 L 114.40625 38.070313 L 114.367188 37.984375 L 113.925781 38.167969 L 113.890625 38.078125 L 113.359375 38.300781 L 113.324219 38.210938 L 112.792969 38.433594 L 112.757813 38.34375 L 111.785156 38.75 L 111.351563 38.730469 L 111.089844 38.746094 L 110.882813 38.816406 L 110.632813 39.074219 L 110.375 39.339844 L 110.449219 39.519531 L 110.273438 39.589844 L 110.152344 40.054688 L 109.980469 40.128906 L 109.859375 40.59375 L 109.683594 40.667969 L 109.628906 40.886719 L 109.566406 41.132813 L 110.023438 41.976563 L 110.71875 41.894531 L 110.679688 41.804688 L 111.738281 41.363281 L 112.917969 41.226563 L 113.609375 41.054688 L 113.921875 40.925781 L 114.179688 40.757813 L 114.144531 40.667969 L 114.5 40.519531 L 114.457031 40.433594 L 114.636719 40.359375 L 114.597656 40.269531 L 114.863281 40.160156 L 114.828125 40.074219 L 115.53125 39.777344 L 115.652344 39.3125 L 115.914063 39.203125 L 115.878906 39.113281 L 115.96875 39.078125 L 116.003906 39.167969 L 116.089844 39.128906 L 116.058594 39.214844 L 115.953125 39.292969 L 115.988281 39.664063 L 115.945313 40.019531 L 115.757813 40.308594 L 115.902344 40.660156 L 116.0625 40.699219 L 116.1875 40.851563 L 116.492188 40.828125 L 116.527344 40.917969 L 116.703125 40.84375 L 116.742188 40.933594 L 116.972656 40.894531 L 117.1875 40.8125 L 117.558594 40.5625 L 118.128906 40.039063 L 118.125 39.851563 L 118.160156 39.683594 L 118.308594 39.378906 L 118.496094 39.09375 L 118.644531 38.789063 L 119.351563 38.492188 L 119.390625 38.582031 L 119.613281 38.542969 L 119.804688 38.472656 L 119.957031 38.359375 L 120.058594 38.195313 L 120.109375 37.988281 L 120.078125 37.769531 L 119.972656 37.558594 Z M 122.976563 44.441406 L 122.890625 44.476563 L 122.78125 44.214844 L 122.691406 44.25 L 122.578125 43.988281 L 122.492188 44.023438 L 122.21875 43.621094 L 122.003906 43.605469 L 121.929688 43.425781 L 121.71875 43.414063 L 121.644531 43.234375 L 121.433594 43.222656 L 121.195313 42.90625 L 120.984375 42.890625 L 120.746094 42.574219 L 120.53125 42.558594 L 120.460938 42.382813 L 120.242188 42.371094 L 120.046875 42.140625 L 119.957031 42.179688 L 119.722656 42.050781 L 119.511719 41.847656 L 120.039063 41.628906 L 120.078125 41.714844 L 120.339844 41.605469 L 120.378906 41.691406 L 120.921875 41.257813 L 120.898438 40.957031 L 119.792969 40.792969 L 119.53125 40.90625 L 119.492188 40.816406 L 119.316406 40.894531 L 119.28125 40.800781 L 118.714844 40.9375 L 118.675781 40.847656 L 118.433594 40.902344 L 118.171875 41.015625 L 117.664063 41.355469 L 117.265625 41.734375 L 117.144531 41.898438 L 117.097656 42.027344 L 117.316406 42.554688 L 117.46875 42.609375 L 117.570313 42.660156 L 117.742188 42.585938 L 117.78125 42.675781 L 117.976563 42.632813 L 118.160156 42.550781 L 118.339844 42.480469 L 118.523438 42.464844 L 118.5625 42.554688 L 118.882813 42.660156 L 119.042969 42.691406 L 119.238281 42.6875 L 119.3125 42.863281 L 120.148438 43.132813 L 120.226563 43.3125 L 120.5625 43.378906 L 120.636719 43.554688 L 120.976563 43.621094 L 121.050781 43.796875 L 121.261719 43.8125 L 121.5 44.128906 L 121.710938 44.140625 L 122.011719 44.40625 L 122.152344 44.527344 L 122.324219 44.613281 L 122.34375 44.738281 L 122.308594 44.824219 L 122.171875 45.097656 L 121.953125 45.296875 L 121.675781 45.441406 L 121.359375 45.535156 L 121.285156 45.355469 L 121.050781 45.285156 L 120.851563 45.167969 L 120.460938 44.871094 L 120.125 44.808594 L 120.046875 44.628906 L 119.710938 44.5625 L 119.511719 44.335938 L 119.296875 44.320313 L 119.113281 43.878906 L 118.996094 43.769531 L 118.863281 43.578125 L 118.757813 43.34375 L 118.695313 43.121094 L 118.78125 43.085938 L 118.511719 42.683594 L 118.242188 42.789063 L 118.25 43.160156 L 118.238281 43.519531 L 117.796875 43.703125 L 117.261719 43.410156 L 116.867188 43.472656 L 116.832031 43.382813 L 116.613281 43.4375 L 116.390625 43.550781 L 116.074219 43.800781 L 116.007813 44.140625 L 115.566406 44.324219 L 115.347656 44.199219 L 115.101563 44.121094 L 114.566406 44.085938 L 113.328125 44.433594 L 113.367188 44.519531 L 113.277344 44.558594 L 113.355469 44.660156 L 113.441406 44.695313 L 113.660156 44.949219 L 113.957031 45.179688 L 114.695313 45.574219 L 115.492188 45.808594 L 115.867188 45.851563 L 116.195313 45.828125 L 116.269531 46.003906 L 115.652344 46.261719 L 115.613281 46.171875 L 114.960938 46.28125 L 114.566406 46.382813 L 114.300781 46.511719 L 114.34375 46.601563 L 114.074219 46.710938 L 114.117188 46.796875 L 113.9375 46.871094 L 113.972656 46.960938 L 113.707031 47.070313 L 113.746094 47.160156 L 113.570313 47.234375 L 113.605469 47.320313 L 113.429688 47.5 L 113.316406 47.59375 L 113.292969 47.648438 L 113.296875 47.730469 L 113.386719 48.035156 L 113.472656 48 L 113.585938 48.265625 L 113.796875 48.277344 L 113.871094 48.457031 L 114.085938 48.472656 L 114.359375 48.875 L 114.445313 48.835938 L 114.886719 49.898438 L 114.800781 49.933594 L 115.257813 50.78125 L 115.488281 50.8125 L 115.773438 50.769531 L 115.804688 50.683594 L 115.910156 50.609375 L 115.921875 50.214844 L 115.882813 49.792969 L 116.464844 49.445313 L 116.425781 49.359375 L 116.574219 49.234375 L 116.644531 49.121094 L 116.648438 48.976563 L 116.59375 48.769531 L 116.507813 48.804688 L 116.46875 48.71875 L 115.460938 49.035156 L 115.261719 48.808594 L 115.175781 48.84375 L 114.839844 48.050781 L 114.753906 48.085938 L 114.445313 47.59375 L 114.601563 47.21875 L 115.835938 46.703125 L 115.871094 46.789063 L 116.3125 46.605469 L 116.347656 46.695313 L 116.792969 46.507813 L 116.753906 46.421875 L 117.015625 46.308594 L 116.980469 46.222656 L 117.179688 46.074219 L 117.390625 45.976563 L 117.609375 45.941406 L 117.8125 45.976563 L 117.941406 46.042969 L 118.003906 46.105469 L 118.050781 46.179688 L 118.136719 46.257813 L 118.226563 46.21875 L 118.640625 46.464844 L 118.742188 46.390625 L 118.78125 46.300781 L 118.925781 46.179688 L 118.996094 46.0625 L 119 45.921875 L 118.945313 45.710938 L 118.523438 45.5 L 118.121094 45.226563 L 118.046875 45.050781 L 117.960938 45.085938 L 117.847656 44.824219 L 117.636719 44.808594 L 117.5625 44.632813 L 117.347656 44.617188 L 117.199219 44.511719 L 117.082031 44.378906 L 116.875 43.984375 L 117.039063 43.847656 L 117.28125 43.710938 L 117.605469 43.992188 L 117.820313 44.007813 L 117.890625 44.183594 L 118.105469 44.199219 L 118.902344 45.109375 L 119.28125 45.09375 L 119.628906 45.117188 L 119.703125 45.292969 L 119.914063 45.308594 L 119.992188 45.484375 L 120.332031 45.550781 L 120.40625 45.722656 L 120.867188 45.84375 L 121.070313 45.992188 L 121.222656 46.109375 L 121.40625 46.160156 L 121.707031 46.113281 L 121.929688 46.089844 L 122.320313 45.980469 L 122.722656 45.832031 L 122.980469 45.6875 L 122.941406 45.597656 L 123.03125 45.507813 L 123.082031 45.480469 L 123.105469 45.441406 L 123.132813 45.3125 L 123.164063 45.148438 L 123.15625 44.914063 L 123.09375 44.65625 Z M 123.238281 40.601563 L 123.214844 40.871094 L 123.15625 41.042969 L 122.84375 41.386719 L 122.878906 41.476563 L 122.785156 41.53125 L 122.683594 41.554688 L 122.46875 41.5625 L 122.261719 41.613281 L 122.167969 41.6875 L 122.085938 41.808594 L 121.996094 41.847656 L 122.144531 42.195313 L 122.339844 42.230469 L 122.566406 42.226563 L 122.78125 42.527344 L 123.035156 42.773438 L 123.335938 42.917969 L 123.503906 42.933594 L 123.683594 42.90625 L 123.773438 42.726563 L 123.960938 42.578125 L 123.9375 42.277344 L 124.027344 42.242188 L 123.953125 42.0625 L 124.039063 42.027344 L 123.710938 41.234375 L 123.796875 41.195313 L 123.628906 40.542969 L 123.457031 40.546875 Z M 69.207031 11.890625 L 69.21875 11.984375 L 69.074219 12.03125 L 68.941406 12.011719 L 68.820313 11.964844 L 68.734375 11.949219 L 68.746094 12.042969 L 68.382813 12.265625 L 68.246094 12.351563 L 68.023438 12.425781 L 68.066406 12.179688 L 68.15625 11.972656 L 68.398438 11.609375 L 68.574219 11.488281 L 68.550781 11.296875 L 68.808594 11.070313 L 69.292969 10.335938 L 69.210938 9.988281 L 69.097656 9.75 L 68.972656 9.527344 L 68.863281 9.230469 L 69.101563 8.859375 L 69.242188 8.410156 L 69.523438 8.375 L 69.554688 9.714844 L 69.371094 10.902344 L 69.351563 11.207031 L 69.378906 11.457031 L 69.355469 11.675781 L 69.304688 11.78125 Z M 37.488281 23.296875 L 37.652344 23.824219 L 37.671875 24.0625 L 37.640625 24.441406 L 37.316406 24.683594 L 37.140625 24.789063 L 36.894531 24.859375 L 37.039063 24.066406 L 37.171875 23.652344 L 37.300781 23.402344 L 37.363281 23.332031 Z M 41.371094 24.253906 L 40.90625 24.660156 L 40.914063 24.753906 L 40.722656 24.765625 L 40.453125 25.160156 L 40.265625 25.171875 L 40.179688 25.367188 L 39.894531 25.476563 L 39.628906 25.875 L 38.578125 26.378906 L 37.171875 26.570313 L 37.042969 26.378906 L 36.957031 26.101563 L 37.40625 25.503906 L 37.691406 25.394531 L 37.867188 25.097656 L 38.226563 24.871094 L 38.546875 24.671875 L 38.671875 24.550781 L 38.773438 24.386719 L 38.835938 24.175781 L 38.859375 23.898438 L 38.585938 23.644531 L 38.355469 23.347656 L 38.34375 23.15625 L 38.148438 23.074219 L 38.136719 22.878906 L 38.042969 22.886719 L 38.03125 22.695313 L 37.9375 22.699219 L 37.925781 22.507813 L 37.832031 22.515625 L 37.792969 21.75 L 37.902344 21.664063 L 37.921875 21.613281 L 37.921875 21.554688 L 37.972656 21.453125 L 38.246094 21.25 L 38.339844 21.042969 L 38.386719 20.824219 L 38.390625 20.285156 L 38.226563 20.230469 L 38.003906 20.207031 L 38.007813 20.300781 L 37.625 20.320313 L 37.4375 20.394531 L 37.277344 20.496094 L 37.152344 20.640625 L 37.074219 20.828125 L 36.980469 20.832031 L 37.03125 20.964844 L 37.09375 21.210938 L 36.875 21.253906 L 36.71875 21.324219 L 37.058594 22.363281 L 36.960938 22.515625 L 36.863281 22.734375 L 36.777344 22.9375 L 36.710938 23.050781 L 36.519531 23.058594 L 36.523438 23.152344 L 36.238281 23.167969 L 36.160156 22.96875 L 36.113281 22.695313 L 36.265625 22.511719 L 36.339844 22.257813 L 36.351563 21.628906 L 36.253906 21.632813 L 36.238281 21.347656 L 36.046875 21.261719 L 36.035156 21.070313 L 35.839844 20.984375 L 35.433594 20.523438 L 35.046875 20.449219 L 34.941406 20.261719 L 34.75 20.273438 L 34.640625 19.988281 L 34.34375 19.8125 L 34.320313 19.335938 L 34.238281 19.273438 L 34.121094 19.15625 L 33.777344 19.296875 L 33.464844 19.472656 L 33.472656 19.570313 L 32.121094 19.449219 L 32.085938 18.683594 L 32.179688 18.675781 L 32.171875 18.484375 L 32.265625 18.484375 L 32.25 18.195313 L 32.4375 18.089844 L 32.515625 17.703125 L 32.703125 17.597656 L 32.691406 17.40625 L 32.878906 17.300781 L 32.871094 17.109375 L 33.144531 16.902344 L 33.136719 16.710938 L 33.320313 16.609375 L 33.765625 15.917969 L 34.238281 15.796875 L 34.234375 15.703125 L 35.382813 15.644531 L 37.074219 16.898438 L 37.082031 17.089844 L 37.378906 17.269531 L 37.390625 17.457031 L 37.582031 17.546875 L 37.589844 17.738281 L 37.789063 17.820313 L 37.800781 18.011719 L 38 18.195313 L 38.007813 18.386719 L 38.105469 18.382813 L 38.117188 18.570313 L 38.210938 18.566406 L 38.21875 18.757813 L 38.417969 18.941406 L 38.429688 19.132813 L 38.625 19.21875 L 38.742188 19.59375 L 38.9375 19.683594 L 39.050781 20.058594 L 39.246094 20.144531 L 39.464844 20.707031 L 39.660156 20.792969 L 39.882813 21.359375 L 40.078125 21.441406 L 40.191406 21.820313 L 40.390625 21.90625 L 40.398438 22.097656 L 40.492188 22.09375 L 40.503906 22.285156 L 40.699219 22.371094 L 40.707031 22.5625 L 40.902344 22.648438 L 41.019531 23.023438 L 41.113281 23.019531 L 41.371094 23.445313 L 41.542969 23.957031 L 41.4375 24.042969 L 41.417969 24.097656 L 41.414063 24.152344 Z M 36.007813 18.582031 L 35.761719 18.457031 L 35.414063 18.386719 L 34.65625 18.359375 L 35.007813 19.6875 L 35.96875 19.734375 L 36.136719 19.527344 L 36.25 19.4375 L 36.289063 19.375 L 36.308594 19.273438 L 36.308594 18.855469 L 36.164063 18.714844 Z M 35.496094 21.769531 L 35.589844 21.765625 L 35.640625 21.933594 L 35.671875 22.230469 L 35.675781 22.527344 L 35.640625 22.71875 L 35.542969 22.722656 L 35.546875 22.820313 L 35.261719 22.832031 L 35.132813 22.722656 L 35.027344 22.65625 L 34.941406 22.566406 L 34.855469 22.375 L 34.953125 22.210938 L 35.03125 21.988281 L 35.101563 21.5 L 35.347656 21.585938 Z M 34.21875 21.066406 L 34.191406 20.589844 L 34.519531 20.640625 L 34.777344 20.753906 L 34.738281 20.8125 L 34.683594 20.851563 L 34.597656 20.945313 L 34.503906 21.003906 Z M 35.027344 23.902344 L 34.835938 24.03125 L 34.558594 24.113281 L 34.472656 23.828125 L 34.433594 23.449219 L 34.90625 23.425781 L 34.984375 23.625 Z M 32.265625 20.394531 L 32.273438 20.492188 L 32.175781 20.496094 L 32.144531 20.964844 L 32.160156 21.152344 L 32.21875 21.359375 L 32.691406 21.234375 L 32.996094 21.609375 L 33.089844 21.605469 L 33.101563 21.792969 L 33.199219 21.789063 L 33.289063 21.933594 L 33.40625 22.066406 L 33.320313 22.25 L 33.203125 22.429688 L 33.125 22.621094 L 33.125 22.726563 L 33.15625 22.84375 L 33.351563 22.929688 L 33.359375 23.121094 L 33.84375 23.191406 L 33.851563 23.382813 L 34.066406 23.472656 L 34.167969 23.597656 L 34.1875 23.75 L 34.152344 23.925781 L 34.050781 24.316406 L 34.046875 24.515625 L 34.109375 24.710938 L 34.207031 24.707031 L 34.3125 24.800781 L 34.382813 24.84375 L 34.445313 24.90625 L 34.511719 25.074219 L 35.460938 24.929688 L 35.601563 24.664063 L 35.621094 24.253906 L 35.714844 24.25 L 35.695313 23.867188 L 36.007813 23.746094 L 36.355469 23.640625 L 36.421875 24.007813 L 36.410156 24.21875 L 36.21875 24.703125 L 36.230469 24.988281 L 36.136719 24.996094 L 36.148438 25.28125 L 36.054688 25.285156 L 36.203125 26.332031 L 35.933594 26.3125 L 35.75 26.253906 L 35.425781 26.082031 L 35.039063 26.007813 L 35.03125 25.910156 L 34.742188 25.832031 L 34.636719 25.644531 L 34.445313 25.652344 L 33.636719 24.832031 L 33.140625 24.472656 L 33.128906 24.28125 L 32.332031 23.652344 L 32.324219 23.460938 L 32.230469 23.464844 L 32.136719 23.320313 L 32.023438 23.1875 L 32.03125 21.464844 L 31.9375 21.464844 L 31.921875 21.183594 L 31.828125 21.183594 L 31.769531 20.039063 L 31.941406 20.082031 L 32.046875 20.136719 L 32.113281 20.238281 L 32.171875 20.402344 Z M 14.601563 43.765625 L 13.722656 43.335938 L 13.746094 43.242188 L 13.496094 43.078125 L 13.625 41.828125 L 13.691406 41.804688 L 13.742188 41.757813 L 13.859375 41.816406 L 13.902344 41.898438 L 14.082031 42.035156 L 14.175781 42.167969 L 14.273438 42.300781 L 14.453125 42.441406 L 14.507813 42.75 L 14.621094 43.003906 L 14.714844 43.289063 L 14.71875 43.695313 L 14.652344 43.714844 Z M 14.601563 43.765625 " />
<path style=" stroke:none;fill-rule:evenodd;fill:#004394;fill-opacity:1;" d="M 74.652344 56.683594 L 61.9375 62.203125 L 55.359375 49.996094 L 62.261719 30.074219 L 74.980469 24.554688 L 81.554688 36.761719 Z M 74.652344 56.683594 " />
<path style=" stroke:none;fill-rule:evenodd;fill:#004394;fill-opacity:1;" d="M 61.203125 55.640625 L 59.625 69.414063 L 45.765625 69.007813 L 31.96875 53.066406 L 33.542969 39.292969 L 47.402344 39.703125 Z M 61.203125 55.640625 " />
<path style=" stroke:none;fill-rule:evenodd;fill:rgb(100%,100%,100%);fill-opacity:1;" d="M 54.464844 59.539063 C 55.644531 60.21875 56.050781 61.730469 55.367188 62.914063 C 54.683594 64.09375 53.175781 64.5 51.992188 63.816406 C 50.808594 63.132813 50.40625 61.625 51.089844 60.441406 C 51.773438 59.261719 53.28125 58.855469 54.464844 59.539063 Z M 54.464844 59.539063 " />
<path style=" stroke:none;fill-rule:evenodd;fill:rgb(100%,100%,100%);fill-opacity:1;" d="M 67.796875 53.183594 C 67.796875 54.546875 66.691406 55.652344 65.328125 55.652344 C 63.964844 55.652344 62.859375 54.546875 62.859375 53.183594 C 62.859375 51.820313 63.964844 50.714844 65.328125 50.714844 C 66.691406 50.714844 67.796875 51.820313 67.796875 53.183594 Z M 67.796875 53.183594 " />
<path style=" stroke:none;fill-rule:evenodd;fill:rgb(100%,100%,100%);fill-opacity:1;" d="M 19.378906 88.605469 L 17.015625 89.371094 L 16.96875 89.230469 C 17.550781 88.921875 17.960938 88.570313 18.195313 88.175781 C 18.429688 87.777344 18.488281 87.394531 18.371094 87.027344 C 18.269531 86.71875 18.054688 86.476563 17.726563 86.300781 C 17.398438 86.125 17.019531 86.039063 16.585938 86.050781 C 16.03125 86.058594 15.441406 86.167969 14.820313 86.367188 C 14.210938 86.566406 13.671875 86.800781 13.207031 87.074219 C 12.742188 87.347656 12.417969 87.644531 12.238281 87.964844 C 12.058594 88.285156 12.027344 88.632813 12.152344 89.011719 C 12.25 89.320313 12.4375 89.574219 12.707031 89.769531 C 12.980469 89.96875 13.390625 90.136719 13.941406 90.273438 L 13.355469 90.464844 C 12.867188 90.316406 12.484375 90.121094 12.207031 89.882813 C 11.933594 89.640625 11.730469 89.320313 11.601563 88.921875 C 11.429688 88.394531 11.425781 87.882813 11.585938 87.378906 C 11.746094 86.878906 12.0625 86.425781 12.539063 86.027344 C 13.011719 85.632813 13.558594 85.332031 14.175781 85.132813 C 14.828125 84.921875 15.484375 84.84375 16.148438 84.902344 C 16.808594 84.957031 17.371094 85.144531 17.828125 85.457031 C 18.285156 85.769531 18.589844 86.160156 18.742188 86.632813 C 18.851563 86.976563 18.867188 87.375 18.785156 87.828125 C 18.734375 88.089844 18.71875 88.25 18.738281 88.3125 C 18.765625 88.390625 18.824219 88.441406 18.921875 88.476563 C 19.019531 88.507813 19.15625 88.503906 19.332031 88.464844 Z M 19.378906 88.605469 " />
<path style=" stroke:none;fill-rule:evenodd;fill:rgb(100%,100%,100%);fill-opacity:1;" d="M 16.546875 91.792969 L 14.527344 92.714844 C 14.191406 92.867188 13.992188 92.976563 13.917969 93.039063 C 13.847656 93.105469 13.800781 93.191406 13.773438 93.296875 C 13.746094 93.402344 13.761719 93.523438 13.820313 93.652344 L 13.894531 93.808594 L 13.714844 93.890625 L 12.589844 91.429688 L 12.769531 91.347656 L 12.839844 91.503906 C 12.902344 91.640625 12.988281 91.734375 13.09375 91.789063 C 13.164063 91.828125 13.261719 91.839844 13.386719 91.820313 C 13.476563 91.8125 13.683594 91.734375 14.011719 91.582031 L 18.300781 89.625 C 18.636719 89.472656 18.839844 89.367188 18.910156 89.300781 C 18.980469 89.238281 19.03125 89.152344 19.058594 89.046875 C 19.085938 88.941406 19.070313 88.820313 19.007813 88.691406 L 18.9375 88.535156 L 19.117188 88.453125 L 20.238281 90.914063 L 20.058594 90.996094 L 19.988281 90.839844 C 19.925781 90.703125 19.84375 90.609375 19.738281 90.554688 C 19.664063 90.515625 19.566406 90.503906 19.441406 90.519531 C 19.355469 90.527344 19.144531 90.609375 18.820313 90.757813 L 16.972656 91.601563 L 17.730469 93.261719 L 19.578125 92.421875 C 19.910156 92.269531 20.113281 92.160156 20.183594 92.097656 C 20.257813 92.03125 20.304688 91.945313 20.332031 91.839844 C 20.359375 91.734375 20.34375 91.613281 20.28125 91.480469 L 20.210938 91.328125 L 20.390625 91.246094 L 21.511719 93.707031 L 21.332031 93.785156 L 21.265625 93.632813 C 21.199219 93.496094 21.117188 93.398438 21.011719 93.351563 C 20.941406 93.308594 20.839844 93.296875 20.71875 93.3125 C 20.628906 93.320313 20.421875 93.402344 20.09375 93.550781 L 15.800781 95.507813 C 15.46875 95.660156 15.265625 95.769531 15.195313 95.832031 C 15.121094 95.894531 15.070313 95.980469 15.046875 96.089844 C 15.019531 96.195313 15.035156 96.316406 15.097656 96.449219 L 15.164063 96.601563 L 14.988281 96.683594 L 13.867188 94.222656 L 14.042969 94.144531 L 14.113281 94.296875 C 14.179688 94.433594 14.261719 94.527344 14.367188 94.578125 C 14.4375 94.621094 14.535156 94.632813 14.660156 94.617188 C 14.75 94.605469 14.957031 94.527344 15.285156 94.378906 L 17.304688 93.457031 Z M 16.546875 91.792969 " />
<path style=" stroke:none;fill-rule:evenodd;fill:rgb(100%,100%,100%);fill-opacity:1;" d="M 16.691406 99.179688 L 16.523438 99.277344 L 15.1875 96.925781 L 15.359375 96.828125 L 15.441406 96.976563 C 15.515625 97.109375 15.609375 97.195313 15.71875 97.238281 C 15.792969 97.269531 15.894531 97.273438 16.015625 97.246094 C 16.101563 97.226563 16.300781 97.132813 16.613281 96.953125 L 20.714844 94.628906 C 21.035156 94.445313 21.226563 94.320313 21.292969 94.25 C 21.359375 94.183594 21.402344 94.09375 21.417969 93.984375 C 21.4375 93.878906 21.410156 93.761719 21.339844 93.632813 L 21.253906 93.484375 L 21.425781 93.386719 L 22.757813 95.742188 L 22.589844 95.835938 L 22.503906 95.6875 C 22.429688 95.558594 22.335938 95.472656 22.226563 95.429688 C 22.152344 95.394531 22.054688 95.390625 21.929688 95.417969 C 21.84375 95.433594 21.640625 95.53125 21.328125 95.710938 L 17.226563 98.035156 C 16.910156 98.214844 16.71875 98.339844 16.652344 98.414063 C 16.585938 98.484375 16.542969 98.574219 16.527344 98.679688 C 16.507813 98.789063 16.535156 98.90625 16.609375 99.03125 Z M 16.691406 99.179688 " />
<path style=" stroke:none;fill-rule:evenodd;fill:rgb(100%,100%,100%);fill-opacity:1;" d="M 23.59375 97.042969 L 21.355469 101.65625 L 23.902344 99.921875 C 24.257813 99.675781 24.472656 99.476563 24.546875 99.320313 C 24.648438 99.101563 24.613281 98.878906 24.449219 98.644531 L 24.609375 98.535156 L 25.570313 99.945313 L 25.410156 100.058594 C 25.253906 99.898438 25.128906 99.804688 25.035156 99.777344 C 24.941406 99.75 24.828125 99.757813 24.6875 99.800781 C 24.550781 99.84375 24.339844 99.960938 24.0625 100.152344 L 19.125 103.511719 L 19.054688 103.40625 L 22.019531 97.15625 L 18.25 99.71875 C 17.910156 99.953125 17.71875 100.164063 17.675781 100.359375 C 17.632813 100.554688 17.660156 100.722656 17.757813 100.867188 L 17.828125 100.96875 L 17.667969 101.078125 L 16.632813 99.5625 L 16.796875 99.453125 C 16.960938 99.683594 17.136719 99.804688 17.332031 99.804688 C 17.527344 99.808594 17.78125 99.703125 18.09375 99.488281 L 22.277344 96.640625 L 22.375 96.445313 C 22.46875 96.246094 22.519531 96.09375 22.519531 95.992188 C 22.523438 95.890625 22.480469 95.769531 22.398438 95.636719 L 22.5625 95.527344 Z M 23.59375 97.042969 " />
<path style=" stroke:none;fill-rule:evenodd;fill:rgb(100%,100%,100%);fill-opacity:1;" d="M 26.300781 101.410156 L 24.0625 103.285156 L 24.128906 103.367188 C 24.339844 103.617188 24.601563 103.707031 24.914063 103.636719 C 25.226563 103.566406 25.609375 103.367188 26.066406 103.042969 L 26.15625 103.152344 L 23.277344 105.5625 L 23.183594 105.453125 C 23.480469 105.167969 23.695313 104.902344 23.832031 104.660156 C 23.96875 104.417969 24.03125 104.21875 24.015625 104.0625 C 24.003906 103.902344 23.914063 103.730469 23.757813 103.542969 L 22.207031 104.839844 C 21.90625 105.089844 21.726563 105.253906 21.675781 105.332031 C 21.625 105.40625 21.597656 105.488281 21.597656 105.574219 C 21.597656 105.660156 21.644531 105.761719 21.738281 105.875 L 21.9375 106.109375 C 22.246094 106.480469 22.613281 106.679688 23.039063 106.703125 C 23.464844 106.726563 23.960938 106.585938 24.527344 106.273438 L 24.617188 106.382813 L 22.722656 107.667969 L 19.851563 104.238281 L 20 104.113281 L 20.109375 104.246094 C 20.207031 104.359375 20.3125 104.429688 20.429688 104.449219 C 20.507813 104.46875 20.605469 104.453125 20.722656 104.40625 C 20.804688 104.371094 20.984375 104.242188 21.261719 104.007813 L 24.878906 100.980469 C 25.125 100.773438 25.273438 100.640625 25.324219 100.582031 C 25.402344 100.484375 25.445313 100.386719 25.449219 100.292969 C 25.464844 100.152344 25.417969 100.019531 25.308594 99.890625 L 25.199219 99.761719 L 25.351563 99.636719 L 28.128906 102.957031 L 26.503906 104.316406 L 26.410156 104.207031 C 26.761719 103.816406 26.980469 103.5 27.066406 103.25 C 27.152344 103.003906 27.160156 102.753906 27.085938 102.496094 C 27.042969 102.347656 26.894531 102.121094 26.644531 101.824219 Z M 26.300781 101.410156 " />
<path style=" stroke:none;fill-rule:evenodd;fill:rgb(100%,100%,100%);fill-opacity:1;" d="M 30.910156 105.546875 L 29.246094 107.261719 L 29.136719 107.152344 C 29.507813 106.675781 29.722656 106.207031 29.777344 105.746094 C 29.832031 105.28125 29.742188 104.933594 29.503906 104.695313 C 29.320313 104.511719 29.109375 104.433594 28.867188 104.460938 C 28.621094 104.488281 28.414063 104.589844 28.234375 104.769531 C 28.121094 104.878906 28.042969 105 27.992188 105.121094 C 27.925781 105.292969 27.894531 105.492188 27.894531 105.722656 C 27.894531 105.886719 27.945313 106.230469 28.039063 106.746094 C 28.171875 107.464844 28.183594 108.03125 28.074219 108.4375 C 27.960938 108.84375 27.738281 109.214844 27.402344 109.546875 C 26.976563 109.96875 26.492188 110.214844 25.949219 110.277344 C 25.402344 110.34375 24.949219 110.191406 24.582031 109.824219 C 24.46875 109.707031 24.375 109.582031 24.304688 109.449219 C 24.238281 109.3125 24.167969 109.125 24.105469 108.878906 C 24.070313 108.742188 24.023438 108.644531 23.96875 108.589844 C 23.921875 108.542969 23.847656 108.519531 23.746094 108.515625 C 23.644531 108.511719 23.523438 108.546875 23.390625 108.617188 L 23.289063 108.515625 L 25.210938 106.605469 L 25.308594 106.707031 C 24.847656 107.324219 24.589844 107.886719 24.53125 108.394531 C 24.472656 108.902344 24.570313 109.289063 24.832031 109.550781 C 25.035156 109.753906 25.269531 109.835938 25.542969 109.804688 C 25.8125 109.773438 26.050781 109.65625 26.253906 109.457031 C 26.371094 109.335938 26.464844 109.199219 26.53125 109.039063 C 26.597656 108.882813 26.636719 108.707031 26.644531 108.511719 C 26.652344 108.316406 26.621094 108.019531 26.546875 107.621094 C 26.441406 107.0625 26.398438 106.628906 26.410156 106.324219 C 26.425781 106.019531 26.492188 105.726563 26.613281 105.453125 C 26.730469 105.179688 26.910156 104.921875 27.148438 104.6875 C 27.554688 104.285156 28.003906 104.046875 28.503906 103.980469 C 29 103.910156 29.414063 104.039063 29.738281 104.367188 C 29.855469 104.488281 29.949219 104.621094 30.023438 104.773438 C 30.078125 104.886719 30.125 105.046875 30.164063 105.25 C 30.203125 105.453125 30.246094 105.578125 30.296875 105.625 C 30.34375 105.671875 30.398438 105.691406 30.464844 105.675781 C 30.53125 105.664063 30.65625 105.59375 30.828125 105.464844 Z M 30.910156 105.546875 " />
<path style=" stroke:none;fill-rule:evenodd;fill:rgb(100%,100%,100%);fill-opacity:1;" d="M 32.171875 107.4375 L 30.277344 109.660156 L 30.355469 109.726563 C 30.605469 109.941406 30.878906 109.984375 31.179688 109.863281 C 31.476563 109.742188 31.820313 109.480469 32.210938 109.082031 L 32.324219 109.179688 L 29.886719 112.039063 L 29.777344 111.945313 C 30.019531 111.613281 30.1875 111.316406 30.28125 111.054688 C 30.378906 110.789063 30.402344 110.582031 30.363281 110.429688 C 30.324219 110.277344 30.210938 110.121094 30.023438 109.960938 L 28.710938 111.5 C 28.457031 111.800781 28.308594 111.992188 28.269531 112.074219 C 28.230469 112.160156 28.21875 112.242188 28.230469 112.328125 C 28.246094 112.414063 28.308594 112.503906 28.421875 112.601563 L 28.65625 112.800781 C 29.023438 113.113281 29.421875 113.246094 29.84375 113.199219 C 30.265625 113.152344 30.730469 112.929688 31.238281 112.527344 L 31.347656 112.617188 L 29.691406 114.203125 L 26.289063 111.304688 L 26.414063 111.15625 L 26.546875 111.265625 C 26.660156 111.367188 26.777344 111.414063 26.894531 111.417969 C 26.976563 111.421875 27.070313 111.390625 27.175781 111.324219 C 27.25 111.277344 27.40625 111.117188 27.636719 110.84375 L 30.695313 107.25 C 30.90625 107.003906 31.03125 106.847656 31.070313 106.785156 C 31.128906 106.671875 31.15625 106.570313 31.148438 106.476563 C 31.136719 106.335938 31.066406 106.214844 30.941406 106.105469 L 30.808594 105.992188 L 30.9375 105.84375 L 34.234375 108.652344 L 32.859375 110.265625 L 32.75 110.171875 C 33.027344 109.730469 33.191406 109.378906 33.234375 109.121094 C 33.28125 108.863281 33.242188 108.613281 33.125 108.375 C 33.058594 108.234375 32.875 108.039063 32.578125 107.78125 Z M 32.171875 107.4375 " />
<path style=" stroke:none;fill-rule:evenodd;fill:rgb(100%,100%,100%);fill-opacity:1;" d="M 36.78125 116.621094 L 35.230469 115.65625 L 34.675781 116.136719 C 34.492188 116.296875 34.363281 116.441406 34.28125 116.570313 C 34.175781 116.742188 34.148438 116.898438 34.199219 117.039063 C 34.226563 117.125 34.347656 117.25 34.5625 117.414063 L 34.460938 117.582031 L 32.996094 116.675781 L 33.101563 116.507813 C 33.277344 116.574219 33.464844 116.5625 33.65625 116.476563 C 33.851563 116.394531 34.164063 116.164063 34.601563 115.792969 L 39.1875 111.902344 L 39.246094 111.9375 L 37.742188 117.917969 C 37.597656 118.488281 37.539063 118.863281 37.558594 119.046875 C 37.578125 119.183594 37.648438 119.300781 37.773438 119.402344 L 37.667969 119.566406 L 35.539063 118.25 L 35.644531 118.082031 L 35.730469 118.136719 C 35.902344 118.242188 36.042969 118.285156 36.152344 118.261719 C 36.230469 118.242188 36.296875 118.1875 36.351563 118.097656 C 36.386719 118.046875 36.414063 117.984375 36.433594 117.921875 C 36.449219 117.890625 36.484375 117.757813 36.546875 117.523438 Z M 36.878906 116.21875 L 37.523438 113.710938 L 35.546875 115.394531 Z M 36.878906 116.21875 " />
<path style=" stroke:none;fill-rule:evenodd;fill:rgb(100%,100%,100%);fill-opacity:1;" d="M 45.6875 115.363281 L 44.582031 117.589844 L 44.449219 117.523438 C 44.636719 116.894531 44.671875 116.355469 44.550781 115.910156 C 44.429688 115.464844 44.195313 115.15625 43.851563 114.984375 C 43.5625 114.84375 43.238281 114.824219 42.882813 114.9375 C 42.527344 115.046875 42.199219 115.261719 41.902344 115.578125 C 41.523438 115.984375 41.1875 116.480469 40.898438 117.0625 C 40.613281 117.636719 40.40625 118.1875 40.277344 118.710938 C 40.148438 119.238281 40.136719 119.675781 40.238281 120.027344 C 40.34375 120.378906 40.574219 120.644531 40.929688 120.820313 C 41.21875 120.964844 41.53125 121.007813 41.863281 120.953125 C 42.191406 120.894531 42.601563 120.71875 43.082031 120.417969 L 42.808594 120.972656 C 42.363281 121.21875 41.957031 121.355469 41.589844 121.386719 C 41.226563 121.417969 40.855469 121.339844 40.480469 121.152344 C 39.984375 120.90625 39.613281 120.550781 39.363281 120.085938 C 39.117188 119.621094 39.015625 119.078125 39.0625 118.460938 C 39.109375 117.84375 39.277344 117.242188 39.566406 116.660156 C 39.867188 116.050781 40.273438 115.527344 40.777344 115.089844 C 41.28125 114.65625 41.804688 114.382813 42.347656 114.277344 C 42.890625 114.167969 43.382813 114.222656 43.824219 114.441406 C 44.152344 114.601563 44.449219 114.871094 44.714844 115.246094 C 44.867188 115.464844 44.972656 115.589844 45.027344 115.617188 C 45.101563 115.652344 45.183594 115.648438 45.273438 115.597656 C 45.363281 115.550781 45.457031 115.449219 45.550781 115.296875 Z M 45.6875 115.363281 " />
<path style=" stroke:none;fill-rule:evenodd;fill:rgb(100%,100%,100%);fill-opacity:1;" d="M 46.574219 121.386719 L 44.867188 120.730469 L 44.414063 121.300781 C 44.261719 121.492188 44.160156 121.660156 44.105469 121.800781 C 44.035156 121.988281 44.035156 122.148438 44.109375 122.277344 C 44.15625 122.355469 44.296875 122.457031 44.539063 122.578125 L 44.46875 122.761719 L 42.863281 122.144531 L 42.933594 121.960938 C 43.121094 121.992188 43.300781 121.945313 43.476563 121.828125 C 43.648438 121.707031 43.917969 121.425781 44.277344 120.976563 L 48.058594 116.300781 L 48.128906 116.328125 L 47.757813 122.484375 C 47.722656 123.070313 47.734375 123.449219 47.789063 123.625 C 47.828125 123.757813 47.921875 123.863281 48.0625 123.9375 L 47.992188 124.117188 L 45.65625 123.21875 L 45.726563 123.035156 L 45.820313 123.074219 C 46.007813 123.144531 46.15625 123.160156 46.257813 123.117188 C 46.332031 123.082031 46.386719 123.019531 46.425781 122.921875 C 46.445313 122.859375 46.464844 122.796875 46.472656 122.730469 C 46.480469 122.699219 46.492188 122.5625 46.507813 122.316406 Z M 46.59375 120.972656 L 46.761719 118.390625 L 45.132813 120.410156 Z M 46.59375 120.972656 " />
<path style=" stroke:none;fill-rule:evenodd;fill:rgb(100%,100%,100%);fill-opacity:1;" d="M 48.171875 124.175781 L 48.222656 123.988281 L 48.390625 124.035156 C 48.535156 124.074219 48.652344 124.074219 48.75 124.035156 C 48.84375 123.992188 48.925781 123.921875 48.992188 123.824219 C 49.035156 123.761719 49.105469 123.550781 49.207031 123.191406 L 50.484375 118.652344 C 50.585938 118.300781 50.632813 118.078125 50.632813 117.980469 C 50.628906 117.886719 50.597656 117.792969 50.535156 117.703125 C 50.46875 117.613281 50.371094 117.550781 50.230469 117.511719 L 50.0625 117.464844 L 50.117188 117.277344 L 52.347656 117.902344 C 52.941406 118.070313 53.386719 118.320313 53.6875 118.644531 C 54.050781 119.042969 54.269531 119.554688 54.34375 120.175781 C 54.414063 120.796875 54.351563 121.457031 54.152344 122.160156 C 54.015625 122.644531 53.835938 123.078125 53.605469 123.453125 C 53.378906 123.832031 53.136719 124.128906 52.882813 124.34375 C 52.628906 124.558594 52.363281 124.714844 52.085938 124.808594 C 51.804688 124.90625 51.484375 124.949219 51.121094 124.941406 C 50.960938 124.941406 50.71875 124.894531 50.398438 124.804688 Z M 51.90625 118.203125 L 50.386719 123.585938 C 50.304688 123.871094 50.265625 124.050781 50.269531 124.121094 C 50.269531 124.1875 50.289063 124.246094 50.324219 124.296875 C 50.375 124.363281 50.464844 124.417969 50.589844 124.453125 C 51 124.566406 51.363281 124.460938 51.691406 124.136719 C 52.132813 123.695313 52.507813 122.925781 52.816406 121.828125 C 53.066406 120.941406 53.164063 120.207031 53.113281 119.621094 C 53.070313 119.164063 52.945313 118.824219 52.738281 118.601563 C 52.59375 118.449219 52.316406 118.316406 51.90625 118.203125 Z M 51.90625 118.203125 " />
<path style=" stroke:none;fill-rule:evenodd;fill:rgb(100%,100%,100%);fill-opacity:1;" d="M 56.851563 119.425781 L 56.3125 122.296875 L 56.414063 122.3125 C 56.734375 122.375 56.996094 122.277344 57.195313 122.027344 C 57.390625 121.773438 57.5625 121.375 57.703125 120.835938 L 57.847656 120.863281 L 57.152344 124.550781 L 57.011719 124.523438 C 57.054688 124.117188 57.054688 123.777344 57.007813 123.503906 C 56.957031 123.226563 56.878906 123.035156 56.769531 122.921875 C 56.65625 122.808594 56.480469 122.730469 56.238281 122.683594 L 55.867188 124.667969 C 55.792969 125.058594 55.757813 125.296875 55.765625 125.386719 C 55.773438 125.476563 55.804688 125.558594 55.859375 125.625 C 55.914063 125.695313 56.015625 125.738281 56.160156 125.769531 L 56.464844 125.824219 C 56.9375 125.914063 57.347656 125.832031 57.691406 125.582031 C 58.035156 125.332031 58.328125 124.90625 58.570313 124.308594 L 58.707031 124.332031 L 58.058594 126.527344 L 53.664063 125.703125 L 53.699219 125.511719 L 53.867188 125.542969 C 54.015625 125.570313 54.140625 125.554688 54.246094 125.5 C 54.320313 125.464844 54.386719 125.390625 54.441406 125.277344 C 54.484375 125.199219 54.539063 124.984375 54.605469 124.632813 L 55.480469 119.996094 C 55.539063 119.679688 55.570313 119.480469 55.570313 119.40625 C 55.566406 119.28125 55.539063 119.179688 55.484375 119.101563 C 55.410156 118.984375 55.289063 118.914063 55.121094 118.882813 L 54.953125 118.851563 L 54.988281 118.65625 L 59.246094 119.460938 L 58.851563 121.542969 L 58.710938 121.515625 C 58.734375 120.992188 58.703125 120.605469 58.613281 120.363281 C 58.523438 120.113281 58.367188 119.917969 58.148438 119.769531 C 58.019531 119.679688 57.761719 119.597656 57.375 119.527344 Z M 56.851563 119.425781 " />
<path style=" stroke:none;fill-rule:evenodd;fill:rgb(100%,100%,100%);fill-opacity:1;" d="M 62.558594 124.570313 L 64.347656 119.976563 L 66.449219 120.148438 L 66.429688 120.34375 L 66.265625 120.332031 C 66.113281 120.316406 65.988281 120.34375 65.890625 120.410156 C 65.820313 120.453125 65.765625 120.535156 65.71875 120.644531 C 65.683594 120.730469 65.648438 120.945313 65.621094 121.300781 L 65.230469 126.011719 C 65.199219 126.375 65.195313 126.605469 65.214844 126.699219 C 65.234375 126.792969 65.285156 126.878906 65.367188 126.953125 C 65.445313 127.03125 65.558594 127.074219 65.703125 127.085938 L 65.871094 127.097656 L 65.855469 127.292969 L 63.160156 127.070313 L 63.175781 126.875 L 63.34375 126.890625 C 63.496094 126.902344 63.621094 126.875 63.71875 126.808594 C 63.785156 126.765625 63.84375 126.683594 63.890625 126.570313 C 63.925781 126.488281 63.960938 126.265625 63.988281 125.910156 L 64.429688 120.613281 L 61.910156 126.964844 L 61.820313 126.957031 L 60.347656 120.320313 L 59.929688 125.355469 C 59.898438 125.703125 59.886719 125.921875 59.894531 126.003906 C 59.914063 126.179688 59.972656 126.332031 60.074219 126.449219 C 60.175781 126.570313 60.34375 126.640625 60.578125 126.660156 L 60.5625 126.855469 L 58.796875 126.707031 L 58.816406 126.511719 L 58.867188 126.515625 C 58.980469 126.53125 59.089844 126.511719 59.195313 126.464844 C 59.296875 126.421875 59.378906 126.351563 59.4375 126.265625 C 59.496094 126.179688 59.542969 126.054688 59.585938 125.890625 C 59.59375 125.855469 59.613281 125.675781 59.636719 125.355469 L 60.015625 120.835938 C 60.042969 120.472656 60.050781 120.246094 60.027344 120.152344 C 60.007813 120.0625 59.957031 119.976563 59.875 119.902344 C 59.796875 119.828125 59.683594 119.785156 59.539063 119.769531 L 59.375 119.757813 L 59.390625 119.5625 L 61.5 119.738281 Z M 62.558594 124.570313 " />
<path style=" stroke:none;fill-rule:evenodd;fill:rgb(100%,100%,100%);fill-opacity:1;" d="M 71.375 119.960938 L 71.378906 120.15625 C 71.210938 120.191406 71.082031 120.261719 70.992188 120.371094 C 70.867188 120.523438 70.675781 120.929688 70.417969 121.597656 L 69.355469 124.21875 L 69.394531 125.953125 C 69.40625 126.324219 69.425781 126.550781 69.453125 126.640625 C 69.484375 126.730469 69.542969 126.808594 69.625 126.875 C 69.710938 126.941406 69.820313 126.972656 69.957031 126.972656 L 70.246094 126.964844 L 70.253906 127.160156 L 67.351563 127.226563 L 67.34375 127.03125 L 67.617188 127.023438 C 67.769531 127.023438 67.886719 126.980469 67.976563 126.90625 C 68.039063 126.855469 68.089844 126.769531 68.125 126.648438 C 68.152344 126.5625 68.160156 126.339844 68.152344 125.980469 L 68.121094 124.542969 L 66.832031 121.5 C 66.578125 120.898438 66.398438 120.546875 66.296875 120.441406 C 66.195313 120.335938 66.058594 120.285156 65.894531 120.285156 L 65.890625 120.085938 L 68.371094 120.03125 L 68.375 120.226563 L 68.261719 120.226563 C 68.113281 120.230469 68.007813 120.265625 67.949219 120.324219 C 67.894531 120.386719 67.863281 120.453125 67.867188 120.519531 C 67.867188 120.644531 67.976563 120.960938 68.191406 121.46875 L 69.183594 123.820313 L 70.0625 121.636719 C 70.28125 121.101563 70.390625 120.75 70.386719 120.578125 C 70.382813 120.480469 70.347656 120.402344 70.28125 120.339844 C 70.191406 120.253906 70.03125 120.207031 69.800781 120.191406 L 69.796875 119.996094 Z M 71.375 119.960938 " />
<path style=" stroke:none;fill-rule:evenodd;fill:rgb(100%,100%,100%);fill-opacity:1;" d="M 76.925781 119.089844 C 77.730469 118.902344 78.449219 119.109375 79.082031 119.714844 C 79.714844 120.320313 80.125 121.144531 80.316406 122.191406 C 80.476563 123.085938 80.433594 123.910156 80.175781 124.65625 C 79.839844 125.648438 79.214844 126.230469 78.300781 126.394531 C 77.382813 126.5625 76.597656 126.261719 75.941406 125.488281 C 75.421875 124.882813 75.078125 124.113281 74.910156 123.179688 C 74.71875 122.132813 74.816406 121.210938 75.207031 120.417969 C 75.59375 119.628906 76.167969 119.183594 76.925781 119.089844 Z M 77.03125 119.414063 C 76.566406 119.5 76.269531 119.890625 76.148438 120.59375 C 76.046875 121.171875 76.089844 121.96875 76.273438 122.980469 C 76.492188 124.183594 76.804688 125.046875 77.214844 125.566406 C 77.5 125.929688 77.835938 126.074219 78.21875 126.007813 C 78.476563 125.960938 78.675781 125.835938 78.816406 125.628906 C 78.996094 125.367188 79.105469 124.980469 79.140625 124.472656 C 79.171875 123.960938 79.117188 123.316406 78.976563 122.53125 C 78.808594 121.601563 78.617188 120.914063 78.410156 120.472656 C 78.199219 120.03125 77.980469 119.734375 77.753906 119.578125 C 77.523438 119.421875 77.285156 119.367188 77.03125 119.414063 Z M 77.03125 119.414063 " />
<path style=" stroke:none;fill-rule:evenodd;fill:rgb(100%,100%,100%);fill-opacity:1;" d="M 81.484375 118.585938 L 82.269531 121.425781 L 82.414063 121.382813 C 82.632813 121.324219 82.800781 121.226563 82.914063 121.097656 C 83.03125 120.96875 83.105469 120.78125 83.144531 120.535156 C 83.179688 120.292969 83.160156 119.980469 83.089844 119.601563 L 83.21875 119.566406 L 84.175781 123.035156 L 84.046875 123.074219 C 83.820313 122.429688 83.574219 122.03125 83.308594 121.878906 C 83.042969 121.730469 82.78125 121.6875 82.519531 121.761719 L 82.375 121.800781 L 82.960938 123.917969 C 83.054688 124.269531 83.132813 124.488281 83.183594 124.566406 C 83.238281 124.648438 83.3125 124.710938 83.414063 124.753906 C 83.515625 124.796875 83.632813 124.800781 83.773438 124.761719 L 83.9375 124.714844 L 83.992188 124.902344 L 81.382813 125.625 L 81.332031 125.4375 L 81.496094 125.390625 C 81.640625 125.351563 81.75 125.28125 81.816406 125.1875 C 81.867188 125.121094 81.894531 125.027344 81.898438 124.902344 C 81.902344 124.8125 81.855469 124.59375 81.761719 124.246094 L 80.503906 119.703125 C 80.40625 119.347656 80.332031 119.132813 80.28125 119.050781 C 80.230469 118.96875 80.152344 118.90625 80.050781 118.863281 C 79.953125 118.820313 79.832031 118.816406 79.691406 118.855469 L 79.527344 118.902344 L 79.476563 118.714844 L 83.683594 117.550781 L 84.230469 119.53125 L 84.078125 119.574219 C 83.914063 119.121094 83.734375 118.796875 83.53125 118.613281 C 83.328125 118.425781 83.078125 118.324219 82.785156 118.308594 C 82.625 118.296875 82.347656 118.347656 81.949219 118.457031 Z M 81.484375 118.585938 " />
<path style=" stroke:none;fill-rule:evenodd;fill:rgb(100%,100%,100%);fill-opacity:1;" d="M 89.707031 115 L 90.691406 117.179688 L 90.546875 117.238281 C 90.242188 116.71875 89.886719 116.347656 89.476563 116.125 C 89.066406 115.90625 88.707031 115.859375 88.398438 115.992188 C 88.160156 116.097656 88.007813 116.265625 87.945313 116.5 C 87.882813 116.738281 87.902344 116.96875 88 117.199219 C 88.0625 117.347656 88.140625 117.464844 88.238281 117.558594 C 88.375 117.679688 88.546875 117.785156 88.761719 117.867188 C 88.917969 117.929688 89.25 118.011719 89.765625 118.109375 C 90.484375 118.25 91.011719 118.449219 91.351563 118.699219 C 91.6875 118.957031 91.949219 119.300781 92.136719 119.734375 C 92.371094 120.285156 92.421875 120.824219 92.28125 121.351563 C 92.140625 121.882813 91.835938 122.25 91.355469 122.453125 C 91.207031 122.519531 91.058594 122.558594 90.90625 122.574219 C 90.753906 122.589844 90.554688 122.582031 90.300781 122.550781 C 90.164063 122.535156 90.054688 122.542969 89.984375 122.574219 C 89.921875 122.601563 89.871094 122.660156 89.832031 122.753906 C 89.792969 122.847656 89.78125 122.96875 89.796875 123.121094 L 89.664063 123.175781 L 88.597656 120.691406 L 88.726563 120.632813 C 89.128906 121.289063 89.558594 121.738281 90.007813 121.980469 C 90.460938 122.21875 90.855469 122.269531 91.195313 122.121094 C 91.457031 122.011719 91.621094 121.820313 91.691406 121.558594 C 91.761719 121.292969 91.742188 121.03125 91.628906 120.769531 C 91.5625 120.613281 91.46875 120.476563 91.347656 120.355469 C 91.222656 120.234375 91.074219 120.132813 90.894531 120.054688 C 90.71875 119.976563 90.429688 119.898438 90.03125 119.820313 C 89.472656 119.710938 89.054688 119.59375 88.773438 119.46875 C 88.496094 119.34375 88.25 119.171875 88.039063 118.960938 C 87.828125 118.75 87.65625 118.488281 87.523438 118.183594 C 87.296875 117.65625 87.246094 117.148438 87.367188 116.660156 C 87.484375 116.171875 87.757813 115.839844 88.179688 115.65625 C 88.332031 115.589844 88.496094 115.550781 88.660156 115.542969 C 88.789063 115.53125 88.953125 115.546875 89.15625 115.585938 C 89.359375 115.621094 89.492188 115.628906 89.554688 115.601563 C 89.613281 115.574219 89.652344 115.527344 89.664063 115.460938 C 89.679688 115.394531 89.65625 115.253906 89.601563 115.046875 Z M 89.707031 115 " />
<path style=" stroke:none;fill-rule:evenodd;fill:rgb(100%,100%,100%);fill-opacity:1;" d="M 94.398438 112.570313 L 95.5625 114.761719 L 95.433594 114.835938 C 95.03125 114.3125 94.613281 113.972656 94.179688 113.808594 C 93.75 113.648438 93.363281 113.660156 93.019531 113.839844 C 92.734375 113.992188 92.535156 114.246094 92.417969 114.597656 C 92.300781 114.953125 92.285156 115.34375 92.367188 115.765625 C 92.476563 116.3125 92.683594 116.875 92.992188 117.449219 C 93.292969 118.015625 93.617188 118.503906 93.96875 118.914063 C 94.320313 119.324219 94.667969 119.589844 95.015625 119.710938 C 95.359375 119.832031 95.710938 119.800781 96.058594 119.613281 C 96.347656 119.460938 96.5625 119.234375 96.710938 118.933594 C 96.855469 118.632813 96.949219 118.195313 96.988281 117.628906 L 97.277344 118.175781 C 97.21875 118.683594 97.09375 119.09375 96.90625 119.40625 C 96.71875 119.71875 96.4375 119.976563 96.066406 120.171875 C 95.578125 120.433594 95.074219 120.527344 94.550781 120.457031 C 94.03125 120.386719 93.53125 120.152344 93.054688 119.753906 C 92.582031 119.355469 92.191406 118.871094 91.886719 118.300781 C 91.566406 117.695313 91.375 117.0625 91.316406 116.398438 C 91.253906 115.738281 91.339844 115.152344 91.570313 114.648438 C 91.796875 114.144531 92.128906 113.773438 92.566406 113.542969 C 92.886719 113.371094 93.277344 113.289063 93.738281 113.292969 C 94.003906 113.296875 94.164063 113.28125 94.21875 113.25 C 94.292969 113.210938 94.335938 113.144531 94.347656 113.042969 C 94.363281 112.941406 94.335938 112.808594 94.265625 112.640625 Z M 94.398438 112.570313 " />
<path style=" stroke:none;fill-rule:evenodd;fill:rgb(100%,100%,100%);fill-opacity:1;" d="M 100.53125 117.105469 L 100.632813 117.273438 L 98.34375 118.710938 L 98.238281 118.542969 L 98.386719 118.453125 C 98.511719 118.375 98.59375 118.277344 98.632813 118.167969 C 98.664063 118.089844 98.660156 117.992188 98.628906 117.871094 C 98.605469 117.785156 98.5 117.589844 98.308594 117.285156 L 95.800781 113.289063 C 95.605469 112.980469 95.472656 112.792969 95.398438 112.730469 C 95.328125 112.667969 95.238281 112.628906 95.128906 112.617188 C 95.019531 112.605469 94.902344 112.636719 94.78125 112.714844 L 94.636719 112.804688 L 94.53125 112.640625 L 96.820313 111.199219 L 96.925781 111.367188 L 96.78125 111.457031 C 96.652344 111.539063 96.570313 111.632813 96.53125 111.742188 C 96.503906 111.820313 96.503906 111.921875 96.535156 112.042969 C 96.558594 112.128906 96.664063 112.324219 96.855469 112.628906 L 99.363281 116.621094 C 99.558594 116.933594 99.691406 117.117188 99.765625 117.179688 C 99.839844 117.242188 99.929688 117.28125 100.039063 117.292969 C 100.148438 117.308594 100.261719 117.273438 100.386719 117.199219 Z M 100.53125 117.105469 " />
<path style=" stroke:none;fill-rule:evenodd;fill:rgb(100%,100%,100%);fill-opacity:1;" d="M 98.546875 110.496094 L 100.265625 112.855469 L 100.347656 112.796875 C 100.613281 112.601563 100.722656 112.347656 100.671875 112.03125 C 100.625 111.710938 100.453125 111.316406 100.160156 110.84375 L 100.277344 110.757813 L 102.484375 113.792969 L 102.367188 113.878906 C 102.101563 113.566406 101.851563 113.332031 101.621094 113.179688 C 101.386719 113.027344 101.191406 112.949219 101.03125 112.953125 C 100.875 112.957031 100.695313 113.03125 100.496094 113.179688 L 101.683594 114.808594 C 101.917969 115.128906 102.070313 115.320313 102.140625 115.375 C 102.210938 115.433594 102.289063 115.464844 102.378906 115.472656 C 102.464844 115.476563 102.566406 115.4375 102.6875 115.351563 L 102.9375 115.167969 C 103.328125 114.886719 103.550781 114.53125 103.601563 114.109375 C 103.65625 113.6875 103.546875 113.183594 103.277344 112.59375 L 103.390625 112.511719 L 104.542969 114.492188 L 100.925781 117.121094 L 100.8125 116.960938 L 100.949219 116.863281 C 101.070313 116.773438 101.148438 116.671875 101.179688 116.558594 C 101.203125 116.480469 101.195313 116.382813 101.152344 116.265625 C 101.125 116.179688 101.003906 115.992188 100.792969 115.699219 L 98.019531 111.886719 C 97.832031 111.625 97.707031 111.46875 97.652344 111.414063 C 97.5625 111.332031 97.46875 111.28125 97.371094 111.265625 C 97.234375 111.242188 97.097656 111.28125 96.964844 111.382813 L 96.824219 111.480469 L 96.710938 111.324219 L 100.210938 108.777344 L 101.460938 110.492188 L 101.34375 110.578125 C 100.976563 110.199219 100.675781 109.960938 100.433594 109.859375 C 100.195313 109.753906 99.945313 109.730469 99.683594 109.789063 C 99.53125 109.820313 99.296875 109.953125 98.980469 110.183594 Z M 98.546875 110.496094 " />
<path style=" stroke:none;fill-rule:evenodd;fill:rgb(100%,100%,100%);fill-opacity:1;" d="M 101.773438 107.46875 L 106.625 109.132813 L 104.59375 106.816406 C 104.308594 106.492188 104.085938 106.300781 103.917969 106.246094 C 103.691406 106.171875 103.472656 106.234375 103.261719 106.429688 L 103.132813 106.28125 L 104.417969 105.15625 L 104.546875 105.304688 C 104.410156 105.476563 104.332031 105.609375 104.316406 105.707031 C 104.300781 105.800781 104.320313 105.917969 104.382813 106.046875 C 104.441406 106.179688 104.582031 106.375 104.804688 106.628906 L 108.738281 111.121094 L 108.640625 111.207031 L 102.078125 109.019531 L 105.078125 112.445313 C 105.347656 112.757813 105.585938 112.921875 105.78125 112.941406 C 105.980469 112.960938 106.144531 112.914063 106.277344 112.796875 L 106.367188 112.714844 L 106.496094 112.863281 L 105.117188 114.070313 L 104.988281 113.925781 C 105.199219 113.734375 105.296875 113.542969 105.273438 113.351563 C 105.253906 113.15625 105.121094 112.917969 104.867188 112.632813 L 101.535156 108.824219 L 101.328125 108.753906 C 101.121094 108.683594 100.964844 108.652344 100.863281 108.664063 C 100.757813 108.671875 100.648438 108.726563 100.523438 108.824219 L 100.394531 108.679688 Z M 101.773438 107.46875 " />
<path style=" stroke:none;fill-rule:evenodd;fill:rgb(100%,100%,100%);fill-opacity:1;" d="M 107.535156 101.597656 L 109.339844 103.304688 L 109.238281 103.414063 C 108.691406 103.050781 108.1875 102.859375 107.726563 102.84375 C 107.265625 102.828125 106.902344 102.960938 106.636719 103.242188 C 106.414063 103.476563 106.304688 103.78125 106.304688 104.152344 C 106.308594 104.523438 106.417969 104.898438 106.632813 105.277344 C 106.910156 105.757813 107.285156 106.222656 107.761719 106.671875 C 108.226563 107.113281 108.691406 107.472656 109.152344 107.75 C 109.617188 108.023438 110.03125 108.167969 110.398438 108.171875 C 110.765625 108.175781 111.085938 108.035156 111.359375 107.746094 C 111.582031 107.507813 111.71875 107.222656 111.757813 106.890625 C 111.800781 106.558594 111.75 106.117188 111.605469 105.566406 L 112.054688 105.992188 C 112.164063 106.492188 112.175781 106.917969 112.097656 107.277344 C 112.019531 107.636719 111.832031 107.96875 111.546875 108.273438 C 111.167969 108.671875 110.71875 108.925781 110.199219 109.023438 C 109.683594 109.125 109.136719 109.0625 108.558594 108.835938 C 107.980469 108.609375 107.457031 108.277344 106.984375 107.828125 C 106.488281 107.359375 106.105469 106.820313 105.835938 106.210938 C 105.570313 105.601563 105.460938 105.023438 105.515625 104.46875 C 105.574219 103.917969 105.769531 103.464844 106.109375 103.105469 C 106.359375 102.839844 106.703125 102.636719 107.136719 102.492188 C 107.390625 102.410156 107.539063 102.34375 107.582031 102.300781 C 107.640625 102.242188 107.660156 102.160156 107.640625 102.0625 C 107.621094 101.960938 107.550781 101.839844 107.433594 101.703125 Z M 107.535156 101.597656 " />
<path style=" stroke:none;fill-rule:evenodd;fill:rgb(100%,100%,100%);fill-opacity:1;" d="M 109.148438 100.480469 L 111.441406 102.28125 L 111.507813 102.199219 C 111.710938 101.941406 111.742188 101.667969 111.609375 101.375 C 111.476563 101.082031 111.203125 100.75 110.789063 100.371094 L 110.878906 100.257813 L 113.832031 102.578125 L 113.742188 102.691406 C 113.402344 102.460938 113.101563 102.304688 112.835938 102.222656 C 112.566406 102.136719 112.359375 102.117188 112.210938 102.164063 C 112.058594 102.210938 111.90625 102.332031 111.753906 102.527344 L 113.34375 103.773438 C 113.652344 104.015625 113.851563 104.15625 113.9375 104.191406 C 114.019531 104.226563 114.105469 104.238281 114.191406 104.21875 C 114.273438 104.203125 114.363281 104.136719 114.453125 104.019531 L 114.644531 103.777344 C 114.945313 103.398438 115.058594 102.996094 114.996094 102.574219 C 114.933594 102.15625 114.691406 101.699219 114.269531 101.207031 L 114.355469 101.097656 L 116.003906 102.6875 L 113.246094 106.203125 L 113.089844 106.082031 L 113.195313 105.949219 C 113.289063 105.828125 113.335938 105.710938 113.332031 105.59375 C 113.335938 105.511719 113.300781 105.417969 113.226563 105.316406 C 113.179688 105.242188 113.011719 105.09375 112.730469 104.871094 L 109.019531 101.960938 C 108.765625 101.761719 108.605469 101.640625 108.539063 101.605469 C 108.425781 101.550781 108.320313 101.527344 108.226563 101.542969 C 108.089844 101.554688 107.96875 101.628906 107.863281 101.761719 L 107.757813 101.898438 L 107.605469 101.777344 L 110.277344 98.371094 L 111.945313 99.679688 L 111.855469 99.792969 C 111.402344 99.53125 111.046875 99.382813 110.789063 99.347656 C 110.527344 99.316406 110.28125 99.359375 110.046875 99.488281 C 109.910156 99.558594 109.71875 99.75 109.476563 100.058594 Z M 109.148438 100.480469 " />
<path style=" stroke:none;fill-rule:evenodd;fill:rgb(100%,100%,100%);fill-opacity:1;" d="M 112.257813 95.101563 L 114.277344 96.378906 L 114.191406 96.511719 C 113.648438 96.242188 113.148438 96.128906 112.683594 96.167969 C 112.21875 96.207031 111.894531 96.371094 111.710938 96.648438 C 111.566406 96.867188 111.535156 97.089844 111.613281 97.324219 C 111.6875 97.554688 111.832031 97.738281 112.039063 97.878906 C 112.171875 97.964844 112.304688 98.019531 112.4375 98.042969 C 112.617188 98.074219 112.820313 98.0625 113.042969 98.019531 C 113.207031 97.980469 113.53125 97.867188 114.015625 97.667969 C 114.695313 97.390625 115.246094 97.261719 115.667969 97.289063 C 116.089844 97.316406 116.496094 97.460938 116.890625 97.71875 C 117.390625 98.050781 117.730469 98.472656 117.902344 98.992188 C 118.078125 99.511719 118.023438 99.988281 117.738281 100.421875 C 117.648438 100.558594 117.542969 100.671875 117.425781 100.769531 C 117.308594 100.867188 117.136719 100.96875 116.910156 101.082031 C 116.785156 101.144531 116.699219 101.210938 116.65625 101.277344 C 116.617188 101.332031 116.609375 101.410156 116.628906 101.507813 C 116.644531 101.609375 116.703125 101.71875 116.800781 101.835938 L 116.722656 101.953125 L 114.460938 100.464844 L 114.539063 100.347656 C 115.234375 100.671875 115.839844 100.8125 116.347656 100.765625 C 116.859375 100.71875 117.214844 100.542969 117.417969 100.234375 C 117.574219 99.996094 117.609375 99.746094 117.523438 99.488281 C 117.4375 99.226563 117.273438 99.019531 117.035156 98.863281 C 116.894531 98.769531 116.738281 98.707031 116.570313 98.671875 C 116.402344 98.640625 116.222656 98.640625 116.03125 98.671875 C 115.839844 98.703125 115.554688 98.796875 115.179688 98.949219 C 114.652344 99.167969 114.238281 99.300781 113.9375 99.347656 C 113.632813 99.394531 113.335938 99.386719 113.042969 99.328125 C 112.75 99.265625 112.464844 99.144531 112.183594 98.960938 C 111.707031 98.644531 111.382813 98.25 111.214844 97.777344 C 111.046875 97.300781 111.089844 96.875 111.339844 96.488281 C 111.433594 96.347656 111.546875 96.226563 111.679688 96.128906 C 111.78125 96.050781 111.925781 95.972656 112.117188 95.890625 C 112.308594 95.8125 112.421875 95.742188 112.460938 95.683594 C 112.496094 95.632813 112.5 95.570313 112.476563 95.507813 C 112.449219 95.445313 112.355469 95.339844 112.195313 95.195313 Z M 112.257813 95.101563 " />
<g clip-path="url(#clip1)" clip-rule="nonzero">
<path style=" stroke:none;fill-rule:evenodd;fill:#004394;fill-opacity:1;" d="M 67.417969 0 C 86.035156 0 102.890625 7.546875 115.089844 19.746094 C 127.289063 31.949219 134.835938 48.800781 134.835938 67.417969 C 134.835938 86.035156 127.289063 102.890625 115.089844 115.089844 C 102.890625 127.289063 86.035156 134.835938 67.417969 134.835938 C 48.804688 134.835938 31.949219 127.289063 19.75 115.089844 C 7.546875 102.890625 0.00390625 86.035156 0.00390625 67.417969 C 0.00390625 48.800781 7.546875 31.949219 19.75 19.746094 C 31.949219 7.546875 48.804688 0 67.417969 0 Z M 114.253906 20.585938 C 102.265625 8.597656 85.710938 1.1875 67.417969 1.1875 C 49.128906 1.1875 32.570313 8.597656 20.585938 20.585938 C 8.601563 32.570313 1.1875 49.128906 1.1875 67.417969 C 1.1875 85.707031 8.601563 102.265625 20.585938 114.253906 C 32.570313 126.238281 49.128906 133.652344 67.417969 133.652344 C 85.710938 133.652344 102.265625 126.238281 114.253906 114.253906 C 126.238281 102.265625 133.652344 85.707031 133.652344 67.417969 C 133.652344 49.128906 126.238281 32.570313 114.253906 20.585938 Z M 114.253906 20.585938 " />
</g>
<path style=" stroke:none;fill-rule:evenodd;fill:#004394;fill-opacity:1;" d="M 66.839844 22.144531 C 79.34375 22.144531 90.660156 27.210938 98.855469 35.40625 C 107.046875 43.597656 112.113281 54.917969 112.113281 67.417969 C 112.113281 79.921875 107.046875 91.238281 98.855469 99.433594 C 90.660156 107.625 79.34375 112.695313 66.839844 112.695313 C 54.339844 112.695313 43.019531 107.625 34.828125 99.433594 C 26.632813 91.238281 21.566406 79.921875 21.566406 67.417969 C 21.566406 54.917969 26.632813 43.597656 34.828125 35.40625 C 43.019531 27.210938 54.339844 22.144531 66.839844 22.144531 Z M 98.015625 36.242188 C 90.039063 28.261719 79.015625 23.328125 66.839844 23.328125 C 54.664063 23.328125 43.640625 28.261719 35.664063 36.242188 C 27.683594 44.222656 22.75 55.242188 22.75 67.417969 C 22.75 79.59375 27.683594 90.617188 35.664063 98.59375 C 43.640625 106.574219 54.664063 111.507813 66.839844 111.507813 C 79.015625 111.507813 90.039063 106.574219 98.015625 98.59375 C 105.996094 90.617188 110.929688 79.59375 110.929688 67.417969 C 110.929688 55.242188 105.996094 44.222656 98.015625 36.242188 Z M 98.015625 36.242188 " />
</g>
</svg>